<?xml version="1.0" standalone="no"?>
<!DOCTYPE svg PUBLIC "-//W3C//DTD SVG 1.1//EN" "http://www.w3.org/Graphics/SVG/1.1/DTD/svg11.dtd" >
<svg>
<metadata>
Created by FontForge 20090622 at Wed Feb  3 06:42:36 2016
 By deploy user
Copyright &#194;&#169; 2015 Rogers Communications
</metadata>
<defs>
<font id="TedNext" horiz-adv-x="367" >
  <font-face 
    font-family="Ted Next"
    font-weight="400"
    font-stretch="normal"
    units-per-em="1000"
    panose-1="2 0 5 7 0 0 0 0 0 4"
    ascent="800"
    descent="-200"
    x-height="468"
    cap-height="708"
    bbox="-196 -250 1010 948"
    underline-thickness="50"
    underline-position="-50"
    unicode-range="U+000D-U+FB04"
  />
<missing-glyph horiz-adv-x="512" 
d="M0 0v718h512v-718h-512zM50 50h412v617h-412v-617zM225 234l-2 17q0 56 13 81q15 28 46 59q31 29 40.5 46t9.5 37q0 36 -22.5 60.5t-53.5 24.5q-71 0 -82 -95l-50 8q7 69 43 103t92 34q54 0 89 -36t35 -95q0 -34 -13 -60t-50 -60q-37 -33 -43 -52q-6 -20 -6 -72h-46z
M222 117v67h56v-67h-56z" />
    <glyph glyph-name="f_f" unicode="ff" horiz-adv-x="605" 
d="M566 720q-91 0 -91 -117v-135h122l-14 -46h-108v-422h-58v422h-243v-422h-58v422h-98l12 46h85v136q0 82 39 123.5t107 41.5q50 0 85 -11l-7 -48q-37 10 -74 10q-91 0 -91 -117v-135h242v136q0 82 39 123.5t107 41.5q50 0 85 -11l-7 -48q-37 10 -74 10z" />
    <glyph glyph-name="fi" unicode="fi" horiz-adv-x="536" 
d="M116 0v422h-98l12 46h85v136q0 82 38.5 123.5t104.5 41.5q50 0 85 -11l-7 -48q-38 10 -73 10q-89 0 -89 -117v-135h120l-13 -46h-107v-422h-58zM414 613q-17 0 -29.5 12.5t-12.5 30.5q0 17 12.5 29.5t29.5 12.5t29.5 -12t12.5 -30t-12.5 -30.5t-29.5 -12.5zM385 0v468h59
v-468h-59z" />
    <glyph glyph-name="fl" unicode="fl" horiz-adv-x="539" 
d="M445 117q0 -34 9.5 -50.5t34.5 -28.5l-27 -49q-76 25 -76 115v600q-43 16 -93 16q-61 0 -90 -37.5t-29 -99.5v-115h120l-13 -46h-107v-422h-58v422h-98l12 46h85v116q0 91 48.5 138t127.5 47q47 0 104 -16l50 9v-645z" />
    <glyph glyph-name="f_f_i" unicode="ffi" horiz-adv-x="831" 
d="M416 604q0 82 38 123.5t104 41.5q52 0 85 -11l-7 -48q-35 10 -72 10q-89 0 -89 -117v-135h120l-13 -46h-107v-422h-59v422h-242v-422h-58v422h-98l12 46h85v136q0 82 39 123.5t107 41.5q50 0 85 -11l-7 -48q-37 10 -74 10q-91 0 -91 -117v-135h242v136zM757 656
q0 -18 -12 -30.5t-29 -12.5q-18 0 -30 12.5t-12 30.5q0 17 12.5 29.5t29.5 12.5q16 0 28.5 -12t12.5 -30zM687 0v468h58v-468h-58z" />
    <glyph glyph-name="f_f_l" unicode="ffl" horiz-adv-x="814" 
d="M720 117q0 -34 10 -50t34 -29l-26 -49q-76 25 -76 115v600q-46 16 -93 16q-61 0 -90.5 -37.5t-29.5 -99.5v-115h121l-14 -46h-107v-422h-58v422h-217v-422h-58v422h-98l12 46h85v136q0 82 39 123.5t107 41.5q50 0 85 -11l-7 -48q-37 10 -74 10q-91 0 -91 -117v-135h216
v116q0 92 48.5 138.5t128.5 46.5q46 0 103 -16l50 9v-645z" />
    <glyph glyph-name=".notdef" horiz-adv-x="512" 
d="M0 0v718h512v-718h-512zM50 50h412v617h-412v-617zM225 234l-2 17q0 56 13 81q15 28 46 59q31 29 40.5 46t9.5 37q0 36 -22.5 60.5t-53.5 24.5q-71 0 -82 -95l-50 8q7 69 43 103t92 34q54 0 89 -36t35 -95q0 -34 -13 -60t-50 -60q-37 -33 -43 -52q-6 -20 -6 -72h-46z
M222 117v67h56v-67h-56z" />
    <glyph glyph-name=".null" horiz-adv-x="0" 
 />
    <glyph glyph-name="nonmarkingreturn" horiz-adv-x="333" 
 />
    <glyph glyph-name="CR" unicode="&#xd;" horiz-adv-x="250" 
 />
    <glyph glyph-name="space" unicode=" " horiz-adv-x="250" 
 />
    <glyph glyph-name="exclam" unicode="!" horiz-adv-x="303" 
d="M123 201l-2 507h62l-3 -507h-57zM152 -7q-18 0 -31.5 13.5t-13.5 31.5q0 19 13 32t32 13q18 0 31 -13t13 -32q0 -18 -13 -31.5t-31 -13.5z" />
    <glyph glyph-name="quotedbl" unicode="&#x22;" horiz-adv-x="420" 
d="M108 471v237h51v-237h-51zM261 471v237h51v-237h-51z" />
    <glyph glyph-name="numbersign" unicode="#" horiz-adv-x="561" 
d="M108 0l30 226h-104v43h109l24 171h-106v43h112l29 225h46l-30 -225h146l29 225h46l-30 -225h102v-43h-107l-24 -171h104v-43h-109l-30 -226h-46l30 226h-146l-30 -226h-45zM190 269h145l23 171h-146z" />
    <glyph glyph-name="dollar" unicode="$" horiz-adv-x="580" 
d="M503 180q0 -83 -58.5 -133t-144.5 -57v-74h-39v74q-58 2 -114.5 22.5t-90.5 50.5l13 58q79 -74 192 -79l1 292q-36 13 -58.5 22.5t-51.5 27t-45.5 36.5t-28 48t-11.5 65q0 79 56 127t139 57v74h39v-72q111 -3 189 -60l-17 -55q-30 25 -77 44t-95 20l-1 -288
q40 -14 60.5 -22t53 -26t48.5 -36.5t28.5 -48.5t12.5 -67zM128 537q0 -56 33.5 -86.5t100.5 -56.5v272q-57 -8 -95.5 -41t-38.5 -88zM300 44q61 6 101.5 41t40.5 92q0 58 -35.5 87.5t-106.5 55.5v-276z" />
    <glyph glyph-name="percent" unicode="%" horiz-adv-x="839" 
d="M218 -29l-37 21l437 746l39 -22zM212 381q-69 0 -118 48.5t-49 119.5q0 70 49 119.5t118 49.5q70 0 118.5 -49t48.5 -120t-48.5 -119.5t-118.5 -48.5zM212 427q50 0 85.5 35.5t35.5 86.5t-35.5 87t-85.5 36t-85 -35.5t-35 -87.5q0 -51 35 -86.5t85 -35.5zM628 -10
q-70 0 -118.5 49t-48.5 119t48.5 119t118.5 49t119 -49t49 -119t-49 -119t-119 -49zM628 36q49 0 84.5 35.5t35.5 86.5t-35.5 87t-84.5 36q-50 0 -85 -35.5t-35 -87.5q0 -51 35 -86.5t85 -35.5z" />
    <glyph glyph-name="ampersand" unicode="&#x26;" horiz-adv-x="717" 
d="M278 -16q-92 0 -153.5 53.5t-61.5 146.5q0 72 43 121t123 88q-88 95 -88 172q0 74 49.5 117.5t122.5 43.5q70 0 118 -42t48 -110q0 -64 -42 -106t-124 -86l180 -191l103 183h67l-131 -220l148 -154h-78l-103 109q-88 -125 -221 -125zM280 415q70 35 106 70t36 86
q0 48 -31.5 78.5t-78.5 30.5q-48 0 -81 -32.5t-33 -82.5q0 -64 82 -150zM282 33q110 0 179 115l-198 209q-140 -68 -140 -173q0 -67 46.5 -109t112.5 -42z" />
    <glyph glyph-name="quotesingle" unicode="'" horiz-adv-x="267" 
d="M108 471v237h51v-237h-51z" />
    <glyph glyph-name="parenleft" unicode="(" horiz-adv-x="307" 
d="M192 -159q-64 91 -100.5 208.5t-36.5 238.5t36.5 238.5t100.5 208.5l44 -24q-59 -82 -93.5 -197t-34.5 -226t34.5 -226t93.5 -197z" />
    <glyph glyph-name="parenright" unicode=")" horiz-adv-x="307" 
d="M114 -159l-44 24q60 82 94.5 197t34.5 226t-34.5 226t-94.5 197l44 24q64 -91 100.5 -208.5t36.5 -238.5t-36.5 -238.5t-100.5 -208.5z" />
    <glyph glyph-name="asterisk" unicode="*" horiz-adv-x="452" 
d="M321 354l-95 133l-95 -132l-36 26l96 130l-153 47l15 42l151 -48v156h44v-156l151 47l15 -41l-153 -47l96 -131z" />
    <glyph glyph-name="plus" unicode="+" horiz-adv-x="666" 
d="M309 55v225h-222v48h222v225h50v-225h221v-48h-221v-225h-50z" />
    <glyph glyph-name="comma" unicode="," horiz-adv-x="255" 
d="M173 52q0 -88 -91 -170l-23 15q56 56 65 122q-17 1 -28.5 13.5t-11.5 30.5q0 19 12.5 32t31.5 13t32 -15t13 -41z" />
    <glyph glyph-name="hyphen" unicode="-" horiz-adv-x="309" 
d="M53 228v49h204v-49h-204z" />
    <glyph glyph-name="period" unicode="." horiz-adv-x="255" 
d="M128 -7q-19 0 -31.5 13t-12.5 33q0 18 13 31.5t31 13.5t31.5 -13t13.5 -32t-13.5 -32.5t-31.5 -13.5z" />
    <glyph glyph-name="slash" unicode="/" horiz-adv-x="378" 
d="M58 -22l-45 15l306 741l46 -16z" />
    <glyph glyph-name="zero" unicode="0" horiz-adv-x="580" 
d="M290 -15q-66 0 -113.5 32t-72.5 87.5t-36 117t-11 132.5t11 132.5t36 117t72.5 87.5t113.5 32t113.5 -32t72.5 -87.5t36 -117t11 -132.5t-11 -132.5t-36 -117t-72.5 -87.5t-113.5 -32zM290 37q53 0 89.5 32.5t53 85.5t23 100.5t6.5 98.5t-6.5 98.5t-23 100.5t-53 85.5
t-89.5 32.5q-36 0 -65 -15.5t-47 -42.5t-30.5 -58t-18.5 -69.5t-8.5 -69t-2.5 -62.5t2.5 -62.5t8.5 -69t18.5 -69.5t30.5 -58t47 -42.5t65 -15.5z" />
    <glyph glyph-name="one" unicode="1" horiz-adv-x="580" 
d="M288 0v638l-152 -128l-26 50l182 148h56v-708h-60z" />
    <glyph glyph-name="two" unicode="2" horiz-adv-x="580" 
d="M58 0v53l249 280q52 58 79 106t27 96q0 61 -40.5 99t-102.5 38q-51 0 -95 -24.5t-74 -64.5l-28 47q74 93 201 93q88 0 144.5 -51.5t56.5 -133.5q0 -63 -32.5 -117t-102.5 -131l-209 -236h381l-12 -54h-442z" />
    <glyph glyph-name="three" unicode="3" horiz-adv-x="580" 
d="M275 -15q-136 0 -217 81l14 61q34 -39 87.5 -64.5t112.5 -25.5q73 0 117.5 43t44.5 114q0 52 -30 87.5t-71 50t-87 14.5h-25v49h26q68 0 116.5 36t48.5 107q0 60 -39.5 97.5t-99.5 37.5q-49 0 -94.5 -23.5t-76.5 -61.5l-27 46q76 89 200 89q83 0 140 -49t57 -131
q0 -63 -35.5 -109t-98.5 -60v-2q74 -14 115.5 -63.5t41.5 -116.5q0 -91 -59.5 -149t-160.5 -58z" />
    <glyph glyph-name="four" unicode="4" horiz-adv-x="580" 
d="M370 0v173h-330v57l309 478h77v-484h123l-11 -51h-111v-173h-57zM99 224h271v419h-3z" />
    <glyph glyph-name="five" unicode="5" horiz-adv-x="580" 
d="M270 -15q-135 0 -214 79l12 59q34 -38 87 -62t112 -24q70 0 122 48.5t52 130.5q0 81 -51.5 129.5t-135.5 48.5q-71 0 -141 -35l13 349h345l-12 -53h-279l-10 -232q43 19 104 19q101 0 164 -61.5t63 -161.5q0 -108 -67.5 -171t-163.5 -63z" />
    <glyph glyph-name="six" unicode="6" horiz-adv-x="580" 
d="M300 -15q-104 0 -170.5 78.5t-66.5 225.5q0 201 78.5 313.5t222.5 112.5q68 0 113 -20l-11 -51q-50 21 -103 21q-108 0 -170.5 -88t-68.5 -247h2q64 98 180 98q89 0 150 -62.5t61 -157.5q0 -99 -59.5 -161t-157.5 -62zM299 36q72 0 115 48t43 124q0 74 -45 123.5
t-114 49.5q-73 0 -122.5 -47.5t-49.5 -108.5q0 -72 48.5 -130.5t124.5 -58.5z" />
    <glyph glyph-name="seven" unicode="7" horiz-adv-x="580" 
d="M133 0l296 655h-364l11 53h413v-56l-288 -652h-68z" />
    <glyph glyph-name="eight" unicode="8" horiz-adv-x="580" 
d="M290 -15q-95 0 -159 56t-64 148q0 66 37.5 117t103.5 71v2q-55 20 -85 64t-30 98q0 82 56.5 132t140.5 50t141 -50.5t57 -131.5q0 -54 -30.5 -98.5t-85.5 -63.5v-2q68 -21 105 -71.5t37 -115.5q0 -93 -64.5 -149t-159.5 -56zM290 401q59 0 99.5 40.5t40.5 96.5
q0 59 -40.5 97.5t-99.5 38.5q-60 0 -99.5 -38t-39.5 -98q0 -57 39.5 -97t99.5 -40zM290 35q73 0 118 45t45 113q0 69 -47 114t-116 45q-70 0 -116.5 -45t-46.5 -114q0 -68 45 -113t118 -45z" />
    <glyph glyph-name="nine" unicode="9" horiz-adv-x="580" 
d="M285 715q105 0 168.5 -82.5t63.5 -233.5q0 -210 -73.5 -312t-203.5 -102q-87 0 -138 28l10 52q60 -29 130 -29q94 0 153 83.5t61 249.5h-3q-24 -40 -74 -68.5t-108 -28.5q-92 0 -150 61.5t-58 158.5q0 98 63 160.5t159 62.5zM285 664q-70 0 -116 -48.5t-46 -123.5
t44 -124t114 -49t123 46.5t53 89.5q0 85 -48.5 147t-123.5 62z" />
    <glyph glyph-name="colon" unicode=":" horiz-adv-x="294" 
d="M147 382q-18 0 -30.5 12.5t-12.5 31.5t12.5 32t30.5 13t31 -13t13 -31q0 -19 -13 -32t-31 -13zM147 -6q-18 0 -30.5 13t-12.5 32q0 18 12.5 31.5t30.5 13.5t31 -13t13 -32t-13 -32t-31 -13z" />
    <glyph glyph-name="semicolon" unicode=";" horiz-adv-x="294" 
d="M147 382q-18 0 -30.5 12.5t-12.5 31.5t12.5 32t30.5 13t31 -13t13 -31q0 -19 -13 -32t-31 -13zM189 52q0 -89 -90 -170l-23 15q56 56 65 122q-17 1 -28.5 13.5t-11.5 30.5q0 19 12.5 32t31.5 13t31.5 -15t12.5 -41z" />
    <glyph glyph-name="less" unicode="&#x3c;" horiz-adv-x="666" 
d="M575 55l-484 227v42l484 227v-51l-421 -197l421 -197v-51z" />
    <glyph glyph-name="equal" unicode="=" horiz-adv-x="666" 
d="M89 364v48h488v-48h-488zM89 196v47h488v-47h-488z" />
    <glyph glyph-name="greater" unicode="&#x3e;" horiz-adv-x="666" 
d="M91 55v51l421 197l-421 197v51l484 -227v-42z" />
    <glyph glyph-name="question" unicode="?" horiz-adv-x="487" 
d="M206 203v32q0 45 17 82t60 80q35 35 48.5 50t27.5 44t14 61q0 55 -39 87.5t-98 32.5q-101 0 -168 -79l-29 47q77 85 202 85q82 0 137.5 -46t55.5 -126q0 -30 -6.5 -54.5t-23 -47.5t-28.5 -35.5t-39 -38.5q-46 -45 -60 -74t-14 -79v-21h-57zM238 -7q-18 0 -31 13.5
t-13 31.5q0 19 12.5 32t31.5 13q18 0 30.5 -13t12.5 -32q0 -18 -12.5 -31.5t-30.5 -13.5z" />
    <glyph glyph-name="at" unicode="@" horiz-adv-x="800" 
d="M419 -19q-167 0 -272.5 106.5t-105.5 266.5q0 157 109 265t266 108q148 0 248.5 -87.5t100.5 -229.5q0 -108 -51.5 -179t-140.5 -71q-41 0 -64.5 22t-24.5 59h-3q-17 -32 -50.5 -56.5t-79.5 -24.5q-60 0 -93.5 41t-33.5 103q0 93 56 170.5t142 77.5q42 0 69 -21t34 -56h3
l15 60h46l-54 -211q-10 -40 -10 -69q0 -51 57 -51q64 0 100 58.5t36 145.5q0 123 -85 199.5t-218 76.5q-140 0 -231.5 -97t-91.5 -234q0 -143 92.5 -236t238.5 -93q160 0 269 117l29 -31q-118 -129 -302 -129zM361 204q46 0 80.5 39t49 85t14.5 83q0 42 -20 69.5t-62 27.5
q-65 0 -106 -65.5t-41 -139.5q0 -42 21 -70.5t64 -28.5z" />
    <glyph glyph-name="A" unicode="A" horiz-adv-x="686" 
d="M11 0l304 708h63l297 -708h-67l-108 262h-315l-108 -262h-66zM205 313h276l-136 334z" />
    <glyph glyph-name="B" unicode="B" horiz-adv-x="582" 
d="M97 0v708h165q60 0 108 -14t83 -54.5t35 -104.5t-38 -104.5t-97 -55.5v-2q67 -8 117 -54t50 -125q0 -100 -70.5 -147t-173.5 -47h-179zM157 395h102q70 0 119.5 33.5t49.5 99.5q0 68 -49.5 98.5t-129.5 30.5h-92v-262zM157 51h108q87 0 140.5 35.5t53.5 109.5
q0 75 -53.5 112.5t-130.5 37.5h-118v-295z" />
    <glyph glyph-name="C" unicode="C" horiz-adv-x="718" 
d="M429 -19q-160 0 -263.5 105t-103.5 268t104 268t264 105q71 0 138.5 -24t107.5 -60l-18 -60q-37 38 -98.5 63.5t-128.5 25.5q-135 0 -219.5 -91.5t-84.5 -226.5t84 -226.5t221 -91.5q136 0 233 95l14 -55q-37 -39 -106 -67t-144 -28z" />
    <glyph glyph-name="D" unicode="D" horiz-adv-x="767" 
d="M97 0v708h220q79 0 147.5 -21t123 -62.5t86 -111t31.5 -159.5q0 -88 -31.5 -157t-85.5 -111.5t-122.5 -64t-147.5 -21.5h-221zM157 54h150q151 0 243 78t92 222q0 145 -91.5 222.5t-242.5 77.5h-151v-600z" />
    <glyph glyph-name="E" unicode="E" horiz-adv-x="545" 
d="M97 0v708h379l-12 -53h-308v-263h296l-12 -51h-284v-287h335l-12 -54h-382z" />
    <glyph glyph-name="F" unicode="F" horiz-adv-x="509" 
d="M97 0v708h363l-3 -54h-299v-265h286l-12 -52h-274v-337h-61z" />
    <glyph glyph-name="G" unicode="G" horiz-adv-x="786" 
d="M437 -19q-165 0 -270 106t-105 268q0 163 105 267.5t267 104.5q71 0 138 -21t112 -54l-20 -53q-96 74 -229 74q-137 0 -223 -91.5t-86 -226.5q0 -136 85.5 -228t228.5 -92q111 0 199 43v238h-170l11 51h217v-323q-110 -63 -260 -63z" />
    <glyph glyph-name="H" unicode="H" horiz-adv-x="755" 
d="M97 0v708h61v-314h440v314h60v-708h-60v341h-440v-341h-61z" />
    <glyph glyph-name="I" unicode="I" horiz-adv-x="255" 
d="M97 0v708h61v-708h-61z" />
    <glyph glyph-name="J" unicode="J" horiz-adv-x="381" 
d="M26 45q28 -9 61 -9q73 0 107 46.5t34 124.5v501h60v-506q0 -97 -48 -158.5t-145 -61.5q-28 0 -58 5z" />
    <glyph glyph-name="K" unicode="K" horiz-adv-x="606" 
d="M97 0v708h61v-339l334 339h82l-348 -343l366 -365h-84l-350 354v-354h-61z" />
    <glyph glyph-name="L" unicode="L" horiz-adv-x="506" 
d="M97 0v708h61v-654h318l-12 -54h-367z" />
    <glyph glyph-name="M" unicode="M" horiz-adv-x="910" 
d="M97 0v708h93l265 -614l264 614h94v-708h-61l1 640l-280 -640h-40l-277 640v-640h-59z" />
    <glyph glyph-name="N" unicode="N" horiz-adv-x="776" 
d="M97 0v708h75l445 -622h2v622h60v-708h-75l-445 624h-2v-624h-60z" />
    <glyph glyph-name="O" unicode="O" horiz-adv-x="863" 
d="M432 -19q-160 0 -265 105.5t-105 268.5t105 267.5t265 104.5t264 -104.5t104 -267.5t-104.5 -268.5t-263.5 -105.5zM432 36q135 0 219.5 92t84.5 227t-85 226.5t-219 91.5q-135 0 -220.5 -91.5t-85.5 -226.5t85 -227t221 -92z" />
    <glyph glyph-name="P" unicode="P" horiz-adv-x="582" 
d="M97 0v708h203q100 0 167 -48.5t67 -146.5q0 -96 -65.5 -154t-162.5 -58h-148v-301h-61zM158 351h145q71 0 120.5 44t49.5 118q0 72 -49.5 108.5t-122.5 36.5h-143v-307z" />
    <glyph glyph-name="Q" unicode="Q" horiz-adv-x="863" 
d="M426 0q-159 0 -261.5 101.5t-102.5 260.5q0 158 102.5 261.5t262.5 103.5q158 0 262 -103.5t104 -260.5q0 -103 -56.5 -191t-142.5 -119v-2l240 1l-11 -52h-397zM429 51q129 0 215.5 90t86.5 220q0 132 -85 222t-218 90q-130 0 -216 -89.5t-86 -222.5q0 -132 85.5 -221
t217.5 -89z" />
    <glyph glyph-name="R" unicode="R" horiz-adv-x="608" 
d="M97 0v708h195q48 0 88 -9t74.5 -29t54 -58t19.5 -91q0 -80 -48.5 -132t-116.5 -67l200 -322h-71l-188 312h-146v-312h-61zM157 361h132q80 0 129.5 43.5t49.5 116.5t-52 105t-135 32h-124v-297z" />
    <glyph glyph-name="S" unicode="S" horiz-adv-x="572" 
d="M282 -19q-60 0 -120 21t-97 53l13 58q39 -36 93.5 -57.5t108.5 -21.5q69 0 118 38t49 105q0 28 -10.5 50t-23 36t-40.5 28.5t-45 21t-54 19.5t-59 22t-52 26.5t-46.5 36.5t-29 49t-12.5 67q0 92 67.5 143t160.5 51q110 0 192 -59l-18 -55q-31 25 -78.5 43.5t-95.5 18.5
q-67 0 -117.5 -36.5t-50.5 -103.5q0 -34 12 -58.5t39.5 -42.5t50 -28t64.5 -24l51 -18t46.5 -19.5t45 -27t33 -33t25 -45.5t7.5 -57q0 -95 -66.5 -148t-160.5 -53z" />
    <glyph glyph-name="T" unicode="T" horiz-adv-x="522" 
d="M231 0v654h-227l12 54h501l-11 -54h-215v-654h-60z" />
    <glyph glyph-name="U" unicode="U" horiz-adv-x="727" 
d="M364 -19q-141 0 -208 80.5t-67 205.5v441h61v-434q0 -35 5 -66t19.5 -63.5t37.5 -56t62 -38.5t90 -15q62 0 106 21.5t66.5 58t32 75.5t9.5 84v434h60v-441q0 -59 -15 -109t-46.5 -90.5t-86 -63.5t-126.5 -23z" />
    <glyph glyph-name="V" unicode="V" horiz-adv-x="623" 
d="M276 0l-268 708h67l235 -637h2l237 637h66l-270 -708h-69z" />
    <glyph glyph-name="W" unicode="W" horiz-adv-x="972" 
d="M229 0l-209 708h64l181 -630h3l181 630h72l185 -630h2l181 630h63l-209 -708h-70l-187 631h-2l-185 -631h-70z" />
    <glyph glyph-name="X" unicode="X" horiz-adv-x="625" 
d="M22 0l252 372l-229 336h73l195 -293l193 293h71l-228 -336l254 -372h-75l-217 327l-216 -327h-73z" />
    <glyph glyph-name="Y" unicode="Y" horiz-adv-x="577" 
d="M258 0v307l-253 401h74l211 -348l211 348h71l-253 -401v-307h-61z" />
    <glyph glyph-name="Z" unicode="Z" horiz-adv-x="595" 
d="M46 0v56l422 599h-401v53h470v-56l-422 -598h454l-12 -54h-511z" />
    <glyph glyph-name="bracketleft" unicode="[" horiz-adv-x="307" 
d="M70 -156v888h159v-43h-108v-802h108v-43h-159z" />
    <glyph glyph-name="backslash" unicode="\" horiz-adv-x="378" 
d="M321 -22l-307 740l46 16l306 -741z" />
    <glyph glyph-name="bracketright" unicode="]" horiz-adv-x="307" 
d="M79 -156v43h107v802h-107v43h159v-888h-159z" />
    <glyph glyph-name="asciicircum" unicode="^" horiz-adv-x="670" 
d="M89 268l223 440h47l222 -440h-53l-193 388l-193 -388h-53z" />
    <glyph glyph-name="underscore" unicode="_" horiz-adv-x="500" 
d="M0 -125v39h500v-39h-500z" />
    <glyph glyph-name="grave" unicode="`" horiz-adv-x="250" 
d="M124 565l-122 144h68l102 -144h-48z" />
    <glyph glyph-name="a" unicode="a" horiz-adv-x="524" 
d="M207 -13q-61 0 -105 35t-44 104q0 155 268 155h57v27q0 63 -35.5 95.5t-97.5 32.5q-38 0 -79.5 -17t-69.5 -41l-17 46q70 59 174 59q85 0 132.5 -45t47.5 -134v-202q0 -65 8 -102h-54q-7 40 -7 91h-3q-21 -51 -69.5 -77.5t-105.5 -26.5zM219 31q78 0 121 50.5t43 113.5
v47h-49q-220 0 -220 -114q0 -50 30.5 -73.5t74.5 -23.5z" />
    <glyph glyph-name="b" unicode="b" horiz-adv-x="634" 
d="M344 -13q-61 0 -114 30.5t-78 84.5h-3q-2 -57 -7 -102h-54q5 53 5 116v640l59 11v-400h2q28 55 79 85t111 30q104 0 169 -71t65 -177t-65.5 -176.5t-168.5 -70.5zM335 36q84 0 134.5 57.5t50.5 140.5t-50.5 141t-134.5 58q-79 0 -132 -58t-53 -141q0 -82 53 -140t132 -58
z" />
    <glyph glyph-name="c" unicode="c" horiz-adv-x="489" 
d="M300 -14q-106 0 -175 69.5t-69 178.5t69.5 179t176.5 70q45 0 89 -15.5t70 -40.5l-24 -45q-51 51 -134 51t-134.5 -57.5t-51.5 -141.5q0 -83 51.5 -140t136.5 -57q84 0 147 55l9 -49q-62 -57 -161 -57z" />
    <glyph glyph-name="d" unicode="d" horiz-adv-x="634" 
d="M291 -13q-104 0 -169.5 70.5t-65.5 176.5t65.5 177t169.5 71q60 0 111 -30t79 -85h2v389l58 12v-649q0 -52 5 -119h-56q-5 57 -5 102h-2q-29 -55 -80.5 -85t-111.5 -30zM299 36q80 0 133 58t53 140q0 83 -53 141t-133 58q-84 0 -134 -58t-50 -141t50 -140.5t134 -57.5z
" />
    <glyph glyph-name="e" unicode="e" horiz-adv-x="567" 
d="M296 -14q-105 0 -172.5 70t-67.5 181q0 107 66.5 176.5t165.5 69.5q105 0 164 -66.5t59 -165.5q0 -17 -1 -25h-397q2 -81 54.5 -136.5t133.5 -55.5q99 0 172 61l10 -50q-78 -59 -187 -59zM114 269h341q-2 76 -47 122t-120 46q-78 0 -124.5 -54t-49.5 -114z" />
    <glyph glyph-name="f" unicode="f" horiz-adv-x="304" 
d="M116 0v422h-98l12 46h85v136q0 82 39 123.5t107 41.5q50 0 85 -11l-7 -48q-37 10 -74 10q-91 0 -91 -117v-135h122l-13 -46h-109v-422h-58z" />
    <glyph glyph-name="g" unicode="g" horiz-adv-x="633" 
d="M292 -246q-115 0 -206 57l11 54q92 -61 192 -61q194 0 194 202v99h-2q-26 -53 -78 -83.5t-112 -30.5q-104 0 -169.5 69.5t-65.5 174.5t66 176t169 71q60 0 111.5 -30.5t79.5 -86.5h2q0 46 5 103h55q-3 -49 -3 -103v-358q0 -115 -60.5 -184t-188.5 -69zM299 39
q80 0 133 57t53 140q0 82 -53 139.5t-133 57.5q-83 0 -133.5 -57.5t-50.5 -140.5q0 -81 50.5 -138.5t133.5 -57.5z" />
    <glyph glyph-name="h" unicode="h" horiz-adv-x="581" 
d="M93 0v754l59 9v-394h2q19 52 65.5 82.5t102.5 30.5q89 0 130 -55.5t41 -140.5v-286h-58v271q0 69 -29 115.5t-99 46.5q-67 0 -111 -54t-44 -151v-228h-59z" />
    <glyph glyph-name="i" unicode="i" horiz-adv-x="244" 
d="M122 613q-17 0 -29.5 12.5t-12.5 30.5q0 17 12.5 29.5t29.5 12.5t29.5 -12t12.5 -30t-12.5 -30.5t-29.5 -12.5zM93 0v468h59v-468h-59z" />
    <glyph glyph-name="j" unicode="j" horiz-adv-x="245" 
d="M123 613q-17 0 -29.5 12.5t-12.5 30.5q0 17 12.5 29.5t29.5 12.5t29.5 -12t12.5 -30t-13 -30.5t-29 -12.5zM8 -191q49 0 67.5 25t18.5 90v544h58v-546q0 -77 -28.5 -118.5t-100.5 -44.5z" />
    <glyph glyph-name="k" unicode="k" horiz-adv-x="488" 
d="M93 0v753l59 10v-507h2l218 212h77l-231 -215l253 -253h-76l-241 244h-2v-244h-59z" />
    <glyph glyph-name="l" unicode="l" horiz-adv-x="246" 
d="M169 -11q-76 27 -76 115v647l59 11v-645q0 -34 9.5 -50.5t34.5 -28.5z" />
    <glyph glyph-name="m" unicode="m" horiz-adv-x="893" 
d="M94 0v359q0 72 -4 109h55q5 -40 5 -101h2q20 53 64 84t98 31q116 0 153 -120q22 57 66.5 88.5t103.5 31.5q88 0 128.5 -57t40.5 -144v-281h-58v267q0 71 -28.5 118.5t-94.5 47.5t-107 -53t-41 -138v-242h-59v277q0 156 -118 156q-63 0 -105 -53.5t-42 -146.5v-233h-59z
" />
    <glyph glyph-name="n" unicode="n" horiz-adv-x="582" 
d="M94 0v359q0 73 -4 109h55q5 -40 5 -101h2q20 52 66.5 83.5t102.5 31.5q89 0 131.5 -56t42.5 -140v-286h-59v271q0 69 -29 115.5t-98 46.5q-67 0 -111.5 -52.5t-44.5 -141.5v-239h-59z" />
    <glyph glyph-name="o" unicode="o" horiz-adv-x="611" 
d="M305 -14q-108 0 -178.5 70.5t-70.5 178.5q0 109 70.5 178.5t178.5 69.5q109 0 179.5 -69.5t70.5 -178.5q0 -108 -71 -178.5t-179 -70.5zM305 36q87 0 139 57.5t52 141.5t-52.5 141t-138.5 57t-138 -57t-52 -141t52 -141.5t138 -57.5z" />
    <glyph glyph-name="p" unicode="p" horiz-adv-x="634" 
d="M92 -240v622q0 43 -3 86h57q4 -56 4 -102h3q27 55 78 85.5t112 30.5q104 0 169.5 -70.5t65.5 -177.5q0 -106 -65.5 -176.5t-169.5 -70.5q-60 0 -111.5 30t-77.5 83h-3v-340h-59zM335 36q83 0 133 57.5t50 140.5t-50 141t-133 58q-80 0 -133 -58t-53 -141q0 -82 53 -140
t133 -58z" />
    <glyph glyph-name="q" unicode="q" horiz-adv-x="634" 
d="M583 -241q-100 27 -100 131v210h-3q-26 -53 -77.5 -83t-111.5 -30q-104 0 -169.5 70.5t-65.5 176.5q0 107 65.5 177.5t169.5 70.5q61 0 112 -30.5t78 -85.5h3q0 34 4 102h56q-3 -42 -3 -86v-480q0 -42 15.5 -61.5t53.5 -31.5zM299 36q80 0 133 58t53 140q0 83 -53 141
t-133 58q-84 0 -134 -58t-50 -141t50 -140.5t134 -57.5z" />
    <glyph glyph-name="r" unicode="r" horiz-adv-x="342" 
d="M94 0v354q0 78 -5 114h56q5 -42 5 -101h2q18 54 56.5 84.5t80.5 30.5q26 0 50 -8l-12 -51q-21 7 -42 7q-61 0 -96.5 -57.5t-35.5 -139.5v-233h-59z" />
    <glyph glyph-name="s" unicode="s" horiz-adv-x="432" 
d="M223 -13q-105 0 -168 52l10 51q65 -57 156 -57q43 0 74 23.5t31 64.5q0 35 -30.5 57t-98.5 44q-67 22 -100 50.5t-33 81.5q0 61 46.5 95t108.5 34q87 0 149 -50l-25 -43q-56 46 -122 46q-44 0 -73 -20t-29 -59q0 -35 26.5 -54.5t92.5 -41.5q74 -24 109 -55t35 -83
q0 -64 -47.5 -100t-111.5 -36z" />
    <glyph glyph-name="t" unicode="t" horiz-adv-x="322" 
d="M209 -10q-50 0 -79.5 32t-29.5 91v309h-88l12 46h75v112l59 23v-135h133l-12 -46h-121v-301q0 -83 68 -83q33 0 75 21l8 -44q-46 -25 -100 -25z" />
    <glyph glyph-name="u" unicode="u" horiz-adv-x="582" 
d="M257 -13q-88 0 -129.5 56t-41.5 140v285h59v-270q0 -44 9.5 -78t39.5 -59.5t78 -25.5q67 0 111.5 53.5t44.5 146.5v233h58v-359q0 -57 9 -109l-58 -1q-3 24 -9 102q-20 -52 -67.5 -83t-103.5 -31z" />
    <glyph glyph-name="v" unicode="v" horiz-adv-x="440" 
d="M188 0l-180 468h63l151 -409l147 409h60l-174 -468h-67z" />
    <glyph glyph-name="w" unicode="w" horiz-adv-x="741" 
d="M170 0l-144 468h63l115 -401h3l131 401h64l133 -401h2l116 401h61l-145 -468h-64l-135 399h-2l-133 -399h-65z" />
    <glyph glyph-name="x" unicode="x" horiz-adv-x="485" 
d="M19 0l186 246l-166 222h71l132 -183l132 183h70l-166 -221l188 -247h-74l-151 207l-151 -207h-71z" />
    <glyph glyph-name="y" unicode="y" horiz-adv-x="468" 
d="M47 -188q53 2 83.5 21t48.5 65l36 98l-197 472h65l162 -406l142 406h63l-218 -586q-23 -63 -63.5 -91.5t-105.5 -30.5z" />
    <glyph glyph-name="z" unicode="z" horiz-adv-x="452" 
d="M41 0v46l288 376h-283l12 46h340v-46l-287 -374h306l-10 -48h-366z" />
    <glyph glyph-name="braceleft" unicode="{" horiz-adv-x="307" 
d="M189 -156q-51 0 -81.5 31.5t-30.5 97.5v186q0 107 -76 107v44q76 0 76 106v187q0 66 30.5 97.5t81.5 31.5h57v-43h-47q-71 0 -71 -92v-186q0 -59 -23 -87.5t-54 -34.5v-2q30 -5 53.5 -34t23.5 -88v-186q0 -92 71 -92h47v-43h-57z" />
    <glyph glyph-name="bar" unicode="|" horiz-adv-x="225" 
d="M87 -250v1000h51v-1000h-51z" />
    <glyph glyph-name="braceright" unicode="}" horiz-adv-x="307" 
d="M62 -156v43h47q70 0 70 92v186q0 59 23.5 88t54.5 34v2q-31 6 -54.5 34.5t-23.5 87.5v186q0 92 -70 92h-47v43h57q51 0 81 -31.5t30 -97.5v-187q0 -106 76 -106v-44q-76 0 -76 -107v-186q0 -66 -30 -97.5t-81 -31.5h-57z" />
    <glyph glyph-name="asciitilde" unicode="~" horiz-adv-x="666" 
d="M122 236l-31 37q55 94 133 94q53 0 106 -36q68 -45 112 -45q55 0 106 79l31 -37q-59 -93 -134 -93q-49 0 -105 36q-40 26 -62.5 35.5t-49.5 9.5q-63 0 -106 -80z" />
    <glyph glyph-name="uni00A0" unicode="&#xa0;" horiz-adv-x="250" 
 />
    <glyph glyph-name="exclamdown" unicode="&#xa1;" horiz-adv-x="303" 
d="M152 405q-19 0 -32 13t-13 32q0 18 13 31.5t32 13.5q18 0 31 -13t13 -32t-13 -32t-31 -13zM121 -220l2 507h57l3 -507h-62z" />
    <glyph glyph-name="cent" unicode="&#xa2;" horiz-adv-x="580" 
d="M488 92l9 -49q-58 -53 -153 -56v-60h-38v61q-96 10 -156.5 77.5t-60.5 168.5q0 100 60.5 168t156.5 79v65h38v-63q44 -1 86 -16.5t67 -39.5l-24 -45q-49 48 -129 51v-396q83 0 144 55zM149 234q0 -74 42.5 -128.5t114.5 -65.5v391q-72 -11 -114.5 -66.5t-42.5 -130.5z
" />
    <glyph glyph-name="sterling" unicode="&#xa3;" horiz-adv-x="580" 
d="M75 0v51h11q48 0 71 34.5t23 80.5v177h-109l12 47h97v112q0 98 51 161t151 63q79 0 141 -41l-23 -49q-50 38 -117 38q-76 0 -109.5 -50t-33.5 -127v-107h178l-12 -47h-166v-171q0 -94 -67 -121h326l-11 -51h-413z" />
    <glyph glyph-name="currency" unicode="&#xa4;" horiz-adv-x="842" 
d="M621 470q52 -66 52 -160q0 -97 -56 -166l94 -94l-35 -35l-95 95q-67 -54 -159 -54t-160 56l-97 -97q-16 19 -35 35l96 96q-54 67 -54 164q0 93 51 158l-93 92l36 34l91 -91q68 57 165 57q98 0 163 -56l90 90l36 -34zM422 508q-86 0 -139.5 -57t-53.5 -141q0 -85 53 -143
t140 -58t140 58t53 143q0 84 -53.5 141t-139.5 57z" />
    <glyph glyph-name="yen" unicode="&#xa5;" horiz-adv-x="580" 
d="M262 0v185h-188l12 42h176v113h-188l12 43h157l-224 325h71l202 -310l202 310h67l-221 -325h166l-12 -43h-175v-113h187l-12 -42h-175v-185h-57z" />
    <glyph glyph-name="brokenbar" unicode="&#xa6;" horiz-adv-x="225" 
d="M89 334v341h47v-341h-47zM89 -173v342h47v-342h-47z" />
    <glyph glyph-name="section" unicode="&#xa7;" horiz-adv-x="573" 
d="M267 -136q-127 0 -190 89l48 33q46 -72 143 -72q53 0 90.5 27.5t37.5 79.5q0 44 -32.5 69t-139.5 70q-70 30 -101 60t-30 89q0 53 34 88t81 48q-44 23 -65.5 50.5t-21.5 76.5q0 73 53.5 114t129.5 41q119 0 167 -78l-45 -31q-16 27 -48.5 43.5t-73.5 16.5
q-52 0 -88.5 -28t-36.5 -78q0 -45 29 -68t131 -66q71 -29 106.5 -63t35.5 -89q0 -54 -32.5 -89t-81.5 -47q89 -44 89 -126q0 -76 -55 -118t-134 -42zM321 176q43 5 73.5 31.5t30.5 71.5q0 43 -29.5 68.5t-86.5 48.5l-54 22q-43 -7 -75 -33t-32 -73q0 -24 8 -41t28.5 -31
t33.5 -20.5t45 -20.5z" />
    <glyph glyph-name="dieresis" unicode="&#xa8;" horiz-adv-x="250" 
d="M38 614q-17 0 -29 12t-12 30q0 16 12.5 28.5t28.5 12.5q17 0 29 -12t12 -29q0 -18 -12 -30t-29 -12zM213 614q-17 0 -29 12t-12 30q0 17 12 29t29 12t29 -12.5t12 -28.5q0 -18 -12 -30t-29 -12z" />
    <glyph glyph-name="copyright" unicode="&#xa9;" horiz-adv-x="800" 
d="M401 -22q-158 0 -269.5 109.5t-111.5 265.5q0 157 111.5 267t269.5 110q157 0 268 -110t111 -267q0 -156 -111 -265.5t-268 -109.5zM401 15q141 0 240.5 98.5t99.5 239.5q0 142 -99.5 241t-240.5 99q-142 0 -242 -99t-100 -241q0 -141 100 -239.5t242 -98.5zM416 127
q-97 0 -159.5 63t-62.5 163q0 99 63 162.5t159 63.5q40 0 81 -14t66 -35l-16 -44q-54 49 -131 49t-124 -52.5t-47 -129.5q0 -76 47 -128.5t125 -52.5q81 0 131 48l6 -45q-50 -48 -138 -48z" />
    <glyph glyph-name="ordfeminine" unicode="&#xaa;" horiz-adv-x="358" 
d="M147 424q-39 0 -70 21.5t-31 64.5q0 31 17 51.5t50 29.5t64.5 12t76.5 3v9q0 71 -78 71q-55 0 -102 -35l-12 33q50 37 117 37q58 0 88 -29t30 -80v-122q0 -34 5 -59h-41q-5 22 -5 53h-1q-33 -60 -108 -60zM159 458q44 0 70 27.5t26 68.5v21h-15q-45 0 -74.5 -3.5
t-53 -18.5t-23.5 -42q0 -28 20.5 -40.5t49.5 -12.5z" />
    <glyph glyph-name="guillemotleft" unicode="&#xab;" horiz-adv-x="492" 
d="M198 34l-133 207l133 205l38 -25l-114 -180l115 -180zM379 34l-134 207l133 205l39 -25l-115 -180l115 -180z" />
    <glyph glyph-name="logicalnot" unicode="&#xac;" horiz-adv-x="666" 
d="M532 135v228h-450v48h501v-276h-51z" />
    <glyph glyph-name="uni00AD" unicode="&#xad;" horiz-adv-x="309" 
d="M53 228v49h204v-49h-204z" />
    <glyph glyph-name="registered" unicode="&#xae;" horiz-adv-x="600" 
d="M301 269q-95 0 -162 65.5t-67 159.5t67 160t162 66q94 0 160.5 -66t66.5 -160t-66.5 -159.5t-160.5 -65.5zM301 293q82 0 140.5 59.5t58.5 141.5t-58 140.5t-141 58.5t-142 -58.5t-59 -140.5t59 -141.5t142 -59.5zM215 368v256h91q41 0 66.5 -19t25.5 -56q0 -29 -18 -47
t-44 -22l72 -112h-46l-65 108h-43v-108h-39zM254 505h41q63 0 63 45q0 41 -53 41h-51v-86z" />
    <glyph glyph-name="overscore" unicode="&#xaf;" horiz-adv-x="250" 
d="M-5 613v39h260v-39h-260z" />
    <glyph glyph-name="degree" unicode="&#xb0;" horiz-adv-x="403" 
d="M201 419q-63 0 -106 43.5t-43 106.5t43 106t106 43t106.5 -43t43.5 -106t-43.5 -106.5t-106.5 -43.5zM201 456q47 0 80 33t33 80t-33 80t-80 33q-46 0 -79 -33t-33 -80t33 -80t79 -33z" />
    <glyph glyph-name="plusminus" unicode="&#xb1;" horiz-adv-x="666" 
d="M308 170v172h-224v48h223v175h51v-175h227v-48h-227v-172h-50zM87 45v49h495v-49h-495z" />
    <glyph glyph-name="uni00B2" unicode="&#xb2;" horiz-adv-x="354" 
d="M38 452v39l157 169q58 62 58 107q0 35 -22.5 55.5t-57.5 20.5q-58 0 -106 -56l-21 38q50 59 130 59q57 0 91.5 -31t34.5 -81q0 -38 -18.5 -70t-60.5 -75l-129 -134h221l-12 -41h-265z" />
    <glyph glyph-name="uni00B3" unicode="&#xb3;" horiz-adv-x="363" 
d="M170 442q-83 0 -126 45l15 41q16 -18 47.5 -31.5t61.5 -13.5q42 0 66.5 22.5t24.5 62.5q0 41 -31.5 63t-75.5 22h-22v38h22q44 0 69 23t25 59q0 34 -22 53t-56 19q-57 0 -97 -42l-18 35q48 46 118 46q56 0 89 -29t33 -81q0 -36 -21 -62.5t-56 -36.5q42 -8 66 -37.5
t24 -70.5q0 -59 -39.5 -92t-96.5 -33z" />
    <glyph glyph-name="acute" unicode="&#xb4;" horiz-adv-x="250" 
d="M78 565l102 144h68l-122 -144h-48z" />
    <glyph glyph-name="uni00B5" unicode="&#xb5;" horiz-adv-x="596" 
d="M509 468v-468h-47l-7 91h-3q-44 -101 -163 -101q-107 0 -145 74h-2q0 -12 0.5 -44.5t0.5 -49.5v-210h-57v708h57v-273q0 -74 38 -113t109 -39q86 0 124 50t38 147v228h57z" />
    <glyph glyph-name="paragraph" unicode="&#xb6;" horiz-adv-x="603" 
d="M273 -127v460q-96 1 -154.5 53t-58.5 129q0 95 60 144t167 49h219v-835h-49v794h-135v-794h-49z" />
    <glyph glyph-name="middot" unicode="&#xb7;" horiz-adv-x="255" 
d="M128 231q-19 0 -31.5 13t-12.5 32t12.5 32t31.5 13q18 0 31.5 -13t13.5 -32t-13.5 -32t-31.5 -13z" />
    <glyph glyph-name="cedilla" unicode="&#xb8;" horiz-adv-x="250" 
d="M112 -229q-51 0 -96 21l11 29q35 -17 83 -17q30 0 53 12t23 40q0 44 -62 44q-32 0 -58 -12l-16 14l67 98h38l-54 -79q21 6 43 6q36 0 62 -17t26 -54q0 -46 -36.5 -65.5t-83.5 -19.5z" />
    <glyph glyph-name="uni00B9" unicode="&#xb9;" 
d="M172 452v368l-93 -68l-18 42l115 81h44v-423h-48z" />
    <glyph glyph-name="ordmasculine" unicode="&#xba;" horiz-adv-x="358" 
d="M180 424q-65 0 -106.5 42t-41.5 107q0 66 41.5 107.5t106.5 41.5q64 0 105.5 -41.5t41.5 -107.5q0 -65 -41.5 -107t-105.5 -42zM180 461q48 0 76 32t28 80q0 47 -28 79t-76 32t-76.5 -32t-28.5 -79t28.5 -79.5t76.5 -32.5z" />
    <glyph glyph-name="guillemotright" unicode="&#xbb;" horiz-adv-x="492" 
d="M114 35l-39 26l115 180l-115 180l38 26l135 -206zM294 35l-38 26l114 180l-114 180l37 26l135 -206z" />
    <glyph glyph-name="onequarter" unicode="&#xbc;" horiz-adv-x="834" 
d="M209 -28l-37 20l433 746l37 -21zM175 284v369l-92 -67l-18 41l115 81h43v-424h-48zM666 0v100h-193v42l180 281h57v-282h64v-41h-64v-100h-44zM666 367h-3l-144 -226h147v226z" />
    <glyph glyph-name="onehalf" unicode="&#xbd;" horiz-adv-x="834" 
d="M208 -28l-37 20l433 746l38 -21zM172 284v369l-93 -68l-18 42l115 81h44v-424h-48zM493 0v40l157 168q58 63 58 108q0 35 -22.5 55t-58.5 20q-57 0 -105 -56l-21 38q51 60 130 60q56 0 91 -31.5t35 -81.5q0 -38 -19 -69.5t-61 -75.5l-128 -134h220l-11 -41h-265z" />
    <glyph glyph-name="threequarters" unicode="&#xbe;" horiz-adv-x="834" 
d="M206 -28l-37 20l433 746l38 -21zM170 276q-82 0 -126 46l15 40q16 -18 47.5 -31.5t61.5 -13.5q42 0 66.5 23t24.5 63q0 41 -31.5 63t-75.5 22h-22v37h22q44 0 69 23t25 59q0 34 -22 53t-56 19q-57 0 -97 -42l-18 35q47 47 118 47q55 0 88.5 -29.5t33.5 -81.5
q0 -36 -21 -62t-56 -37q42 -8 66 -37t24 -70q0 -60 -39 -93t-97 -33zM667 0v100h-194v42l180 281h58v-282h64v-41h-64v-100h-44zM520 141h147v226h-3z" />
    <glyph glyph-name="questiondown" unicode="&#xbf;" horiz-adv-x="487" 
d="M255 495q19 0 31.5 -13t12.5 -32t-12.5 -32t-31.5 -13q-17 0 -30 13t-13 32q0 18 12.5 31.5t30.5 13.5zM287 285v-32q0 -45 -17 -82t-60 -80q-34 -33 -48.5 -49.5t-28 -45t-13.5 -60.5q0 -54 39 -87t98 -33q101 0 168 79l29 -46q-79 -85 -202 -85q-83 0 -138 45.5
t-55 125.5q0 30 6.5 54.5t23 47.5t28.5 35.5t39 38.5q46 45 60 74t14 79v21h57z" />
    <glyph glyph-name="Agrave" unicode="&#xc0;" horiz-adv-x="686" 
d="M11 0l304 708h63l297 -708h-67l-108 262h-315l-108 -262h-66zM205 313h276l-136 334zM327 764l-122 144h68l102 -144h-48z" />
    <glyph glyph-name="Aacute" unicode="&#xc1;" horiz-adv-x="686" 
d="M11 0l304 708h63l297 -708h-67l-108 262h-315l-108 -262h-66zM205 313h276l-136 334zM318 764l103 144h67l-122 -144h-48z" />
    <glyph glyph-name="Acircumflex" unicode="&#xc2;" horiz-adv-x="686" 
d="M11 0l304 708h63l297 -708h-67l-108 262h-315l-108 -262h-66zM205 313h276l-136 334zM207 764l108 144h62l108 -144h-52l-87 117l-87 -117h-52z" />
    <glyph glyph-name="Atilde" unicode="&#xc3;" horiz-adv-x="686" 
d="M11 0l304 708h63l297 -708h-67l-108 262h-315l-108 -262h-66zM205 313h276l-136 334zM412 786q-27 0 -69 24q-38 23 -62 23q-33 0 -43 -49h-32q5 41 24 65t51 24q28 0 69 -23q40 -23 62 -23q34 0 42 47h33q-12 -88 -75 -88z" />
    <glyph glyph-name="Adieresis" unicode="&#xc4;" horiz-adv-x="686" 
d="M11 0l304 708h63l297 -708h-67l-108 262h-315l-108 -262h-66zM205 313h276l-136 334zM259 813q-17 0 -29 12t-12 29q0 16 12 28.5t29 12.5t29 -12t12 -29q0 -18 -12 -29.5t-29 -11.5zM434 813q-17 0 -29 12t-12 29t12 29t29 12t29 -12t12 -29q0 -18 -12 -29.5t-29 -11.5z
" />
    <glyph glyph-name="Aring" unicode="&#xc5;" horiz-adv-x="686" 
d="M11 0l304 708h63l297 -708h-67l-108 262h-315l-108 -262h-66zM205 313h276l-136 334zM346 754q-40 0 -69 28t-29 69t29 69t69 28q41 0 69.5 -28t28.5 -69t-28.5 -69t-69.5 -28zM346 781q29 0 49.5 20.5t20.5 49.5t-20.5 49.5t-49.5 20.5t-49.5 -20.5t-20.5 -49.5
t20.5 -49.5t49.5 -20.5z" />
    <glyph glyph-name="AE" unicode="&#xc6;" horiz-adv-x="955" 
d="M13 0l452 708h420l-12 -53h-312v-263h291l-11 -51h-280v-287h340l-12 -54h-387v259h-252l-166 -259h-71zM278 310h224v345h-5z" />
    <glyph glyph-name="Ccedilla" unicode="&#xc7;" horiz-adv-x="718" 
d="M429 -19h-1l-40 -60q21 6 42 6q36 0 62.5 -17t26.5 -54q0 -46 -36.5 -65.5t-83.5 -19.5q-53 0 -96 21l11 29q35 -17 83 -17q30 0 53 12t23 40q0 44 -63 44q-33 0 -57 -12l-16 14l55 81q-146 13 -238 116t-92 255q0 163 104 268t264 105q71 0 138.5 -24t107.5 -60l-18 -60
q-37 38 -98.5 63.5t-128.5 25.5q-135 0 -219.5 -91.5t-84.5 -226.5t84 -226.5t221 -91.5q136 0 233 95l14 -55q-37 -39 -106 -67t-144 -28z" />
    <glyph glyph-name="Egrave" unicode="&#xc8;" horiz-adv-x="545" 
d="M97 0v708h379l-12 -53h-308v-263h296l-12 -51h-284v-287h335l-12 -54h-382zM282 766l-122 144h68l102 -144h-48z" />
    <glyph glyph-name="Eacute" unicode="&#xc9;" horiz-adv-x="545" 
d="M97 0v708h379l-12 -53h-308v-263h296l-12 -51h-284v-287h335l-12 -54h-382zM238 762l103 144h67l-122 -144h-48z" />
    <glyph glyph-name="Ecircumflex" unicode="&#xca;" horiz-adv-x="545" 
d="M97 0v708h379l-12 -53h-308v-263h296l-12 -51h-284v-287h335l-12 -54h-382zM153 762l108 144h62l108 -144h-52l-87 117l-87 -117h-52z" />
    <glyph glyph-name="Edieresis" unicode="&#xcb;" horiz-adv-x="545" 
d="M97 0v708h379l-12 -53h-308v-263h296l-12 -51h-284v-287h335l-12 -54h-382zM194 813q-17 0 -29 12t-12 29q0 16 12.5 28.5t28.5 12.5q17 0 29 -12t12 -29q0 -18 -12 -29.5t-29 -11.5zM369 813q-17 0 -29 12t-12 29t12 29t29 12t29 -12t12 -29q0 -18 -12 -29.5t-29 -11.5z
" />
    <glyph glyph-name="Igrave" unicode="&#xcc;" horiz-adv-x="255" 
d="M97 0v708h61v-708h-61zM110 764l-122 144h68l102 -144h-48z" />
    <glyph glyph-name="Iacute" unicode="&#xcd;" horiz-adv-x="255" 
d="M97 0v708h61v-708h-61zM96 764l103 144h67l-122 -144h-48z" />
    <glyph glyph-name="Icircumflex" unicode="&#xce;" horiz-adv-x="255" 
d="M97 0v708h61v-708h-61zM-13 764l108 144h62l108 -144h-52l-87 117l-87 -117h-52z" />
    <glyph glyph-name="Idieresis" unicode="&#xcf;" horiz-adv-x="255" 
d="M97 0v708h61v-708h-61zM40 813q-17 0 -29 12t-12 29q0 16 12.5 28.5t28.5 12.5q17 0 29 -12t12 -29q0 -18 -12 -29.5t-29 -11.5zM215 813q-17 0 -29 12t-12 29t12 29t29 12t29 -12t12 -29q0 -18 -12 -29.5t-29 -11.5z" />
    <glyph glyph-name="Eth" unicode="&#xd0;" horiz-adv-x="767" 
d="M95 0v347h-75v43h75v318h222q79 0 147.5 -21.5t122 -63.5t84.5 -111t31 -158q0 -88 -31.5 -157t-85.5 -111t-122 -64t-146 -22h-222zM156 54h147q153 0 244.5 78t91.5 222t-90.5 222t-242.5 78h-150v-264h250v-43h-250v-293z" />
    <glyph glyph-name="Ntilde" unicode="&#xd1;" horiz-adv-x="776" 
d="M97 0v708h75l445 -622h2v622h60v-708h-75l-445 624h-2v-624h-60zM457 786q-27 0 -69 24q-38 23 -62 23q-33 0 -43 -49h-32q5 41 24 65t51 24q28 0 69 -23q40 -23 62 -23q34 0 42 47h33q-12 -88 -75 -88z" />
    <glyph glyph-name="Ograve" unicode="&#xd2;" horiz-adv-x="863" 
d="M432 -19q-160 0 -265 105.5t-105 268.5t105 267.5t265 104.5t264 -104.5t104 -267.5t-104.5 -268.5t-263.5 -105.5zM432 36q135 0 219.5 92t84.5 227t-85 226.5t-219 91.5q-135 0 -220.5 -91.5t-85.5 -226.5t85 -227t221 -92zM440 764l-122 144h68l102 -144h-48z" />
    <glyph glyph-name="Oacute" unicode="&#xd3;" horiz-adv-x="863" 
d="M432 -19q-160 0 -265 105.5t-105 268.5t105 267.5t265 104.5t264 -104.5t104 -267.5t-104.5 -268.5t-263.5 -105.5zM432 36q135 0 219.5 92t84.5 227t-85 226.5t-219 91.5q-135 0 -220.5 -91.5t-85.5 -226.5t85 -227t221 -92zM386 764l103 144h67l-122 -144h-48z" />
    <glyph glyph-name="Ocircumflex" unicode="&#xd4;" horiz-adv-x="863" 
d="M432 -19q-160 0 -265 105.5t-105 268.5t105 267.5t265 104.5t264 -104.5t104 -267.5t-104.5 -268.5t-263.5 -105.5zM432 36q135 0 219.5 92t84.5 227t-85 226.5t-219 91.5q-135 0 -220.5 -91.5t-85.5 -226.5t85 -227t221 -92zM293 764l108 144h62l108 -144h-52l-87 117
l-87 -117h-52z" />
    <glyph glyph-name="Otilde" unicode="&#xd5;" horiz-adv-x="863" 
d="M432 -19q-160 0 -265 105.5t-105 268.5t105 267.5t265 104.5t264 -104.5t104 -267.5t-104.5 -268.5t-263.5 -105.5zM432 36q135 0 219.5 92t84.5 227t-85 226.5t-219 91.5q-135 0 -220.5 -91.5t-85.5 -226.5t85 -227t221 -92zM499 786q-27 0 -69 24q-38 23 -62 23
q-33 0 -43 -49h-32q5 41 24 65t51 24q28 0 69 -23q40 -23 62 -23q34 0 42 47h33q-12 -88 -75 -88z" />
    <glyph glyph-name="Odieresis" unicode="&#xd6;" horiz-adv-x="863" 
d="M432 -19q-160 0 -265 105.5t-105 268.5t105 267.5t265 104.5t264 -104.5t104 -267.5t-104.5 -268.5t-263.5 -105.5zM432 36q135 0 219.5 92t84.5 227t-85 226.5t-219 91.5q-135 0 -220.5 -91.5t-85.5 -226.5t85 -227t221 -92zM345 813q-17 0 -29 12t-12 29q0 16 12 28.5
t29 12.5t29 -12t12 -29q0 -18 -12 -29.5t-29 -11.5zM520 813q-17 0 -29 12t-12 29t12 29t29 12t29 -12t12 -29q0 -18 -12 -29.5t-29 -11.5z" />
    <glyph glyph-name="multiply" unicode="&#xd7;" horiz-adv-x="666" 
d="M160 98l-35 34l175 173l-175 174l34 34l175 -173l173 173l34 -33l-173 -174l174 -174l-35 -34l-173 172z" />
    <glyph glyph-name="Oslash" unicode="&#xd8;" horiz-adv-x="863" 
d="M424 -19q-141 0 -239 82l-73 -81l-29 26l73 82q-101 101 -101 264q0 164 104.5 268.5t264.5 104.5q131 0 231 -76l73 83l29 -27l-72 -82q108 -103 108 -271q0 -163 -105 -268t-264 -105zM197 135l419 474q-80 65 -192 65q-136 0 -221.5 -92.5t-85.5 -227.5
q0 -131 80 -219zM424 34q136 0 221 92.5t85 227.5q0 138 -86 226l-419 -474q82 -72 199 -72z" />
    <glyph glyph-name="Ugrave" unicode="&#xd9;" horiz-adv-x="727" 
d="M364 -19q-141 0 -208 80.5t-67 205.5v441h61v-434q0 -35 5 -66t19.5 -63.5t37.5 -56t62 -38.5t90 -15q62 0 106 21.5t66.5 58t32 75.5t9.5 84v434h60v-441q0 -59 -15 -109t-46.5 -90.5t-86 -63.5t-126.5 -23zM368 764l-122 144h68l102 -144h-48z" />
    <glyph glyph-name="Uacute" unicode="&#xda;" horiz-adv-x="727" 
d="M364 -19q-141 0 -208 80.5t-67 205.5v441h61v-434q0 -35 5 -66t19.5 -63.5t37.5 -56t62 -38.5t90 -15q62 0 106 21.5t66.5 58t32 75.5t9.5 84v434h60v-441q0 -59 -15 -109t-46.5 -90.5t-86 -63.5t-126.5 -23zM310 764l103 144h67l-122 -144h-48z" />
    <glyph glyph-name="Ucircumflex" unicode="&#xdb;" horiz-adv-x="727" 
d="M364 -19q-141 0 -208 80.5t-67 205.5v441h61v-434q0 -35 5 -66t19.5 -63.5t37.5 -56t62 -38.5t90 -15q62 0 106 21.5t66.5 58t32 75.5t9.5 84v434h60v-441q0 -59 -15 -109t-46.5 -90.5t-86 -63.5t-126.5 -23zM225 764l108 144h62l108 -144h-52l-87 117l-87 -117h-52z" />
    <glyph glyph-name="Udieresis" unicode="&#xdc;" horiz-adv-x="727" 
d="M364 -19q-141 0 -208 80.5t-67 205.5v441h61v-434q0 -35 5 -66t19.5 -63.5t37.5 -56t62 -38.5t90 -15q62 0 106 21.5t66.5 58t32 75.5t9.5 84v434h60v-441q0 -59 -15 -109t-46.5 -90.5t-86 -63.5t-126.5 -23zM277 813q-17 0 -29 12t-12 29q0 16 12 28.5t29 12.5t29 -12
t12 -29q0 -18 -12 -29.5t-29 -11.5zM452 813q-17 0 -29 12t-12 29t12 29t29 12t29 -12t12 -29q0 -18 -12 -29.5t-29 -11.5z" />
    <glyph glyph-name="Yacute" unicode="&#xdd;" horiz-adv-x="577" 
d="M258 0v307l-253 401h74l211 -348l211 348h71l-253 -401v-307h-61zM262 764l103 144h67l-122 -144h-48z" />
    <glyph glyph-name="Thorn" unicode="&#xde;" horiz-adv-x="586" 
d="M97 0v708h61v-151h145q65 0 115.5 -17t84.5 -60t34 -109q0 -94 -64 -143.5t-164 -49.5h-151v-178h-61zM158 229h147q74 0 122 35t48 106q0 72 -49 104t-124 32h-144v-277z" />
    <glyph glyph-name="germandbls" unicode="&#xdf;" horiz-adv-x="604" 
d="M317 -11q-26 0 -58 5v51q29 -6 51 -6q82 0 130.5 47.5t48.5 130.5q0 89 -53.5 135.5t-138.5 46.5h-14v50h15q62 0 103.5 35.5t41.5 101.5q0 61 -38.5 96.5t-99.5 35.5q-83 0 -119 -54t-36 -133v-531h-58v533q0 103 53.5 169t160.5 66q85 0 140.5 -48.5t55.5 -130.5
q0 -64 -34.5 -105t-91.5 -56v-2q78 -11 126 -65t48 -146q0 -103 -63.5 -164.5t-169.5 -61.5z" />
    <glyph glyph-name="agrave" unicode="&#xe0;" horiz-adv-x="524" 
d="M207 -13q-61 0 -105 35t-44 104q0 155 268 155h57v27q0 63 -35.5 95.5t-97.5 32.5q-38 0 -79.5 -17t-69.5 -41l-17 46q70 59 174 59q85 0 132.5 -45t47.5 -134v-202q0 -65 8 -102h-54q-7 40 -7 91h-3q-21 -51 -69.5 -77.5t-105.5 -26.5zM219 31q78 0 121 50.5t43 113.5
v47h-49q-220 0 -220 -114q0 -50 30.5 -73.5t74.5 -23.5zM272 565l-122 144h68l102 -144h-48z" />
    <glyph glyph-name="aacute" unicode="&#xe1;" horiz-adv-x="524" 
d="M207 -13q-61 0 -105 35t-44 104q0 155 268 155h57v27q0 63 -35.5 95.5t-97.5 32.5q-38 0 -79.5 -17t-69.5 -41l-17 46q70 59 174 59q85 0 132.5 -45t47.5 -134v-202q0 -65 8 -102h-54q-7 40 -7 91h-3q-21 -51 -69.5 -77.5t-105.5 -26.5zM219 31q78 0 121 50.5t43 113.5
v47h-49q-220 0 -220 -114q0 -50 30.5 -73.5t74.5 -23.5zM220 565l102 144h68l-122 -144h-48z" />
    <glyph glyph-name="acircumflex" unicode="&#xe2;" horiz-adv-x="524" 
d="M207 -13q-61 0 -105 35t-44 104q0 155 268 155h57v27q0 63 -35.5 95.5t-97.5 32.5q-38 0 -79.5 -17t-69.5 -41l-17 46q70 59 174 59q85 0 132.5 -45t47.5 -134v-202q0 -65 8 -102h-54q-7 40 -7 91h-3q-21 -51 -69.5 -77.5t-105.5 -26.5zM219 31q78 0 121 50.5t43 113.5
v47h-49q-220 0 -220 -114q0 -50 30.5 -73.5t74.5 -23.5zM121 565l108 144h62l108 -144h-52l-87 118l-87 -118h-52z" />
    <glyph glyph-name="atilde" unicode="&#xe3;" horiz-adv-x="527" 
d="M207 -13q-61 0 -105 35t-44 104q0 155 268 155h57v27q0 63 -35.5 95.5t-97.5 32.5q-38 0 -79.5 -17t-69.5 -41l-17 46q70 59 174 59q85 0 132.5 -45t47.5 -134v-202q0 -65 8 -102h-54q-7 40 -7 91h-3q-21 -51 -69.5 -77.5t-105.5 -26.5zM219 31q78 0 121 50.5t43 113.5
v47h-49q-220 0 -220 -114q0 -50 30.5 -73.5t74.5 -23.5zM121 585q5 41 24 65.5t51 24.5q28 0 69 -24q42 -23 62 -23q34 0 42 48h33q-12 -88 -75 -88q-29 0 -69 23q-38 23 -62 23q-33 0 -43 -49h-32z" />
    <glyph glyph-name="adieresis" unicode="&#xe4;" horiz-adv-x="524" 
d="M207 -13q-61 0 -105 35t-44 104q0 155 268 155h57v27q0 63 -35.5 95.5t-97.5 32.5q-38 0 -79.5 -17t-69.5 -41l-17 46q70 59 174 59q85 0 132.5 -45t47.5 -134v-202q0 -65 8 -102h-54q-7 40 -7 91h-3q-21 -51 -69.5 -77.5t-105.5 -26.5zM219 31q78 0 121 50.5t43 113.5
v47h-49q-220 0 -220 -114q0 -50 30.5 -73.5t74.5 -23.5zM174 614q-17 0 -29 12t-12 30q0 16 12.5 28.5t28.5 12.5q17 0 29 -12t12 -29q0 -18 -12 -30t-29 -12zM349 614q-17 0 -29 12t-12 30q0 17 12 29t29 12t29 -12.5t12 -28.5q0 -18 -12 -30t-29 -12z" />
    <glyph glyph-name="aring" unicode="&#xe5;" horiz-adv-x="524" 
d="M207 -13q-61 0 -105 35t-44 104q0 155 268 155h57v27q0 63 -35.5 95.5t-97.5 32.5q-38 0 -79.5 -17t-69.5 -41l-17 46q70 59 174 59q85 0 132.5 -45t47.5 -134v-202q0 -65 8 -102h-54q-7 40 -7 91h-3q-21 -51 -69.5 -77.5t-105.5 -26.5zM219 31q78 0 121 50.5t43 113.5
v47h-49q-220 0 -220 -114q0 -50 30.5 -73.5t74.5 -23.5zM261 555q-40 0 -69 28t-29 69t29 69.5t69 28.5q41 0 69.5 -28t28.5 -70q0 -41 -28.5 -69t-69.5 -28zM261 583q29 0 49.5 20t20.5 49t-20.5 49.5t-49.5 20.5t-49.5 -20.5t-20.5 -49.5t20.5 -49t49.5 -20z" />
    <glyph glyph-name="ae" unicode="&#xe6;" horiz-adv-x="872" 
d="M224 -13q-68 0 -117 33t-49 101q0 147 276 147h52v32q0 67 -33.5 101.5t-95.5 34.5q-82 0 -151 -60l-19 46q67 61 175 61q66 0 107.5 -32t53.5 -83q26 53 73.5 84t107.5 31q95 0 153.5 -64.5t58.5 -168.5q0 -4 -0.5 -12.5t-0.5 -12.5h-375q1 -77 46.5 -133.5t127.5 -56.5
q90 0 165 56l9 -49q-75 -56 -179 -56q-67 0 -118 35.5t-75 97.5q-16 -60 -65.5 -96t-126.5 -36zM440 268h319q-2 75 -44 122t-111 47q-75 0 -118.5 -55t-45.5 -114zM233 31q78 0 116 45t38 113v36h-43q-49 0 -85 -3.5t-71.5 -13.5t-54 -31.5t-18.5 -54.5q0 -48 35 -69.5
t83 -21.5z" />
    <glyph glyph-name="ccedilla" unicode="&#xe7;" horiz-adv-x="489" 
d="M300 -14l-45 -65q21 6 43 6q36 0 62 -17t26 -54q0 -46 -36.5 -65.5t-83.5 -19.5q-51 0 -96 21l12 29q35 -17 82 -17q30 0 53 12t23 40q0 44 -62 44q-32 0 -58 -12l-16 14l59 87q-92 12 -149.5 79t-57.5 166q0 109 69.5 179t176.5 70q45 0 89 -15.5t70 -40.5l-24 -45
q-51 51 -134 51t-134.5 -57.5t-51.5 -141.5q0 -83 51.5 -140t136.5 -57q84 0 147 55l9 -49q-62 -57 -161 -57z" />
    <glyph glyph-name="egrave" unicode="&#xe8;" horiz-adv-x="567" 
d="M296 -14q-105 0 -172.5 70t-67.5 181q0 107 66.5 176.5t165.5 69.5q105 0 164 -66.5t59 -165.5q0 -17 -1 -25h-397q2 -81 54.5 -136.5t133.5 -55.5q99 0 172 61l10 -50q-78 -59 -187 -59zM114 269h341q-2 76 -47 122t-120 46q-78 0 -124.5 -54t-49.5 -114zM288 565
l-122 144h68l102 -144h-48z" />
    <glyph glyph-name="eacute" unicode="&#xe9;" horiz-adv-x="567" 
d="M296 -14q-105 0 -172.5 70t-67.5 181q0 107 66.5 176.5t165.5 69.5q105 0 164 -66.5t59 -165.5q0 -17 -1 -25h-397q2 -81 54.5 -136.5t133.5 -55.5q99 0 172 61l10 -50q-78 -59 -187 -59zM114 269h341q-2 76 -47 122t-120 46q-78 0 -124.5 -54t-49.5 -114zM247 565
l102 144h68l-122 -144h-48z" />
    <glyph glyph-name="ecircumflex" unicode="&#xea;" horiz-adv-x="567" 
d="M296 -14q-105 0 -172.5 70t-67.5 181q0 107 66.5 176.5t165.5 69.5q105 0 164 -66.5t59 -165.5q0 -17 -1 -25h-397q2 -81 54.5 -136.5t133.5 -55.5q99 0 172 61l10 -50q-78 -59 -187 -59zM114 269h341q-2 76 -47 122t-120 46q-78 0 -124.5 -54t-49.5 -114zM155 565
l108 144h62l108 -144h-52l-87 118l-87 -118h-52z" />
    <glyph glyph-name="edieresis" unicode="&#xeb;" horiz-adv-x="567" 
d="M296 -14q-105 0 -172.5 70t-67.5 181q0 107 66.5 176.5t165.5 69.5q105 0 164 -66.5t59 -165.5q0 -17 -1 -25h-397q2 -81 54.5 -136.5t133.5 -55.5q99 0 172 61l10 -50q-78 -59 -187 -59zM114 269h341q-2 76 -47 122t-120 46q-78 0 -124.5 -54t-49.5 -114zM205 614
q-17 0 -29 12t-12 30q0 16 12 28.5t29 12.5t29 -12t12 -29q0 -18 -12 -30t-29 -12zM380 614q-17 0 -29 12t-12 30q0 17 12 29t29 12q16 0 28.5 -12.5t12.5 -28.5q0 -18 -12 -30t-29 -12z" />
    <glyph glyph-name="igrave" unicode="&#xec;" horiz-adv-x="244" 
d="M93 0v468h59v-468h-59zM103 565l-122 144h68l102 -144h-48z" />
    <glyph glyph-name="iacute" unicode="&#xed;" horiz-adv-x="244" 
d="M93 0v468h59v-468h-59zM93 565l102 144h68l-122 -144h-48z" />
    <glyph glyph-name="icircumflex" unicode="&#xee;" horiz-adv-x="244" 
d="M93 0v468h59v-468h-59zM-15 565l108 144h62l108 -144h-52l-87 118l-87 -118h-52z" />
    <glyph glyph-name="idieresis" unicode="&#xef;" horiz-adv-x="244" 
d="M93 0v468h59v-468h-59zM36 614q-17 0 -29 12t-12 30q0 16 12.5 28.5t28.5 12.5q17 0 29 -12t12 -29q0 -18 -12 -30t-29 -12zM211 614q-17 0 -29 12t-12 30q0 17 12 29t29 12t29 -12.5t12 -28.5q0 -18 -12 -30t-29 -12z" />
    <glyph glyph-name="eth" unicode="&#xf0;" horiz-adv-x="611" 
d="M303 -14q-108 0 -178 70t-70 179t69.5 178t176.5 69q92 0 155 -63l4 2q-27 60 -70 120.5t-84 98.5l-112 -58l-29 29l109 58q-42 41 -94 76l47 28q38 -25 97 -80l106 56l34 -29l-107 -56q75 -76 135.5 -187.5t60.5 -228.5q0 -113 -67.5 -187.5t-182.5 -74.5zM303 36
q86 0 138.5 57.5t52.5 141.5t-52.5 140.5t-138.5 56.5q-87 0 -138.5 -56.5t-51.5 -140.5t52 -141.5t138 -57.5z" />
    <glyph glyph-name="ntilde" unicode="&#xf1;" horiz-adv-x="582" 
d="M94 0v359q0 73 -4 109h55q5 -40 5 -101h2q20 52 66.5 83.5t102.5 31.5q89 0 131.5 -56t42.5 -140v-286h-59v271q0 69 -29 115.5t-98 46.5q-67 0 -111.5 -52.5t-44.5 -141.5v-239h-59zM154 585q5 41 24 65.5t51 24.5q29 0 69 -24q42 -23 62 -23q34 0 42 48h33
q-12 -88 -75 -88q-29 0 -69 23q-38 23 -62 23q-33 0 -43 -49h-32z" />
    <glyph glyph-name="ograve" unicode="&#xf2;" horiz-adv-x="611" 
d="M305 -14q-108 0 -178.5 70.5t-70.5 178.5q0 109 70.5 178.5t178.5 69.5q109 0 179.5 -69.5t70.5 -178.5q0 -108 -71 -178.5t-179 -70.5zM305 36q87 0 139 57.5t52 141.5t-52.5 141t-138.5 57t-138 -57t-52 -141t52 -141.5t138 -57.5zM304 565l-122 144h68l102 -144h-48z
" />
    <glyph glyph-name="oacute" unicode="&#xf3;" horiz-adv-x="611" 
d="M305 -14q-108 0 -178.5 70.5t-70.5 178.5q0 109 70.5 178.5t178.5 69.5q109 0 179.5 -69.5t70.5 -178.5q0 -108 -71 -178.5t-179 -70.5zM305 36q87 0 139 57.5t52 141.5t-52.5 141t-138.5 57t-138 -57t-52 -141t52 -141.5t138 -57.5zM260 565l102 144h68l-122 -144h-48z
" />
    <glyph glyph-name="ocircumflex" unicode="&#xf4;" horiz-adv-x="611" 
d="M305 -14q-108 0 -178.5 70.5t-70.5 178.5q0 109 70.5 178.5t178.5 69.5q109 0 179.5 -69.5t70.5 -178.5q0 -108 -71 -178.5t-179 -70.5zM305 36q87 0 139 57.5t52 141.5t-52.5 141t-138.5 57t-138 -57t-52 -141t52 -141.5t138 -57.5zM167 565l108 144h62l108 -144h-52
l-87 118l-87 -118h-52z" />
    <glyph glyph-name="otilde" unicode="&#xf5;" horiz-adv-x="611" 
d="M305 -14q-108 0 -178.5 70.5t-70.5 178.5q0 109 70.5 178.5t178.5 69.5q109 0 179.5 -69.5t70.5 -178.5q0 -108 -71 -178.5t-179 -70.5zM305 36q87 0 139 57.5t52 141.5t-52.5 141t-138.5 57t-138 -57t-52 -141t52 -141.5t138 -57.5zM166 585q5 41 24 65.5t51 24.5
q29 0 69 -24q42 -23 62 -23q34 0 42 48h33q-12 -88 -75 -88q-29 0 -69 23q-38 23 -62 23q-33 0 -43 -49h-32z" />
    <glyph glyph-name="odieresis" unicode="&#xf6;" horiz-adv-x="611" 
d="M305 -14q-108 0 -178.5 70.5t-70.5 178.5q0 109 70.5 178.5t178.5 69.5q109 0 179.5 -69.5t70.5 -178.5q0 -108 -71 -178.5t-179 -70.5zM305 36q87 0 139 57.5t52 141.5t-52.5 141t-138.5 57t-138 -57t-52 -141t52 -141.5t138 -57.5zM220 614q-17 0 -29 12t-12 30
q0 16 12.5 28.5t28.5 12.5q17 0 29 -12t12 -29q0 -18 -12 -30t-29 -12zM395 614q-17 0 -29 12t-12 30q0 17 12 29t29 12t29 -12.5t12 -28.5q0 -18 -12 -30t-29 -12z" />
    <glyph glyph-name="divide" unicode="&#xf7;" horiz-adv-x="666" 
d="M333 422q-20 0 -34.5 14.5t-14.5 35.5q0 20 14.5 35t34.5 15t35 -15t15 -35q0 -21 -15 -35.5t-35 -14.5zM87 279v48h492v-48h-492zM333 84q-20 0 -34.5 15t-14.5 35q0 21 14 35.5t35 14.5q20 0 35 -15t15 -35t-15 -35t-35 -15z" />
    <glyph glyph-name="oslash" unicode="&#xf8;" horiz-adv-x="611" 
d="M72 -22l-27 26l68 68q-57 68 -57 163q0 108 70.5 178t178.5 70q92 0 162 -55l63 63l27 -26l-64 -63q62 -65 62 -167q0 -109 -70.5 -179t-179.5 -70q-101 0 -165 61zM152 111l278 280q-51 44 -125 44q-87 0 -139 -57t-52 -142q0 -75 38 -125zM305 35q87 0 139.5 57.5
t52.5 142.5q0 78 -43 129l-278 -280q47 -49 129 -49z" />
    <glyph glyph-name="ugrave" unicode="&#xf9;" horiz-adv-x="582" 
d="M257 -13q-88 0 -129.5 56t-41.5 140v285h59v-270q0 -44 9.5 -78t39.5 -59.5t78 -25.5q67 0 111.5 53.5t44.5 146.5v233h58v-359q0 -57 9 -109l-58 -1q-3 24 -9 102q-20 -52 -67.5 -83t-103.5 -31zM274 565l-122 144h68l102 -144h-48z" />
    <glyph glyph-name="uacute" unicode="&#xfa;" horiz-adv-x="582" 
d="M257 -13q-88 0 -129.5 56t-41.5 140v285h59v-270q0 -44 9.5 -78t39.5 -59.5t78 -25.5q67 0 111.5 53.5t44.5 146.5v233h58v-359q0 -57 9 -109l-58 -1q-3 24 -9 102q-20 -52 -67.5 -83t-103.5 -31zM233 565l102 144h68l-122 -144h-48z" />
    <glyph glyph-name="ucircumflex" unicode="&#xfb;" horiz-adv-x="582" 
d="M257 -13q-88 0 -129.5 56t-41.5 140v285h59v-270q0 -44 9.5 -78t39.5 -59.5t78 -25.5q67 0 111.5 53.5t44.5 146.5v233h58v-359q0 -57 9 -109l-58 -1q-3 24 -9 102q-20 -52 -67.5 -83t-103.5 -31zM145 565l108 144h62l108 -144h-52l-87 118l-87 -118h-52z" />
    <glyph glyph-name="udieresis" unicode="&#xfc;" horiz-adv-x="582" 
d="M257 -13q-88 0 -129.5 56t-41.5 140v285h59v-270q0 -44 9.5 -78t39.5 -59.5t78 -25.5q67 0 111.5 53.5t44.5 146.5v233h58v-359q0 -57 9 -109l-58 -1q-3 24 -9 102q-20 -52 -67.5 -83t-103.5 -31zM199 614q-17 0 -29 12t-12 30q0 16 12 28.5t29 12.5t29 -12t12 -29
q0 -18 -12 -30t-29 -12zM374 614q-17 0 -29 12t-12 30q0 17 12 29t29 12q16 0 28.5 -12.5t12.5 -28.5q0 -18 -12 -30t-29 -12z" />
    <glyph glyph-name="yacute" unicode="&#xfd;" horiz-adv-x="468" 
d="M47 -188q53 2 83.5 21t48.5 65l36 98l-197 472h65l162 -406l142 406h63l-218 -586q-23 -63 -63.5 -91.5t-105.5 -30.5zM201 565l102 144h68l-122 -144h-48z" />
    <glyph glyph-name="thorn" unicode="&#xfe;" horiz-adv-x="633" 
d="M93 -240v996h58v-389h3q27 55 77.5 85t111.5 30q103 0 168.5 -70.5t65.5 -177.5q0 -106 -66 -176.5t-169 -70.5q-60 0 -112 30t-77 84h-2v-341h-58zM334 36q83 0 134 57.5t51 140.5t-51 141t-134 58q-81 0 -133.5 -58t-52.5 -141t52.5 -140.5t133.5 -57.5z" />
    <glyph glyph-name="ydieresis" unicode="&#xff;" horiz-adv-x="468" 
d="M47 -188q53 2 83.5 21t48.5 65l36 98l-197 472h65l162 -406l142 406h63l-218 -586q-23 -63 -63.5 -91.5t-105.5 -30.5zM152 614q-17 0 -29 12t-12 30q0 16 12.5 28.5t28.5 12.5q17 0 29 -12t12 -29q0 -18 -12 -30t-29 -12zM327 614q-17 0 -29 12t-12 30q0 17 12 29t29 12
t29 -12.5t12 -28.5q0 -18 -12 -30t-29 -12z" />
    <glyph glyph-name="Amacron" unicode="&#x100;" horiz-adv-x="686" 
d="M11 0l304 708h63l297 -708h-67l-108 262h-315l-108 -262h-66zM205 313h276l-136 334zM216 811v40h260v-40h-260z" />
    <glyph glyph-name="amacron" unicode="&#x101;" horiz-adv-x="524" 
d="M207 -13q-61 0 -105 35t-44 104q0 155 268 155h57v27q0 63 -35.5 95.5t-97.5 32.5q-38 0 -79.5 -17t-69.5 -41l-17 46q70 59 174 59q85 0 132.5 -45t47.5 -134v-202q0 -65 8 -102h-54q-7 40 -7 91h-3q-21 -51 -69.5 -77.5t-105.5 -26.5zM219 31q78 0 121 50.5t43 113.5
v47h-49q-220 0 -220 -114q0 -50 30.5 -73.5t74.5 -23.5zM138 613v39h260v-39h-260z" />
    <glyph glyph-name="Abreve" unicode="&#x102;" horiz-adv-x="686" 
d="M11 0l304 708h63l297 -708h-67l-108 262h-315l-108 -262h-66zM205 313h276l-136 334zM344 771q-57 0 -94.5 34t-43.5 97h36q8 -44 35.5 -66.5t66.5 -22.5q86 0 104 89h37q-8 -63 -46 -97t-95 -34z" />
    <glyph glyph-name="abreve" unicode="&#x103;" horiz-adv-x="524" 
d="M207 -13q-61 0 -105 35t-44 104q0 155 268 155h57v27q0 63 -35.5 95.5t-97.5 32.5q-38 0 -79.5 -17t-69.5 -41l-17 46q70 59 174 59q85 0 132.5 -45t47.5 -134v-202q0 -65 8 -102h-54q-7 40 -7 91h-3q-21 -51 -69.5 -77.5t-105.5 -26.5zM219 31q78 0 121 50.5t43 113.5
v47h-49q-220 0 -220 -114q0 -50 30.5 -73.5t74.5 -23.5zM268 573q-57 0 -94.5 34t-43.5 97h36q8 -44 35.5 -67t66.5 -23q86 0 104 90h37q-8 -63 -46 -97t-95 -34z" />
    <glyph glyph-name="Aogonek" unicode="&#x104;" horiz-adv-x="686" 
d="M679 -161l17 -30q-37 -34 -90 -34q-38 0 -64.5 22.5t-26.5 60.5q0 36 25 69.5t68 72.5l-108 262h-315l-108 -262h-66l304 708h63l297 -708h-25q-47 -45 -67.5 -74t-20.5 -58q0 -25 15.5 -40t40.5 -15q37 0 61 26zM205 313h276l-136 334z" />
    <glyph glyph-name="aogonek" unicode="&#x105;" horiz-adv-x="524" 
d="M465 -161l16 -30q-37 -34 -89 -34q-38 0 -64.5 22.5t-26.5 60.5q0 61 93 142h-2q-7 40 -7 91h-3q-21 -51 -69.5 -77.5t-105.5 -26.5q-61 0 -105 35t-44 104q0 155 268 155h57v27q0 63 -35.5 95.5t-97.5 32.5q-38 0 -79.5 -17t-69.5 -41l-17 46q70 59 174 59
q85 0 132.5 -45t47.5 -134v-202q0 -65 8 -102h-11q-47 -45 -67.5 -74t-20.5 -58q0 -25 15.5 -40t40.5 -15q36 0 62 26zM383 195v47h-49q-220 0 -220 -114q0 -50 30.5 -73.5t74.5 -23.5q78 0 121 50.5t43 113.5z" />
    <glyph glyph-name="Cacute" unicode="&#x106;" horiz-adv-x="718" 
d="M429 -19q-160 0 -263.5 105t-103.5 268t104 268t264 105q71 0 138.5 -24t107.5 -60l-18 -60q-37 38 -98.5 63.5t-128.5 25.5q-135 0 -219.5 -91.5t-84.5 -226.5t84 -226.5t221 -91.5q136 0 233 95l14 -55q-37 -39 -106 -67t-144 -28zM375 764l103 144h67l-122 -144h-48z
" />
    <glyph glyph-name="cacute" unicode="&#x107;" horiz-adv-x="489" 
d="M300 -14q-106 0 -175 69.5t-69 178.5t69.5 179t176.5 70q45 0 89 -15.5t70 -40.5l-24 -45q-51 51 -134 51t-134.5 -57.5t-51.5 -141.5q0 -83 51.5 -140t136.5 -57q84 0 147 55l9 -49q-62 -57 -161 -57zM241 565l102 144h68l-122 -144h-48z" />
    <glyph glyph-name="Ccircumflex" unicode="&#x108;" horiz-adv-x="718" 
d="M429 -19q-160 0 -263.5 105t-103.5 268t104 268t264 105q71 0 138.5 -24t107.5 -60l-18 -60q-37 38 -98.5 63.5t-128.5 25.5q-135 0 -219.5 -91.5t-84.5 -226.5t84 -226.5t221 -91.5q136 0 233 95l14 -55q-37 -39 -106 -67t-144 -28zM290 764l108 144h62l108 -144h-52
l-87 117l-87 -117h-52z" />
    <glyph glyph-name="ccircumflex" unicode="&#x109;" horiz-adv-x="489" 
d="M300 -14q-106 0 -175 69.5t-69 178.5t69.5 179t176.5 70q45 0 89 -15.5t70 -40.5l-24 -45q-51 51 -134 51t-134.5 -57.5t-51.5 -141.5q0 -83 51.5 -140t136.5 -57q84 0 147 55l9 -49q-62 -57 -161 -57zM146 565l108 144h62l108 -144h-52l-87 118l-87 -118h-52z" />
    <glyph glyph-name="Cdotaccent" unicode="&#x10a;" horiz-adv-x="718" 
d="M429 -19q-160 0 -263.5 105t-103.5 268t104 268t264 105q71 0 138.5 -24t107.5 -60l-18 -60q-37 38 -98.5 63.5t-128.5 25.5q-135 0 -219.5 -91.5t-84.5 -226.5t84 -226.5t221 -91.5q136 0 233 95l14 -55q-37 -39 -106 -67t-144 -28zM426 813q-17 0 -29 12t-12 30
q0 17 12 29t29 12t29.5 -12t12.5 -29q0 -18 -13 -30t-29 -12z" />
    <glyph glyph-name="cdotaccent" unicode="&#x10b;" horiz-adv-x="489" 
d="M300 -14q-106 0 -175 69.5t-69 178.5t69.5 179t176.5 70q45 0 89 -15.5t70 -40.5l-24 -45q-51 51 -134 51t-134.5 -57.5t-51.5 -141.5q0 -83 51.5 -140t136.5 -57q84 0 147 55l9 -49q-62 -57 -161 -57zM291 614q-17 0 -29 12t-12 30q0 17 12 29.5t29 12.5t29.5 -12.5
t12.5 -29.5q0 -18 -13 -30t-29 -12z" />
    <glyph glyph-name="Ccaron" unicode="&#x10c;" horiz-adv-x="718" 
d="M429 -19q-160 0 -263.5 105t-103.5 268t104 268t264 105q71 0 138.5 -24t107.5 -60l-18 -60q-37 38 -98.5 63.5t-128.5 25.5q-135 0 -219.5 -91.5t-84.5 -226.5t84 -226.5t221 -91.5q136 0 233 95l14 -55q-37 -39 -106 -67t-144 -28zM398 764l-108 144h52l87 -117l87 117
h52l-108 -144h-62z" />
    <glyph glyph-name="ccaron" unicode="&#x10d;" horiz-adv-x="489" 
d="M300 -14q-106 0 -175 69.5t-69 178.5t69.5 179t176.5 70q45 0 89 -15.5t70 -40.5l-24 -45q-51 51 -134 51t-134.5 -57.5t-51.5 -141.5q0 -83 51.5 -140t136.5 -57q84 0 147 55l9 -49q-62 -57 -161 -57zM259 565l-108 144h52l87 -117l87 117h52l-108 -144h-62z" />
    <glyph glyph-name="Dcaron" unicode="&#x10e;" horiz-adv-x="767" 
d="M97 0v708h220q79 0 147.5 -21t123 -62.5t86 -111t31.5 -159.5q0 -88 -31.5 -157t-85.5 -111.5t-122.5 -64t-147.5 -21.5h-221zM157 54h150q151 0 243 78t92 222q0 145 -91.5 222.5t-242.5 77.5h-151v-600zM322 764l-108 144h52l87 -117l87 117h52l-108 -144h-62z" />
    <glyph glyph-name="dcaron" unicode="&#x10f;" horiz-adv-x="683" 
d="M291 -13q-104 0 -169.5 70.5t-65.5 176.5t65.5 177t169.5 71q60 0 111 -30t79 -85h2v389l58 12v-649q0 -52 5 -119h-56q-5 57 -5 102h-2q-29 -55 -80.5 -85t-111.5 -30zM299 36q80 0 133 58t53 140q0 83 -53 141t-133 58q-84 0 -134 -58t-50 -141t50 -140.5t134 -57.5z
M596 521l57 187h57l-68 -187h-46z" />
    <glyph glyph-name="Dcroat" unicode="&#x110;" horiz-adv-x="767" 
d="M95 0v347h-75v43h75v318h222q79 0 147.5 -21.5t122 -63.5t84.5 -111t31 -158q0 -88 -31.5 -157t-85.5 -111t-122 -64t-146 -22h-222zM156 54h147q153 0 244.5 78t91.5 222t-90.5 222t-242.5 78h-150v-264h250v-43h-250v-293z" />
    <glyph glyph-name="dslash" unicode="&#x111;" horiz-adv-x="634" 
d="M291 -13q-104 0 -169.5 70.5t-65.5 176.5t65.5 177t169.5 71q60 0 111 -30t79 -85h2v203h-187v39h187v147h58v-147h62v-39h-62v-464q0 -36 4 -106h-56q-4 45 -4 102h-2q-29 -55 -80.5 -85t-111.5 -30zM299 36q81 0 134 58t53 140q0 83 -53 141t-134 58q-84 0 -134 -58
t-50 -141t50 -140.5t134 -57.5z" />
    <glyph glyph-name="Emacron" unicode="&#x112;" horiz-adv-x="545" 
d="M97 0v708h379l-12 -53h-308v-263h296l-12 -51h-284v-287h335l-12 -54h-382zM154 812v40h260v-40h-260z" />
    <glyph glyph-name="emacron" unicode="&#x113;" horiz-adv-x="567" 
d="M296 -14q-105 0 -172.5 70t-67.5 181q0 107 66.5 176.5t165.5 69.5q105 0 164 -66.5t59 -165.5q0 -17 -1 -25h-397q2 -81 54.5 -136.5t133.5 -55.5q99 0 172 61l10 -50q-78 -59 -187 -59zM114 269h341q-2 76 -47 122t-120 46q-78 0 -124.5 -54t-49.5 -114zM163 613v39
h260v-39h-260z" />
    <glyph glyph-name="Ebreve" unicode="&#x114;" horiz-adv-x="545" 
d="M97 0v708h379l-12 -53h-308v-263h296l-12 -51h-284v-287h335l-12 -54h-382zM287 759q-57 0 -94.5 34t-43.5 97h36q8 -44 35.5 -66.5t66.5 -22.5q86 0 104 89h37q-8 -63 -46 -97t-95 -34z" />
    <glyph glyph-name="ebreve" unicode="&#x115;" horiz-adv-x="567" 
d="M296 -14q-105 0 -172.5 70t-67.5 181q0 107 66.5 176.5t165.5 69.5q105 0 164 -66.5t59 -165.5q0 -17 -1 -25h-397q2 -81 54.5 -136.5t133.5 -55.5q99 0 172 61l10 -50q-78 -59 -187 -59zM114 269h341q-2 76 -47 122t-120 46q-78 0 -124.5 -54t-49.5 -114zM293 573
q-57 0 -94.5 34t-43.5 97h36q8 -44 35.5 -67t66.5 -23q86 0 104 90h37q-8 -63 -46 -97t-95 -34z" />
    <glyph glyph-name="Edotaccent" unicode="&#x116;" horiz-adv-x="545" 
d="M97 0v708h379l-12 -53h-308v-263h296l-12 -51h-284v-287h335l-12 -54h-382zM285 794q-17 0 -29 12t-12 30q0 17 12 29t29 12t29.5 -12t12.5 -29q0 -18 -13 -30t-29 -12z" />
    <glyph glyph-name="edotaccent" unicode="&#x117;" horiz-adv-x="567" 
d="M296 -14q-105 0 -172.5 70t-67.5 181q0 107 66.5 176.5t165.5 69.5q105 0 164 -66.5t59 -165.5q0 -17 -1 -25h-397q2 -81 54.5 -136.5t133.5 -55.5q99 0 172 61l10 -50q-78 -59 -187 -59zM114 269h341q-2 76 -47 122t-120 46q-78 0 -124.5 -54t-49.5 -114zM293 614
q-17 0 -29 12t-12 30q0 17 12 29.5t29 12.5t29.5 -12.5t12.5 -29.5q0 -18 -13 -30t-29 -12z" />
    <glyph glyph-name="Eogonek" unicode="&#x118;" horiz-adv-x="545" 
d="M413 0q-47 -45 -67.5 -74t-20.5 -58q0 -25 15.5 -40t40.5 -15q36 0 62 26l16 -30q-37 -34 -90 -34q-38 0 -64 22.5t-26 60.5q0 61 93 142h-275v708h379l-12 -53h-308v-263h296l-12 -51h-284v-287h335l-12 -54h-66z" />
    <glyph glyph-name="eogonek" unicode="&#x119;" horiz-adv-x="567" 
d="M511 251q0 -17 -1 -25h-397q2 -81 54.5 -136.5t133.5 -55.5q99 0 172 61l10 -50q-57 -43 -127 -54q-41 -40 -60 -67.5t-19 -55.5q0 -25 15.5 -40t40.5 -15q36 0 62 26l16 -30q-37 -34 -89 -34q-38 0 -64.5 22.5t-26.5 60.5q0 57 78 129q-2 0 -6 -0.5t-7 -0.5
q-105 0 -172.5 70t-67.5 181q0 107 66.5 176.5t165.5 69.5q105 0 164 -66.5t59 -165.5zM114 269h341q-2 76 -47 122t-120 46q-78 0 -124.5 -54t-49.5 -114z" />
    <glyph glyph-name="Ecaron" unicode="&#x11a;" horiz-adv-x="545" 
d="M97 0v708h379l-12 -53h-308v-263h296l-12 -51h-284v-287h335l-12 -54h-382zM259 763l-108 144h52l87 -117l87 117h52l-108 -144h-62z" />
    <glyph glyph-name="ecaron" unicode="&#x11b;" horiz-adv-x="567" 
d="M296 -14q-105 0 -172.5 70t-67.5 181q0 107 66.5 176.5t165.5 69.5q105 0 164 -66.5t59 -165.5q0 -17 -1 -25h-397q2 -81 54.5 -136.5t133.5 -55.5q99 0 172 61l10 -50q-78 -59 -187 -59zM114 269h341q-2 76 -47 122t-120 46q-78 0 -124.5 -54t-49.5 -114zM261 565
l-108 144h52l87 -117l87 117h52l-108 -144h-62z" />
    <glyph glyph-name="Gcircumflex" unicode="&#x11c;" horiz-adv-x="786" 
d="M437 -19q-165 0 -270 106t-105 268q0 163 105 267.5t267 104.5q71 0 138 -21t112 -54l-20 -53q-96 74 -229 74q-137 0 -223 -91.5t-86 -226.5q0 -136 85.5 -228t228.5 -92q111 0 199 43v238h-170l11 51h217v-323q-110 -63 -260 -63zM294 764l108 144h62l108 -144h-52
l-87 117l-87 -117h-52z" />
    <glyph glyph-name="gcircumflex" unicode="&#x11d;" horiz-adv-x="633" 
d="M292 -246q-115 0 -206 57l11 54q92 -61 192 -61q194 0 194 202v99h-2q-26 -53 -78 -83.5t-112 -30.5q-104 0 -169.5 69.5t-65.5 174.5t66 176t169 71q60 0 111.5 -30.5t79.5 -86.5h2q0 46 5 103h55q-3 -49 -3 -103v-358q0 -115 -60.5 -184t-188.5 -69zM299 39
q80 0 133 57t53 140q0 82 -53 139.5t-133 57.5q-83 0 -133.5 -57.5t-50.5 -140.5q0 -81 50.5 -138.5t133.5 -57.5zM170 565l108 144h62l108 -144h-52l-87 118l-87 -118h-52z" />
    <glyph glyph-name="Gbreve" unicode="&#x11e;" horiz-adv-x="786" 
d="M437 -19q-165 0 -270 106t-105 268q0 163 105 267.5t267 104.5q71 0 138 -21t112 -54l-20 -53q-96 74 -229 74q-137 0 -223 -91.5t-86 -226.5q0 -136 85.5 -228t228.5 -92q111 0 199 43v238h-170l11 51h217v-323q-110 -63 -260 -63zM433 771q-57 0 -94.5 34t-43.5 97h36
q8 -44 35.5 -66.5t66.5 -22.5q86 0 104 89h37q-8 -63 -46 -97t-95 -34z" />
    <glyph glyph-name="gbreve" unicode="&#x11f;" horiz-adv-x="633" 
d="M292 -246q-115 0 -206 57l11 54q92 -61 192 -61q194 0 194 202v99h-2q-26 -53 -78 -83.5t-112 -30.5q-104 0 -169.5 69.5t-65.5 174.5t66 176t169 71q60 0 111.5 -30.5t79.5 -86.5h2q0 46 5 103h55q-3 -49 -3 -103v-358q0 -115 -60.5 -184t-188.5 -69zM299 39
q80 0 133 57t53 140q0 82 -53 139.5t-133 57.5q-83 0 -133.5 -57.5t-50.5 -140.5q0 -81 50.5 -138.5t133.5 -57.5zM309 573q-57 0 -94.5 34t-43.5 97h36q8 -44 35.5 -67t66.5 -23q86 0 104 90h37q-8 -63 -46 -97t-95 -34z" />
    <glyph glyph-name="Gdotaccent" unicode="&#x120;" horiz-adv-x="786" 
d="M437 -19q-165 0 -270 106t-105 268q0 163 105 267.5t267 104.5q71 0 138 -21t112 -54l-20 -53q-96 74 -229 74q-137 0 -223 -91.5t-86 -226.5q0 -136 85.5 -228t228.5 -92q111 0 199 43v238h-170l11 51h217v-323q-110 -63 -260 -63zM431 813q-17 0 -29 12t-12 30
q0 17 12 29t29 12t29.5 -12t12.5 -29q0 -18 -13 -30t-29 -12z" />
    <glyph glyph-name="gdotaccent" unicode="&#x121;" horiz-adv-x="633" 
d="M292 -246q-115 0 -206 57l11 54q92 -61 192 -61q194 0 194 202v99h-2q-26 -53 -78 -83.5t-112 -30.5q-104 0 -169.5 69.5t-65.5 174.5t66 176t169 71q60 0 111.5 -30.5t79.5 -86.5h2q0 46 5 103h55q-3 -49 -3 -103v-358q0 -115 -60.5 -184t-188.5 -69zM299 39
q80 0 133 57t53 140q0 82 -53 139.5t-133 57.5q-83 0 -133.5 -57.5t-50.5 -140.5q0 -81 50.5 -138.5t133.5 -57.5zM308 614q-17 0 -29 12t-12 30q0 17 12 29.5t29 12.5t29.5 -12.5t12.5 -29.5q0 -18 -13 -30t-29 -12z" />
    <glyph glyph-name="Gcommaaccent" unicode="&#x122;" horiz-adv-x="786" 
d="M437 -19q-165 0 -270 106t-105 268q0 163 105 267.5t267 104.5q71 0 138 -21t112 -54l-20 -53q-96 74 -229 74q-137 0 -223 -91.5t-86 -226.5q0 -136 85.5 -228t228.5 -92q111 0 199 43v238h-170l11 51h217v-323q-110 -63 -260 -63zM359 -230l57 187h57l-68 -187h-46z
" />
    <glyph glyph-name="gcommaaccent" unicode="&#x123;" horiz-adv-x="633" 
d="M292 -246q-115 0 -206 57l11 54q92 -61 192 -61q194 0 194 202v99h-2q-26 -53 -78 -83.5t-112 -30.5q-104 0 -169.5 69.5t-65.5 174.5t66 176t169 71q60 0 111.5 -30.5t79.5 -86.5h2q0 46 5 103h55q-3 -49 -3 -103v-358q0 -115 -60.5 -184t-188.5 -69zM299 39
q80 0 133 57t53 140q0 82 -53 139.5t-133 57.5q-83 0 -133.5 -57.5t-50.5 -140.5q0 -81 50.5 -138.5t133.5 -57.5zM273 565l67 187h47l-57 -187h-57z" />
    <glyph glyph-name="Hcircumflex" unicode="&#x124;" horiz-adv-x="750" 
d="M97 0v708h61v-314h440v314h60v-708h-60v341h-440v-341h-61zM228 764l108 144h62l108 -144h-52l-87 117l-87 -117h-52z" />
    <glyph glyph-name="hcircumflex" unicode="&#x125;" horiz-adv-x="581" 
d="M93 0v754l59 9v-394h2q19 52 65.5 82.5t102.5 30.5q89 0 130 -55.5t41 -140.5v-286h-58v271q0 69 -29 115.5t-99 46.5q-67 0 -111 -54t-44 -151v-228h-59zM149 792l108 144h62l108 -144h-52l-87 117l-87 -117h-52z" />
    <glyph glyph-name="Hbar" unicode="&#x126;" horiz-adv-x="755" 
d="M97 0v708h61v-169h440v169h60v-708h-60v341h-440v-341h-61zM158 394h440v106h-440v-106z" />
    <glyph glyph-name="hbar" unicode="&#x127;" horiz-adv-x="581" 
d="M93 0v570h-63v39h63v147h59v-147h187v-39h-187v-201h2q19 52 65.5 82.5t102.5 30.5q89 0 130 -55.5t41 -140.5v-286h-58v271q0 69 -29 115.5t-99 46.5q-66 0 -110.5 -52.5t-44.5 -141.5v-239h-59z" />
    <glyph glyph-name="Itilde" unicode="&#x128;" horiz-adv-x="255" 
d="M97 0v708h61v-708h-61zM194 786q-27 0 -69 24q-38 23 -62 23q-33 0 -43 -49h-32q5 41 24 65t51 24q28 0 69 -23q40 -23 62 -23q34 0 42 47h33q-12 -88 -75 -88z" />
    <glyph glyph-name="itilde" unicode="&#x129;" horiz-adv-x="244" 
d="M93 0v468h59v-468h-59zM-17 585q5 41 24 65.5t51 24.5q29 0 69 -24q42 -23 62 -23q34 0 42 48h33q-12 -88 -75 -88q-29 0 -69 23q-38 23 -62 23q-33 0 -43 -49h-32z" />
    <glyph glyph-name="Imacron" unicode="&#x12a;" horiz-adv-x="255" 
d="M97 0v708h61v-708h-61zM-2 811v40h260v-40h-260z" />
    <glyph glyph-name="imacron" unicode="&#x12b;" horiz-adv-x="244" 
d="M93 0v468h59v-468h-59zM-7 613v39h260v-39h-260z" />
    <glyph glyph-name="Ibreve" unicode="&#x12c;" horiz-adv-x="255" 
d="M97 0v708h61v-708h-61zM126 771q-57 0 -94.5 34t-43.5 97h36q8 -44 35.5 -66.5t66.5 -22.5q86 0 104 89h37q-8 -63 -46 -97t-95 -34z" />
    <glyph glyph-name="ibreve" unicode="&#x12d;" horiz-adv-x="244" 
d="M93 0v468h59v-468h-59zM121 573q-57 0 -94.5 34t-43.5 97h36q8 -44 35.5 -67t66.5 -23q86 0 104 90h37q-8 -63 -46 -97t-95 -34z" />
    <glyph glyph-name="Iogonek" unicode="&#x12e;" horiz-adv-x="255" 
d="M185 -161l17 -30q-37 -34 -90 -34q-38 0 -64 22.5t-26 60.5q0 61 93 142h-18v708h61v-708h-2q-47 -45 -67.5 -74t-20.5 -58q0 -25 15.5 -40t40.5 -15q37 0 61 26z" />
    <glyph glyph-name="iogonek" unicode="&#x12f;" horiz-adv-x="244" 
d="M122 613q-17 0 -29.5 12.5t-12.5 30.5q0 17 12.5 29.5t29.5 12.5t29.5 -12t12.5 -30t-12.5 -30.5t-29.5 -12.5zM180 -161l16 -30q-37 -34 -89 -34q-38 0 -64.5 22.5t-26.5 60.5q0 36 25 69.5t68 72.5h-16v468h59v-468h-2q-47 -45 -67.5 -74t-20.5 -58q0 -24 16 -39.5
t40 -15.5q36 0 62 26z" />
    <glyph glyph-name="Idotaccent" unicode="&#x130;" horiz-adv-x="255" 
d="M97 0v708h61v-708h-61zM128 813q-17 0 -29 12t-12 30q0 17 12 29t29 12t29.5 -12t12.5 -29q0 -18 -13 -30t-29 -12z" />
    <glyph glyph-name="dotlessi" unicode="&#x131;" horiz-adv-x="244" 
d="M93 0v468h59v-468h-59z" />
    <glyph glyph-name="IJ" unicode="&#x132;" horiz-adv-x="625" 
d="M97 0v708h61v-708h-61zM270 45q28 -9 61 -9q73 0 107 46.5t34 124.5v501h60v-506q0 -97 -48 -158.5t-145 -61.5q-28 0 -58 5z" />
    <glyph glyph-name="ij" unicode="&#x133;" horiz-adv-x="489" 
d="M122 613q-17 0 -29.5 12.5t-12.5 30.5q0 17 12.5 29.5t29.5 12.5t29.5 -12t12.5 -30t-12.5 -30.5t-29.5 -12.5zM93 0v468h59v-468h-59zM367 613q-17 0 -29.5 12.5t-12.5 30.5q0 17 12.5 29.5t29.5 12.5t29.5 -12t12.5 -30t-13 -30.5t-29 -12.5zM252 -191q49 0 67.5 25
t18.5 90v544h58v-546q0 -77 -28.5 -118.5t-100.5 -44.5z" />
    <glyph glyph-name="Jcircumflex" unicode="&#x134;" horiz-adv-x="381" 
d="M26 45q28 -9 61 -9q73 0 107 46.5t34 124.5v501h60v-506q0 -97 -48 -158.5t-145 -61.5q-28 0 -58 5zM109 764l108 144h62l108 -144h-52l-87 117l-87 -117h-52z" />
    <glyph glyph-name="jcircumflex" unicode="&#x135;" horiz-adv-x="245" 
d="M20 -241q-25 0 -43 6l7 48q20 -4 31 -4q26 0 42.5 8.5t24 26t10 34.5t2.5 42v548h58v-550q0 -78 -28.5 -118.5t-103.5 -40.5zM-17 565l108 144h62l108 -144h-52l-87 118l-87 -118h-52z" />
    <glyph glyph-name="Kcommaaccent" unicode="&#x136;" horiz-adv-x="606" 
d="M97 0v708h61v-339l334 339h82l-348 -343l366 -365h-84l-350 354v-354h-61zM247 -232l57 187h57l-68 -187h-46z" />
    <glyph glyph-name="kcommaaccent" unicode="&#x137;" horiz-adv-x="488" 
d="M93 0v753l59 10v-507h2l218 212h77l-231 -215l253 -253h-76l-241 244h-2v-244h-59zM189 -232l57 187h57l-68 -187h-46z" />
    <glyph glyph-name="kgreenlandic" unicode="&#x138;" horiz-adv-x="488" 
d="M473 0h-79l-240 243h-2v-243h-59v468h59v-209h2l218 209h78l-233 -215z" />
    <glyph glyph-name="Lacute" unicode="&#x139;" horiz-adv-x="506" 
d="M97 0v708h61v-654h318l-12 -54h-367zM102 733l103 144h67l-122 -144h-48z" />
    <glyph glyph-name="lacute" unicode="&#x13a;" horiz-adv-x="246" 
d="M169 -11q-76 27 -76 115v647l59 11v-645q0 -34 9.5 -50.5t34.5 -28.5zM95 778l103 144h67l-122 -144h-48z" />
    <glyph glyph-name="Lcommaaccent" unicode="&#x13b;" horiz-adv-x="506" 
d="M97 0v708h61v-654h318l-12 -54h-367zM211 -232l57 187h57l-68 -187h-46z" />
    <glyph glyph-name="lcommaaccent" unicode="&#x13c;" horiz-adv-x="246" 
d="M169 -11q-76 27 -76 115v647l59 11v-645q0 -34 9.5 -50.5t34.5 -28.5zM57 -232l57 187h57l-68 -187h-46z" />
    <glyph glyph-name="Lcaron" unicode="&#x13d;" horiz-adv-x="506" 
d="M97 0v708h61v-654h318l-12 -54h-367zM259 522l57 187h57l-68 -187h-46z" />
    <glyph glyph-name="lcaron" unicode="&#x13e;" horiz-adv-x="290" 
d="M169 -11q-76 27 -76 115v647l59 11v-645q0 -34 9.5 -50.5t34.5 -28.5zM203 521l57 187h57l-68 -187h-46z" />
    <glyph glyph-name="Ldot" unicode="&#x13f;" horiz-adv-x="506" 
d="M97 0v708h61v-654h318l-12 -54h-367zM313 283q-17 0 -29 12t-12 30q0 17 12 29.5t29 12.5t29.5 -12.5t12.5 -29.5q0 -18 -13 -30t-29 -12z" />
    <glyph glyph-name="ldot" unicode="&#x140;" horiz-adv-x="296" 
d="M169 -11q-76 27 -76 115v647l59 11v-645q0 -34 9.5 -50.5t34.5 -28.5zM243 324q-17 0 -29 12t-12 30q0 17 12 29.5t29 12.5t29.5 -12.5t12.5 -29.5q0 -18 -13 -30t-29 -12z" />
    <glyph glyph-name="Lslash" unicode="&#x141;" horiz-adv-x="506" 
d="M97 0v240l-69 -62v58l69 62v410h61v-365l207 182v-56l-207 -185v-230h333l-12 -54h-382z" />
    <glyph glyph-name="lslash" unicode="&#x142;" horiz-adv-x="246" 
d="M226 452l-74 -69v-266q0 -34 9.5 -50.5t34.5 -28.5l-27 -49q-76 27 -76 115v231l-65 -63v60l65 62v357l59 11v-321l74 69v-58z" />
    <glyph glyph-name="Nacute" unicode="&#x143;" horiz-adv-x="776" 
d="M97 0v708h75l445 -622h2v622h60v-708h-75l-445 624h-2v-624h-60zM352 764l103 144h67l-122 -144h-48z" />
    <glyph glyph-name="nacute" unicode="&#x144;" horiz-adv-x="582" 
d="M94 0v359q0 73 -4 109h55q5 -40 5 -101h2q20 52 66.5 83.5t102.5 31.5q89 0 131.5 -56t42.5 -140v-286h-59v271q0 69 -29 115.5t-98 46.5q-67 0 -111.5 -52.5t-44.5 -141.5v-239h-59zM252 565l102 144h68l-122 -144h-48z" />
    <glyph glyph-name="Ncommaaccent" unicode="&#x145;" horiz-adv-x="776" 
d="M97 0v708h75l445 -622h2v622h60v-708h-75l-445 624h-2v-624h-60zM305 -232l57 187h57l-68 -187h-46z" />
    <glyph glyph-name="ncommaaccent" unicode="&#x146;" horiz-adv-x="582" 
d="M94 0v359q0 73 -4 109h55q5 -40 5 -101h2q20 52 66.5 83.5t102.5 31.5q89 0 131.5 -56t42.5 -140v-286h-59v271q0 69 -29 115.5t-98 46.5q-67 0 -111.5 -52.5t-44.5 -141.5v-239h-59zM218 -233l57 187h57l-68 -187h-46z" />
    <glyph glyph-name="Ncaron" unicode="&#x147;" horiz-adv-x="776" 
d="M97 0v708h75l445 -622h2v622h60v-708h-75l-445 624h-2v-624h-60zM358 764l-108 144h52l87 -117l87 117h52l-108 -144h-62z" />
    <glyph glyph-name="ncaron" unicode="&#x148;" horiz-adv-x="582" 
d="M94 0v359q0 73 -4 109h55q5 -40 5 -101h2q20 52 66.5 83.5t102.5 31.5q89 0 131.5 -56t42.5 -140v-286h-59v271q0 69 -29 115.5t-98 46.5q-67 0 -111.5 -52.5t-44.5 -141.5v-239h-59zM265 565l-108 144h52l87 -117l87 117h52l-108 -144h-62z" />
    <glyph glyph-name="napostrophe" unicode="&#x149;" horiz-adv-x="598" 
d="M110 0v359q0 73 -4 109h55q5 -40 5 -101h2q20 52 66.5 83.5t102.5 31.5q89 0 131.5 -56t42.5 -140v-286h-59v271q0 69 -29 115.5t-98 46.5q-67 0 -111.5 -52.5t-44.5 -141.5v-239h-59zM25 533l57 187h57l-68 -187h-46z" />
    <glyph glyph-name="Eng" unicode="&#x14a;" horiz-adv-x="776" 
d="M97 708h75l445 -611h2v611h60v-790q0 -78 -29 -118.5t-104 -40.5q-25 0 -43 6l7 48q22 -4 32 -4q48 0 63 29t15 82v70l-461 634h-2v-624h-60v708z" />
    <glyph glyph-name="eng" unicode="&#x14b;" horiz-adv-x="582" 
d="M362 -241q-26 0 -42 6l7 48q20 -4 31 -4q48 0 63 29t15 82v351q0 69 -29 115.5t-98 46.5q-67 0 -111.5 -52.5t-44.5 -141.5v-239h-59v362q0 70 -4 106h56q4 -48 4 -101h2q20 52 67.5 83.5t103.5 31.5q88 0 130 -56t42 -140v-368q0 -78 -29 -118.5t-104 -40.5z" />
    <glyph glyph-name="Omacron" unicode="&#x14c;" horiz-adv-x="863" 
d="M432 -19q-160 0 -265 105.5t-105 268.5t105 267.5t265 104.5t264 -104.5t104 -267.5t-104.5 -268.5t-263.5 -105.5zM432 36q135 0 219.5 92t84.5 227t-85 226.5t-219 91.5q-135 0 -220.5 -91.5t-85.5 -226.5t85 -227t221 -92zM303 811v40h260v-40h-260z" />
    <glyph glyph-name="omacron" unicode="&#x14d;" horiz-adv-x="611" 
d="M305 -14q-108 0 -178.5 70.5t-70.5 178.5q0 109 70.5 178.5t178.5 69.5q109 0 179.5 -69.5t70.5 -178.5q0 -108 -71 -178.5t-179 -70.5zM305 36q87 0 139 57.5t52 141.5t-52.5 141t-138.5 57t-138 -57t-52 -141t52 -141.5t138 -57.5zM175 613v39h260v-39h-260z" />
    <glyph glyph-name="Obreve" unicode="&#x14e;" horiz-adv-x="863" 
d="M432 -19q-160 0 -265 105.5t-105 268.5t105 267.5t265 104.5t264 -104.5t104 -267.5t-104.5 -268.5t-263.5 -105.5zM432 36q135 0 219.5 92t84.5 227t-85 226.5t-219 91.5q-135 0 -220.5 -91.5t-85.5 -226.5t85 -227t221 -92zM430 771q-57 0 -94.5 34t-43.5 97h36
q8 -44 35.5 -66.5t66.5 -22.5q86 0 104 89h37q-8 -63 -46 -97t-95 -34z" />
    <glyph glyph-name="obreve" unicode="&#x14f;" horiz-adv-x="611" 
d="M305 -14q-108 0 -178.5 70.5t-70.5 178.5q0 109 70.5 178.5t178.5 69.5q109 0 179.5 -69.5t70.5 -178.5q0 -108 -71 -178.5t-179 -70.5zM305 36q87 0 139 57.5t52 141.5t-52.5 141t-138.5 57t-138 -57t-52 -141t52 -141.5t138 -57.5zM305 573q-57 0 -94.5 34t-43.5 97h36
q8 -44 35.5 -67t66.5 -23q86 0 104 90h37q-8 -63 -46 -97t-95 -34z" />
    <glyph glyph-name="Ohungarumlaut" unicode="&#x150;" horiz-adv-x="863" 
d="M432 -19q-160 0 -265 105.5t-105 268.5t105 267.5t265 104.5t264 -104.5t104 -267.5t-104.5 -268.5t-263.5 -105.5zM432 36q135 0 219.5 92t84.5 227t-85 226.5t-219 91.5q-135 0 -220.5 -91.5t-85.5 -226.5t85 -227t221 -92zM331 763l102 145h68l-122 -145h-48zM479 763
l104 145h67l-122 -145h-49z" />
    <glyph glyph-name="ohungarumlaut" unicode="&#x151;" horiz-adv-x="611" 
d="M305 -14q-108 0 -178.5 70.5t-70.5 178.5q0 109 70.5 178.5t178.5 69.5q109 0 179.5 -69.5t70.5 -178.5q0 -108 -71 -178.5t-179 -70.5zM305 36q87 0 139 57.5t52 141.5t-52.5 141t-138.5 57t-138 -57t-52 -141t52 -141.5t138 -57.5zM206 567l102 145h68l-122 -145h-48z
M354 567l104 145h67l-122 -145h-49z" />
    <glyph glyph-name="OE" unicode="&#x152;" horiz-adv-x="1002" 
d="M454 0q-79 0 -147.5 21.5t-123 63.5t-86 111t-31.5 158t31.5 158t86 111t123 63.5t147.5 21.5h478l-11 -53h-336v-263h316l-12 -51h-304v-287h363l-12 -54h-482zM463 54h63v601h-62q-151 0 -242.5 -78t-91.5 -223q0 -144 91.5 -222t241.5 -78z" />
    <glyph glyph-name="oe" unicode="&#x153;" horiz-adv-x="1000" 
d="M305 -14q-109 0 -179 70t-70 179t70 178.5t179 69.5q75 0 132 -36.5t84 -98.5q26 62 79.5 98.5t122.5 36.5q104 0 162.5 -67t58.5 -166v-25h-396q1 -78 51.5 -134.5t135.5 -56.5q99 0 173 57l10 -48q-77 -57 -188 -57q-73 0 -128 36.5t-81 99.5q-27 -63 -83.5 -99.5
t-132.5 -36.5zM549 267h339q-2 76 -46.5 123t-119.5 47q-78 0 -124.5 -54.5t-48.5 -115.5zM305 36q86 0 138.5 57.5t52.5 141.5t-52.5 141t-138.5 57t-138 -57t-52 -141t52 -141.5t138 -57.5z" />
    <glyph glyph-name="Racute" unicode="&#x154;" horiz-adv-x="608" 
d="M97 0v708h195q48 0 88 -9t74.5 -29t54 -58t19.5 -91q0 -80 -48.5 -132t-116.5 -67l200 -322h-71l-188 312h-146v-312h-61zM157 361h132q80 0 129.5 43.5t49.5 116.5t-52 105t-135 32h-124v-297zM226 766l103 144h67l-122 -144h-48z" />
    <glyph glyph-name="racute" unicode="&#x155;" horiz-adv-x="342" 
d="M94 0v354q0 78 -5 114h56q5 -42 5 -101h2q18 54 56.5 84.5t80.5 30.5q26 0 50 -8l-12 -51q-21 7 -42 7q-61 0 -96.5 -57.5t-35.5 -139.5v-233h-59zM119 565l102 144h68l-122 -144h-48z" />
    <glyph glyph-name="Rcommaaccent" unicode="&#x156;" horiz-adv-x="608" 
d="M97 0v708h195q48 0 88 -9t74.5 -29t54 -58t19.5 -91q0 -80 -48.5 -132t-116.5 -67l200 -322h-71l-188 312h-146v-312h-61zM157 361h132q80 0 129.5 43.5t49.5 116.5t-52 105t-135 32h-124v-297zM224 -232l57 187h57l-68 -187h-46z" />
    <glyph glyph-name="rcommaaccent" unicode="&#x157;" horiz-adv-x="342" 
d="M94 0v354q0 78 -5 114h56q5 -42 5 -101h2q18 54 56.5 84.5t80.5 30.5q26 0 50 -8l-12 -51q-21 7 -42 7q-61 0 -96.5 -57.5t-35.5 -139.5v-233h-59zM53 -232l57 187h57l-68 -187h-46z" />
    <glyph glyph-name="Rcaron" unicode="&#x158;" horiz-adv-x="608" 
d="M97 0v708h195q48 0 88 -9t74.5 -29t54 -58t19.5 -91q0 -80 -48.5 -132t-116.5 -67l200 -322h-71l-188 312h-146v-312h-61zM157 361h132q80 0 129.5 43.5t49.5 116.5t-52 105t-135 32h-124v-297zM257 761l-108 144h52l87 -117l87 117h52l-108 -144h-62z" />
    <glyph glyph-name="rcaron" unicode="&#x159;" horiz-adv-x="342" 
d="M94 0v354q0 78 -5 114h56q5 -42 5 -101h2q18 54 56.5 84.5t80.5 30.5q26 0 50 -8l-12 -51q-21 7 -42 7q-61 0 -96.5 -57.5t-35.5 -139.5v-233h-59zM174 565l-108 144h52l87 -117l87 117h52l-108 -144h-62z" />
    <glyph glyph-name="Sacute" unicode="&#x15a;" horiz-adv-x="572" 
d="M282 -19q-60 0 -120 21t-97 53l13 58q39 -36 93.5 -57.5t108.5 -21.5q69 0 118 38t49 105q0 28 -10.5 50t-23 36t-40.5 28.5t-45 21t-54 19.5t-59 22t-52 26.5t-46.5 36.5t-29 49t-12.5 67q0 92 67.5 143t160.5 51q110 0 192 -59l-18 -55q-31 25 -78.5 43.5t-95.5 18.5
q-67 0 -117.5 -36.5t-50.5 -103.5q0 -34 12 -58.5t39.5 -42.5t50 -28t64.5 -24l51 -18t46.5 -19.5t45 -27t33 -33t25 -45.5t7.5 -57q0 -95 -66.5 -148t-160.5 -53zM250 764l103 144h67l-122 -144h-48z" />
    <glyph glyph-name="sacute" unicode="&#x15b;" horiz-adv-x="432" 
d="M223 -13q-105 0 -168 52l10 51q65 -57 156 -57q43 0 74 23.5t31 64.5q0 35 -30.5 57t-98.5 44q-67 22 -100 50.5t-33 81.5q0 61 46.5 95t108.5 34q87 0 149 -50l-25 -43q-56 46 -122 46q-44 0 -73 -20t-29 -59q0 -35 26.5 -54.5t92.5 -41.5q74 -24 109 -55t35 -83
q0 -64 -47.5 -100t-111.5 -36zM177 565l102 144h68l-122 -144h-48z" />
    <glyph glyph-name="Scircumflex" unicode="&#x15c;" horiz-adv-x="572" 
d="M282 -19q-60 0 -120 21t-97 53l13 58q39 -36 93.5 -57.5t108.5 -21.5q69 0 118 38t49 105q0 28 -10.5 50t-23 36t-40.5 28.5t-45 21t-54 19.5t-59 22t-52 26.5t-46.5 36.5t-29 49t-12.5 67q0 92 67.5 143t160.5 51q110 0 192 -59l-18 -55q-31 25 -78.5 43.5t-95.5 18.5
q-67 0 -117.5 -36.5t-50.5 -103.5q0 -34 12 -58.5t39.5 -42.5t50 -28t64.5 -24l51 -18t46.5 -19.5t45 -27t33 -33t25 -45.5t7.5 -57q0 -95 -66.5 -148t-160.5 -53zM164 764l108 144h62l108 -144h-52l-87 117l-87 -117h-52z" />
    <glyph glyph-name="scircumflex" unicode="&#x15d;" horiz-adv-x="432" 
d="M223 -13q-105 0 -168 52l10 51q65 -57 156 -57q43 0 74 23.5t31 64.5q0 35 -30.5 57t-98.5 44q-67 22 -100 50.5t-33 81.5q0 61 46.5 95t108.5 34q87 0 149 -50l-25 -43q-56 46 -122 46q-44 0 -73 -20t-29 -59q0 -35 26.5 -54.5t92.5 -41.5q74 -24 109 -55t35 -83
q0 -64 -47.5 -100t-111.5 -36zM82 565l108 144h62l108 -144h-52l-87 118l-87 -118h-52z" />
    <glyph glyph-name="Scedilla" unicode="&#x15e;" horiz-adv-x="572" 
d="M509 182q0 -89 -59.5 -141.5t-145.5 -58.5l-42 -61q22 6 43 6q36 0 62 -17t26 -54q0 -46 -36.5 -65.5t-82.5 -19.5q-52 0 -96 21l11 29q35 -17 82 -17q30 0 53.5 12t23.5 40q0 44 -63 44q-33 0 -57 -12l-16 14l54 80q-56 2 -111.5 22.5t-89.5 50.5l13 58
q39 -36 93.5 -57.5t108.5 -21.5q69 0 118 38t49 105q0 28 -10.5 50t-23 36t-40.5 28.5t-45 21t-54 19.5t-59 22t-52 26.5t-46.5 36.5t-29 49t-12.5 67q0 92 67.5 143t160.5 51q110 0 192 -59l-18 -55q-31 25 -78.5 43.5t-95.5 18.5q-67 0 -117.5 -36.5t-50.5 -103.5
q0 -34 12 -58.5t39.5 -42.5t50 -28t64.5 -24l51 -18t46.5 -19.5t45 -27t33 -33t25 -45.5t7.5 -57z" />
    <glyph glyph-name="scedilla" unicode="&#x15f;" horiz-adv-x="432" 
d="M382 123q0 -61 -43.5 -96.5t-103.5 -38.5l-46 -67q22 6 43 6q36 0 62 -17t26 -54q0 -46 -36.5 -65.5t-82.5 -19.5q-53 0 -96 21l11 29q35 -17 82 -17q30 0 53.5 12t23.5 40q0 44 -63 44q-33 0 -57 -12l-16 14l59 86q-89 7 -143 51l10 51q65 -57 156 -57q43 0 74 23.5
t31 64.5q0 35 -30.5 57t-98.5 44q-67 22 -100 50.5t-33 81.5q0 61 46.5 95t108.5 34q87 0 149 -50l-25 -43q-56 46 -122 46q-44 0 -73 -20t-29 -59q0 -35 26.5 -54.5t92.5 -41.5q74 -24 109 -55t35 -83z" />
    <glyph glyph-name="Scaron" unicode="&#x160;" horiz-adv-x="572" 
d="M282 -19q-60 0 -120 21t-97 53l13 58q39 -36 93.5 -57.5t108.5 -21.5q69 0 118 38t49 105q0 28 -10.5 50t-23 36t-40.5 28.5t-45 21t-54 19.5t-59 22t-52 26.5t-46.5 36.5t-29 49t-12.5 67q0 92 67.5 143t160.5 51q110 0 192 -59l-18 -55q-31 25 -78.5 43.5t-95.5 18.5
q-67 0 -117.5 -36.5t-50.5 -103.5q0 -34 12 -58.5t39.5 -42.5t50 -28t64.5 -24l51 -18t46.5 -19.5t45 -27t33 -33t25 -45.5t7.5 -57q0 -95 -66.5 -148t-160.5 -53zM269 764l-108 144h52l87 -117l87 117h52l-108 -144h-62z" />
    <glyph glyph-name="scaron" unicode="&#x161;" horiz-adv-x="432" 
d="M223 -13q-105 0 -168 52l10 51q65 -57 156 -57q43 0 74 23.5t31 64.5q0 35 -30.5 57t-98.5 44q-67 22 -100 50.5t-33 81.5q0 61 46.5 95t108.5 34q87 0 149 -50l-25 -43q-56 46 -122 46q-44 0 -73 -20t-29 -59q0 -35 26.5 -54.5t92.5 -41.5q74 -24 109 -55t35 -83
q0 -64 -47.5 -100t-111.5 -36zM190 565l-108 144h52l87 -117l87 117h52l-108 -144h-62z" />
    <glyph glyph-name="uni0162" unicode="&#x162;" horiz-adv-x="522" 
d="M231 0v654h-227l12 54h501l-11 -54h-215v-654h-60zM188 -232l57 187h57l-68 -187h-46z" />
    <glyph glyph-name="uni0163" unicode="&#x163;" horiz-adv-x="315" 
d="M202 -10q-50 0 -79.5 32t-29.5 91v309h-88l12 46h75v112l59 23v-135h133l-12 -46h-121v-301q0 -83 68 -83q33 0 75 21l8 -44q-46 -25 -100 -25zM122 -232l57 187h57l-68 -187h-46z" />
    <glyph glyph-name="Tcaron" unicode="&#x164;" horiz-adv-x="522" 
d="M231 0v654h-227l12 54h501l-11 -54h-215v-654h-60zM247 764l-108 144h52l87 -117l87 117h52l-108 -144h-62z" />
    <glyph glyph-name="tcaron" unicode="&#x165;" horiz-adv-x="338" 
d="M202 -10q-50 0 -79.5 32t-29.5 91v309h-88l12 46h75v112l59 23v-135h133l-12 -46h-121v-301q0 -83 68 -83q33 0 75 21l8 -44q-46 -25 -100 -25zM235 544l57 187h57l-68 -187h-46z" />
    <glyph glyph-name="Tbar" unicode="&#x166;" horiz-adv-x="522" 
d="M231 0v494h-165v38h165v122h-227l12 54h501l-11 -54h-215v-122h163v-38h-163v-494h-60z" />
    <glyph glyph-name="tbar" unicode="&#x167;" horiz-adv-x="322" 
d="M209 -10q-50 0 -79.5 32t-29.5 91v140h-69v38h69v131h-88l12 46h75v112l59 23v-135h133l-12 -46h-121v-131h118v-38h-118v-132q0 -83 68 -83q33 0 75 21l8 -44q-46 -25 -100 -25z" />
    <glyph glyph-name="Utilde" unicode="&#x168;" horiz-adv-x="727" 
d="M364 -19q-141 0 -208 80.5t-67 205.5v441h61v-434q0 -35 5 -66t19.5 -63.5t37.5 -56t62 -38.5t90 -15q62 0 106 21.5t66.5 58t32 75.5t9.5 84v434h60v-441q0 -59 -15 -109t-46.5 -90.5t-86 -63.5t-126.5 -23zM431 786q-27 0 -69 24q-38 23 -62 23q-33 0 -43 -49h-32
q5 41 24 65t51 24q28 0 69 -23q40 -23 62 -23q34 0 42 47h33q-12 -88 -75 -88z" />
    <glyph glyph-name="utilde" unicode="&#x169;" horiz-adv-x="582" 
d="M257 -13q-88 0 -129.5 56t-41.5 140v285h59v-270q0 -44 9.5 -78t39.5 -59.5t78 -25.5q67 0 111.5 53.5t44.5 146.5v233h58v-359q0 -57 9 -109l-58 -1q-3 24 -9 102q-20 -52 -67.5 -83t-103.5 -31zM148 585q5 41 24 65.5t51 24.5q28 0 69 -24q42 -23 62 -23q34 0 42 48h33
q-12 -88 -75 -88q-29 0 -69 23q-38 23 -62 23q-33 0 -43 -49h-32z" />
    <glyph glyph-name="Umacron" unicode="&#x16a;" horiz-adv-x="727" 
d="M364 -19q-141 0 -208 80.5t-67 205.5v441h61v-434q0 -35 5 -66t19.5 -63.5t37.5 -56t62 -38.5t90 -15q62 0 106 21.5t66.5 58t32 75.5t9.5 84v434h60v-441q0 -59 -15 -109t-46.5 -90.5t-86 -63.5t-126.5 -23zM236 811v40h260v-40h-260z" />
    <glyph glyph-name="umacron" unicode="&#x16b;" horiz-adv-x="582" 
d="M257 -13q-88 0 -129.5 56t-41.5 140v285h59v-270q0 -44 9.5 -78t39.5 -59.5t78 -25.5q67 0 111.5 53.5t44.5 146.5v233h58v-359q0 -57 9 -109l-58 -1q-3 24 -9 102q-20 -52 -67.5 -83t-103.5 -31zM155 613v39h260v-39h-260z" />
    <glyph glyph-name="Ubreve" unicode="&#x16c;" horiz-adv-x="727" 
d="M364 -19q-141 0 -208 80.5t-67 205.5v441h61v-434q0 -35 5 -66t19.5 -63.5t37.5 -56t62 -38.5t90 -15q62 0 106 21.5t66.5 58t32 75.5t9.5 84v434h60v-441q0 -59 -15 -109t-46.5 -90.5t-86 -63.5t-126.5 -23zM363 771q-57 0 -94.5 34t-43.5 97h36q8 -44 35.5 -66.5
t66.5 -22.5q86 0 104 89h37q-8 -63 -46 -97t-95 -34z" />
    <glyph glyph-name="ubreve" unicode="&#x16d;" horiz-adv-x="582" 
d="M257 -13q-88 0 -129.5 56t-41.5 140v285h59v-270q0 -44 9.5 -78t39.5 -59.5t78 -25.5q67 0 111.5 53.5t44.5 146.5v233h58v-359q0 -57 9 -109l-58 -1q-3 24 -9 102q-20 -52 -67.5 -83t-103.5 -31zM284 573q-57 0 -94.5 34t-43.5 97h36q8 -44 35.5 -67t66.5 -23
q86 0 104 90h37q-8 -63 -46 -97t-95 -34z" />
    <glyph glyph-name="Uring" unicode="&#x16e;" horiz-adv-x="727" 
d="M364 -19q-141 0 -208 80.5t-67 205.5v441h61v-434q0 -35 5 -66t19.5 -63.5t37.5 -56t62 -38.5t90 -15q62 0 106 21.5t66.5 58t32 75.5t9.5 84v434h60v-441q0 -59 -15 -109t-46.5 -90.5t-86 -63.5t-126.5 -23zM366 754q-40 0 -69 28t-29 69t29 69t69 28q41 0 69.5 -28
t28.5 -69t-28.5 -69t-69.5 -28zM366 781q29 0 49.5 20.5t20.5 49.5t-20.5 49.5t-49.5 20.5t-49.5 -20.5t-20.5 -49.5t20.5 -49.5t49.5 -20.5z" />
    <glyph glyph-name="uring" unicode="&#x16f;" horiz-adv-x="582" 
d="M257 -13q-88 0 -129.5 56t-41.5 140v285h59v-270q0 -44 9.5 -78t39.5 -59.5t78 -25.5q67 0 111.5 53.5t44.5 146.5v233h58v-359q0 -57 9 -109l-58 -1q-3 24 -9 102q-20 -52 -67.5 -83t-103.5 -31zM286 555q-40 0 -69 28t-29 69t29 69.5t69 28.5q41 0 69.5 -28t28.5 -70
q0 -41 -28.5 -69t-69.5 -28zM286 583q29 0 49.5 20t20.5 49t-20.5 49.5t-49.5 20.5t-49.5 -20.5t-20.5 -49.5t20.5 -49t49.5 -20z" />
    <glyph glyph-name="Uhungarumlaut" unicode="&#x170;" horiz-adv-x="727" 
d="M364 -19q-141 0 -208 80.5t-67 205.5v441h61v-434q0 -35 5 -66t19.5 -63.5t37.5 -56t62 -38.5t90 -15q62 0 106 21.5t66.5 58t32 75.5t9.5 84v434h60v-441q0 -59 -15 -109t-46.5 -90.5t-86 -63.5t-126.5 -23zM262 763l102 145h68l-122 -145h-48zM410 763l104 145h67
l-122 -145h-49z" />
    <glyph glyph-name="uhungarumlaut" unicode="&#x171;" horiz-adv-x="582" 
d="M257 -13q-88 0 -129.5 56t-41.5 140v285h59v-270q0 -44 9.5 -78t39.5 -59.5t78 -25.5q67 0 111.5 53.5t44.5 146.5v233h58v-359q0 -57 9 -109l-58 -1q-3 24 -9 102q-20 -52 -67.5 -83t-103.5 -31zM166 567l102 145h68l-122 -145h-48zM314 567l104 145h67l-122 -145h-49z
" />
    <glyph glyph-name="Uogonek" unicode="&#x172;" horiz-adv-x="727" 
d="M578 708h60v-441q0 -113 -55.5 -191t-171.5 -92q-71 -71 -71 -116q0 -25 15.5 -40t40.5 -15q36 0 62 26l16 -30q-37 -34 -89 -34q-38 0 -64.5 22.5t-26.5 60.5q0 57 72 123h-2q-141 0 -208 80.5t-67 205.5v441h61v-434q0 -35 5 -66t19.5 -63.5t37.5 -56t62 -38.5t90 -15
q62 0 106 21.5t66.5 58t32 75.5t9.5 84v434z" />
    <glyph glyph-name="uogonek" unicode="&#x173;" horiz-adv-x="582" 
d="M516 -161l16 -30q-37 -34 -89 -34q-38 0 -64.5 22.5t-26.5 60.5q0 59 92 141h-7q-3 24 -9 102q-20 -52 -67.5 -83t-103.5 -31q-88 0 -129.5 56t-41.5 140v285h59v-270q0 -44 9.5 -78t39.5 -59.5t78 -25.5q67 0 111.5 53.5t44.5 146.5v233h58v-359q0 -57 9 -109h-9
q-47 -45 -67.5 -74t-20.5 -58q0 -24 16 -39.5t40 -15.5q36 0 62 26z" />
    <glyph glyph-name="Wcircumflex" unicode="&#x174;" horiz-adv-x="972" 
d="M229 0l-209 708h64l181 -630h3l181 630h72l185 -630h2l181 630h63l-209 -708h-70l-187 631h-2l-185 -631h-70zM346 764l108 144h62l108 -144h-52l-87 117l-87 -117h-52z" />
    <glyph glyph-name="wcircumflex" unicode="&#x175;" horiz-adv-x="741" 
d="M170 0l-144 468h63l115 -401h3l131 401h64l133 -401h2l116 401h61l-145 -468h-64l-135 399h-2l-133 -399h-65zM231 565l108 144h62l108 -144h-52l-87 118l-87 -118h-52z" />
    <glyph glyph-name="Ycircumflex" unicode="&#x176;" horiz-adv-x="577" 
d="M258 0v307l-253 401h74l211 -348l211 348h71l-253 -401v-307h-61zM151 764l108 144h62l108 -144h-52l-87 117l-87 -117h-52z" />
    <glyph glyph-name="ycircumflex" unicode="&#x177;" horiz-adv-x="468" 
d="M47 -188q53 2 83.5 21t48.5 65l36 98l-197 472h65l162 -406l142 406h63l-218 -586q-23 -63 -63.5 -91.5t-105.5 -30.5zM101 565l108 144h62l108 -144h-52l-87 118l-87 -118h-52z" />
    <glyph glyph-name="Ydieresis" unicode="&#x178;" horiz-adv-x="577" 
d="M258 0v307l-253 401h74l211 -348l211 348h71l-253 -401v-307h-61zM204 813q-17 0 -29 12t-12 29q0 16 12.5 28.5t28.5 12.5q17 0 29 -12t12 -29q0 -18 -12 -29.5t-29 -11.5zM379 813q-17 0 -29 12t-12 29t12 29t29 12t29 -12t12 -29q0 -18 -12 -29.5t-29 -11.5z" />
    <glyph glyph-name="Zacute" unicode="&#x179;" horiz-adv-x="595" 
d="M46 0v56l422 599h-401v53h470v-56l-422 -598h454l-12 -54h-511zM263 764l103 144h67l-122 -144h-48z" />
    <glyph glyph-name="zacute" unicode="&#x17a;" horiz-adv-x="452" 
d="M41 0v46l288 376h-283l12 46h340v-46l-287 -374h306l-10 -48h-366zM175 565l102 144h68l-122 -144h-48z" />
    <glyph glyph-name="Zdotaccent" unicode="&#x17b;" horiz-adv-x="595" 
d="M46 0v56l422 599h-401v53h470v-56l-422 -598h454l-12 -54h-511zM304 813q-17 0 -29 12t-12 30q0 17 12 29t29 12t29.5 -12t12.5 -29q0 -18 -13 -30t-29 -12z" />
    <glyph glyph-name="zdotaccent" unicode="&#x17c;" horiz-adv-x="452" 
d="M41 0v46l288 376h-283l12 46h340v-46l-287 -374h306l-10 -48h-366zM229 614q-17 0 -29 12t-12 30q0 17 12 29.5t29 12.5t29.5 -12.5t12.5 -29.5q0 -18 -13 -30t-29 -12z" />
    <glyph glyph-name="Zcaron" unicode="&#x17d;" horiz-adv-x="595" 
d="M46 0v56l422 599h-401v53h470v-56l-422 -598h454l-12 -54h-511zM270 764l-108 144h52l87 -117l87 117h52l-108 -144h-62z" />
    <glyph glyph-name="zcaron" unicode="&#x17e;" horiz-adv-x="452" 
d="M41 0v46l288 376h-283l12 46h340v-46l-287 -374h306l-10 -48h-366zM196 565l-108 144h52l87 -117l87 117h52l-108 -144h-62z" />
    <glyph glyph-name="florin" unicode="&#x192;" horiz-adv-x="580" 
d="M94 -141q-45 0 -74 16l23 46q23 -13 50 -13q43 0 62.5 29.5t30.5 86.5l63 348h-112l11 43h109l27 149q13 72 46.5 114.5t102.5 42.5q52 0 85 -25l-25 -43q-27 17 -55 17q-77 0 -96 -108l-27 -147h127l-12 -43h-123l-70 -372q-12 -67 -45 -104t-98 -37z" />
    <glyph glyph-name="AEacute" unicode="&#x1fc;" horiz-adv-x="955" 
d="M13 0l452 708h420l-12 -53h-312v-263h291l-11 -51h-280v-287h340l-12 -54h-387v259h-252l-166 -259h-71zM278 310h224v345h-5zM580 764l103 144h67l-122 -144h-48z" />
    <glyph glyph-name="aeacute" unicode="&#x1fd;" horiz-adv-x="872" 
d="M224 -13q-68 0 -117 33t-49 101q0 147 276 147h52v32q0 67 -33.5 101.5t-95.5 34.5q-82 0 -151 -60l-19 46q67 61 175 61q66 0 107.5 -32t53.5 -83q26 53 73.5 84t107.5 31q95 0 153.5 -64.5t58.5 -168.5q0 -4 -0.5 -12.5t-0.5 -12.5h-375q1 -77 46.5 -133.5t127.5 -56.5
q90 0 165 56l9 -49q-75 -56 -179 -56q-67 0 -118 35.5t-75 97.5q-16 -60 -65.5 -96t-126.5 -36zM440 268h319q-2 75 -44 122t-111 47q-75 0 -118.5 -55t-45.5 -114zM233 31q78 0 116 45t38 113v36h-43q-49 0 -85 -3.5t-71.5 -13.5t-54 -31.5t-18.5 -54.5q0 -48 35 -69.5
t83 -21.5zM405 565l102 144h68l-122 -144h-48z" />
    <glyph glyph-name="Oslashacute" unicode="&#x1fe;" horiz-adv-x="863" 
d="M424 -19q-141 0 -239 82l-73 -81l-29 26l73 82q-101 101 -101 264q0 164 104.5 268.5t264.5 104.5q131 0 231 -76l73 83l29 -27l-72 -82q108 -103 108 -271q0 -163 -105 -268t-264 -105zM197 135l419 474q-80 65 -192 65q-136 0 -221.5 -92.5t-85.5 -227.5
q0 -131 80 -219zM424 34q136 0 221 92.5t85 227.5q0 138 -86 226l-419 -474q82 -72 199 -72zM379 764l103 144h67l-122 -144h-48z" />
    <glyph glyph-name="oslashacute" unicode="&#x1ff;" horiz-adv-x="611" 
d="M72 -22l-27 26l68 68q-57 68 -57 163q0 108 70.5 178t178.5 70q92 0 162 -55l63 63l27 -26l-64 -63q62 -65 62 -167q0 -109 -70.5 -179t-179.5 -70q-101 0 -165 61zM152 111l278 280q-51 44 -125 44q-87 0 -139 -57t-52 -142q0 -75 38 -125zM305 35q87 0 139.5 57.5
t52.5 142.5q0 78 -43 129l-278 -280q47 -49 129 -49zM263 565l102 144h68l-122 -144h-48z" />
    <glyph glyph-name="Scommaaccent" unicode="&#x218;" horiz-adv-x="572" 
d="M282 -19q-60 0 -120 21t-97 53l13 58q39 -36 93.5 -57.5t108.5 -21.5q69 0 118 38t49 105q0 28 -10.5 50t-23 36t-40.5 28.5t-45 21t-54 19.5t-59 22t-52 26.5t-46.5 36.5t-29 49t-12.5 67q0 92 67.5 143t160.5 51q110 0 192 -59l-18 -55q-31 25 -78.5 43.5t-95.5 18.5
q-67 0 -117.5 -36.5t-50.5 -103.5q0 -34 12 -58.5t39.5 -42.5t50 -28t64.5 -24l51 -18t46.5 -19.5t45 -27t33 -33t25 -45.5t7.5 -57q0 -95 -66.5 -148t-160.5 -53zM215 -232l57 187h57l-68 -187h-46z" />
    <glyph glyph-name="scommaaccent" unicode="&#x219;" horiz-adv-x="432" 
d="M223 -13q-105 0 -168 52l10 51q65 -57 156 -57q43 0 74 23.5t31 64.5q0 35 -30.5 57t-98.5 44q-67 22 -100 50.5t-33 81.5q0 61 46.5 95t108.5 34q87 0 149 -50l-25 -43q-56 46 -122 46q-44 0 -73 -20t-29 -59q0 -35 26.5 -54.5t92.5 -41.5q74 -24 109 -55t35 -83
q0 -64 -47.5 -100t-111.5 -36zM140 -232l57 187h57l-68 -187h-46z" />
    <glyph glyph-name="uni021A" unicode="&#x21a;" horiz-adv-x="522" 
d="M231 0v654h-227l12 54h501l-11 -54h-215v-654h-60zM185 -232l57 187h57l-68 -187h-46z" />
    <glyph glyph-name="uni021B" unicode="&#x21b;" horiz-adv-x="322" 
d="M202 -10q-50 0 -79.5 32t-29.5 91v309h-88l12 46h75v112l59 23v-135h133l-12 -46h-121v-301q0 -83 68 -83q33 0 75 21l8 -44q-46 -25 -100 -25zM122 -232l57 187h57l-68 -187h-46z" />
    <glyph glyph-name="uni0237" unicode="&#x237;" horiz-adv-x="245" 
d="M20 -241q-25 0 -43 6l7 48q20 -4 31 -4q26 0 42.5 8.5t24 26t10 34.5t2.5 42v548h58v-550q0 -78 -28.5 -118.5t-103.5 -40.5z" />
    <glyph glyph-name="circumflex" unicode="&#x2c6;" horiz-adv-x="250" 
d="M-14 565l108 144h62l108 -144h-52l-87 118l-87 -118h-52z" />
    <glyph glyph-name="caron" unicode="&#x2c7;" horiz-adv-x="250" 
d="M94 565l-108 144h52l87 -117l87 117h52l-108 -144h-62z" />
    <glyph glyph-name="uni02C9" unicode="&#x2c9;" horiz-adv-x="250" 
d="M-5 812v39h260v-39h-260z" />
    <glyph glyph-name="breve" unicode="&#x2d8;" horiz-adv-x="250" 
d="M124 573q-57 0 -94.5 34t-43.5 97h36q8 -44 35.5 -67t66.5 -23q86 0 104 90h37q-8 -63 -46 -97t-95 -34z" />
    <glyph glyph-name="dotaccent" unicode="&#x2d9;" horiz-adv-x="250" 
d="M125 614q-17 0 -29 12t-12 30q0 17 12 29.5t29 12.5t29.5 -12.5t12.5 -29.5q0 -18 -13 -30t-29 -12z" />
    <glyph glyph-name="ring" unicode="&#x2da;" horiz-adv-x="250" 
d="M125 555q-40 0 -69 28t-29 69t29 69.5t69 28.5q41 0 69.5 -28t28.5 -70q0 -41 -28.5 -69t-69.5 -28zM125 583q29 0 49.5 20t20.5 49t-20.5 49.5t-49.5 20.5t-49.5 -20.5t-20.5 -49.5t20.5 -49t49.5 -20z" />
    <glyph glyph-name="ogonek" unicode="&#x2db;" horiz-adv-x="250" 
d="M123 -225q-38 0 -64 22.5t-26 60.5q0 61 94 143h41q-48 -46 -68.5 -75t-20.5 -58q0 -25 15.5 -40t40.5 -15q37 0 61 26l17 -30q-37 -34 -90 -34z" />
    <glyph glyph-name="tilde" unicode="&#x2dc;" horiz-adv-x="250" 
d="M-15 585q5 41 24 65.5t51 24.5q28 0 69 -24q42 -23 62 -23q34 0 42 48h33q-12 -88 -75 -88q-29 0 -69 23q-38 23 -62 23q-33 0 -43 -49h-32z" />
    <glyph glyph-name="hungarumlaut" unicode="&#x2dd;" horiz-adv-x="250" 
d="M2 567l102 145h68l-122 -145h-48zM150 567l104 145h67l-122 -145h-49z" />
    <glyph glyph-name="uni0326" unicode="&#x326;" horiz-adv-x="0" 
d="M-191 -232l57 187h57l-68 -187h-46z" />
    <glyph glyph-name="uni0374" unicode="&#x374;" horiz-adv-x="219" 
d="M121 544h-43l54 186h67z" />
    <glyph glyph-name="uni0375" unicode="&#x375;" horiz-adv-x="219" 
d="M157 21h42l-53 -186h-68z" />
    <glyph glyph-name="uni0394" unicode="&#x394;" horiz-adv-x="625" 
d="M325 713l258 -684v-29h-577v30l259 683h60zM519 49l-186 499l-39 109q-21 -63 -36 -104l-188 -504h449z" />
    <glyph glyph-name="uni03A9" unicode="&#x3a9;" horiz-adv-x="747" 
d="M386 672q-114 0 -186.5 -77.5t-72.5 -208.5q0 -121 48.5 -197t142.5 -137v-52h-280v50h219q-194 117 -194 340q0 149 90 241t233 92q147 0 236 -88.5t89 -244.5q0 -228 -194 -340h219v-50h-281v52q98 58 145.5 136t47.5 198q0 134 -72.5 210t-189.5 76z" />
    <glyph glyph-name="uni03BC" unicode="&#x3bc;" horiz-adv-x="596" 
d="M509 468v-468h-47l-7 91h-3q-44 -101 -163 -101q-107 0 -145 74h-2q0 -12 0.5 -44.5t0.5 -49.5v-210h-57v708h57v-273q0 -74 38 -113t109 -39q86 0 124 50t38 147v228h57z" />
    <glyph glyph-name="pi" unicode="&#x3c0;" horiz-adv-x="621" 
d="M541 36q28 0 47 8v-43q-26 -11 -63 -11q-49 0 -76 30t-27 86v316h-241v-422h-59v422h-110v35l88 11h493v-46h-113v-307q0 -79 61 -79z" />
    <glyph glyph-name="Wgrave" unicode="&#x1e80;" horiz-adv-x="972" 
d="M229 0l-209 708h64l181 -630h3l181 630h72l185 -630h2l181 630h63l-209 -708h-70l-187 631h-2l-185 -631h-70zM465 764l-122 144h68l102 -144h-48z" />
    <glyph glyph-name="wgrave" unicode="&#x1e81;" horiz-adv-x="741" 
d="M170 0l-144 468h63l115 -401h3l131 401h64l133 -401h2l116 401h61l-145 -468h-64l-135 399h-2l-133 -399h-65zM345 565l-122 144h68l102 -144h-48z" />
    <glyph glyph-name="Wacute" unicode="&#x1e82;" horiz-adv-x="972" 
d="M229 0l-209 708h64l181 -630h3l181 630h72l185 -630h2l181 630h63l-209 -708h-70l-187 631h-2l-185 -631h-70zM457 764l103 144h67l-122 -144h-48z" />
    <glyph glyph-name="wacute" unicode="&#x1e83;" horiz-adv-x="741" 
d="M170 0l-144 468h63l115 -401h3l131 401h64l133 -401h2l116 401h61l-145 -468h-64l-135 399h-2l-133 -399h-65zM347 565l102 144h68l-122 -144h-48z" />
    <glyph glyph-name="Wdieresis" unicode="&#x1e84;" horiz-adv-x="972" 
d="M229 0l-209 708h64l181 -630h3l181 630h72l185 -630h2l181 630h63l-209 -708h-70l-187 631h-2l-185 -631h-70zM398 813q-17 0 -29 12t-12 29q0 16 12.5 28.5t28.5 12.5q17 0 29 -12t12 -29q0 -18 -12 -29.5t-29 -11.5zM573 813q-17 0 -29 12t-12 29t12 29t29 12t29 -12
t12 -29q0 -18 -12 -29.5t-29 -11.5z" />
    <glyph glyph-name="wdieresis" unicode="&#x1e85;" horiz-adv-x="741" 
d="M170 0l-144 468h63l115 -401h3l131 401h64l133 -401h2l116 401h61l-145 -468h-64l-135 399h-2l-133 -399h-65zM282 614q-17 0 -29 12t-12 30q0 16 12.5 28.5t28.5 12.5q17 0 29 -12t12 -29q0 -18 -12 -30t-29 -12zM457 614q-17 0 -29 12t-12 30q0 17 12 29t29 12
t29 -12.5t12 -28.5q0 -18 -12 -30t-29 -12z" />
    <glyph glyph-name="Ygrave" unicode="&#x1ef2;" horiz-adv-x="577" 
d="M258 0v307l-253 401h74l211 -348l211 348h71l-253 -401v-307h-61zM277 764l-122 144h68l102 -144h-48z" />
    <glyph glyph-name="ygrave" unicode="&#x1ef3;" horiz-adv-x="468" 
d="M47 -188q53 2 83.5 21t48.5 65l36 98l-197 472h65l162 -406l142 406h63l-218 -586q-23 -63 -63.5 -91.5t-105.5 -30.5zM224 565l-122 144h68l102 -144h-48z" />
    <glyph glyph-name="uni2010" unicode="&#x2010;" horiz-adv-x="309" 
d="M53 228v49h204v-49h-204z" />
    <glyph glyph-name="endash" unicode="&#x2013;" horiz-adv-x="400" 
d="M30 231v43h340v-43h-340z" />
    <glyph glyph-name="emdash" unicode="&#x2014;" horiz-adv-x="600" 
d="M30 230v44h540v-44h-540z" />
    <glyph glyph-name="uni2015" unicode="&#x2015;" horiz-adv-x="600" 
d="M30 230v44h540v-44h-540z" />
    <glyph glyph-name="quoteleft" unicode="&#x2018;" horiz-adv-x="256" 
d="M108 572q17 -2 29 -14.5t12 -30.5q0 -19 -13 -32t-32 -13t-31.5 15t-12.5 40q0 88 91 171l22 -15q-56 -56 -65 -121z" />
    <glyph glyph-name="quoteright" unicode="&#x2019;" horiz-adv-x="256" 
d="M83 482l-23 15q22 21 41 54t24 67q-17 2 -28.5 14.5t-11.5 30.5q0 19 12.5 32t31.5 13t31.5 -15t12.5 -41q0 -86 -90 -170z" />
    <glyph glyph-name="quotesinglbase" unicode="&#x201a;" horiz-adv-x="255" 
d="M173 52q0 -88 -91 -170l-23 15q56 56 65 122q-17 1 -28.5 13.5t-11.5 30.5q0 19 12.5 32t31.5 13t32 -15t13 -41z" />
    <glyph glyph-name="quotedblleft" unicode="&#x201c;" horiz-adv-x="423" 
d="M107 572q17 -2 29 -14.5t12 -30.5q0 -19 -13 -32t-32 -13t-31.5 15t-12.5 40q0 88 91 171l23 -15q-57 -55 -66 -121zM275 572q17 -2 28.5 -14.5t11.5 -30.5q0 -19 -12.5 -32t-31.5 -13t-32 15t-13 40q0 88 91 171l23 -15q-56 -56 -65 -121z" />
    <glyph glyph-name="quotedblright" unicode="&#x201d;" horiz-adv-x="424" 
d="M129 708q19 0 31.5 -15t12.5 -41q0 -86 -90 -170l-23 15q22 21 41 54t24 67q-17 2 -28.5 14.5t-11.5 30.5q0 19 12.5 32t31.5 13zM296 708q19 0 32 -15t13 -41q0 -87 -91 -170l-23 15q55 51 65 121q-17 2 -28.5 14.5t-11.5 30.5q0 19 13 32t31 13z" />
    <glyph glyph-name="quotedblbase" unicode="&#x201e;" horiz-adv-x="423" 
d="M82 -118l-23 15q56 56 65 121q-17 2 -28.5 14.5t-11.5 30.5q0 19 12.5 32t31.5 13t32 -14.5t13 -40.5q0 -86 -91 -171zM249 -118l-23 15q56 53 65 121q-17 2 -28.5 14.5t-11.5 30.5q0 19 13 32t31 13q20 0 32.5 -14.5t12.5 -40.5q0 -88 -91 -171z" />
    <glyph glyph-name="dagger" unicode="&#x2020;" horiz-adv-x="544" 
d="M245 -127v582h-197v48h197v205h54v-205h197v-48h-197v-582h-54z" />
    <glyph glyph-name="daggerdbl" unicode="&#x2021;" horiz-adv-x="544" 
d="M245 -127v198h-194v49h194v341h-194v49h194v198h54v-198h194v-49h-194v-341h194v-49h-194v-198h-54z" />
    <glyph glyph-name="bullet" unicode="&#x2022;" horiz-adv-x="500" 
d="M250 177q-74 0 -125.5 51.5t-51.5 125.5t51.5 125.5t125.5 51.5t125.5 -51.5t51.5 -125.5t-51.5 -125.5t-125.5 -51.5z" />
    <glyph glyph-name="ellipsis" unicode="&#x2026;" horiz-adv-x="1000" 
d="M166 -7q-18 0 -31.5 13.5t-13.5 32.5q0 18 13.5 31.5t31.5 13.5t31.5 -13t13.5 -32t-13.5 -32.5t-31.5 -13.5zM501 -7q-19 0 -32 13.5t-13 32.5q0 18 13 31.5t32 13.5q18 0 31 -13t13 -32t-13 -32.5t-31 -13.5zM834 -7q-18 0 -31 13.5t-13 32.5q0 18 13 31.5t31 13.5
q19 0 32 -13t13 -32t-13.5 -32.5t-31.5 -13.5z" />
    <glyph glyph-name="perthousand" unicode="&#x2030;" horiz-adv-x="1043" 
d="M140 -28l-38 20l433 746l38 -21zM190 410q-64 0 -109 44.5t-45 108.5q0 65 45 110t109 45q63 0 108.5 -45t45.5 -110q0 -63 -45.5 -108t-108.5 -45zM190 453q46 0 77.5 32t31.5 78q0 48 -31.5 80t-77.5 32q-45 0 -76.5 -32t-31.5 -80q0 -46 31.5 -78t76.5 -32zM502 -8
q-63 0 -107.5 45t-44.5 109t44.5 109t107.5 45q64 0 109.5 -45t45.5 -109t-45.5 -109t-109.5 -45zM857 -8q-64 0 -109 45t-45 109t45 109t109 45q63 0 108 -45t45 -109t-45 -109t-108 -45zM502 35q46 0 78 32t32 79t-32 79.5t-78 32.5q-45 0 -76 -32.5t-31 -79.5t31 -79
t76 -32zM857 35q46 0 77 32t31 79t-31 79.5t-77 32.5t-77 -32.5t-31 -79.5t31 -79t77 -32z" />
    <glyph glyph-name="guilsinglleft" unicode="&#x2039;" horiz-adv-x="316" 
d="M200 34l-134 207l133 205l39 -25l-115 -180l116 -180z" />
    <glyph glyph-name="guilsinglright" unicode="&#x203a;" horiz-adv-x="316" 
d="M116 35l-38 26l114 180l-115 180l38 26l134 -206z" />
    <glyph glyph-name="uni203D" unicode="&#x203d;" horiz-adv-x="487" 
d="M241 725q82 0 137.5 -46t55.5 -126q0 -30 -6.5 -54.5t-23 -47.5t-28.5 -35.5t-39 -38.5q-46 -45 -60 -74t-14 -79v-21h-57v341h51l-1 -175q8 9 27 28q35 35 48.5 50t27.5 44t14 61q0 55 -39 87.5t-98 32.5q-101 0 -168 -79l-29 47q77 85 202 85zM238 83q18 0 30.5 -13
t12.5 -32q0 -18 -12.5 -31.5t-30.5 -13.5t-31 13.5t-13 31.5q0 19 12.5 32t31.5 13z" />
    <glyph glyph-name="fraction" unicode="&#x2044;" horiz-adv-x="100" 
d="M-159 -28l-37 20l433 746l37 -21z" />
    <glyph glyph-name="zero.superior" unicode="&#x2070;" 
d="M326 663q0 -58 -11 -104.5t-44.5 -81.5t-86.5 -35q-54 0 -87 35t-44 81t-11 105t11 105t44 81t87 35q40 0 69.5 -19t44.5 -52.5t21.5 -70t6.5 -79.5zM278 663q0 29 -3.5 56.5t-12.5 57.5t-29 48t-49 18t-49.5 -18.5t-29.5 -48.5t-12.5 -57t-3.5 -56t3.5 -56t12.5 -57.5
t29.5 -48.5t49.5 -18t49 18t29 48t12.5 57.5t3.5 56.5z" />
    <glyph glyph-name="four.superior" unicode="&#x2074;" 
d="M226 452v100h-194v42l180 280h58v-282h65l-11 -40h-54v-100h-44zM226 819h-3l-144 -227h147v227z" />
    <glyph glyph-name="five.superior" unicode="&#x2075;" 
d="M319 584q0 -66 -41 -104t-100 -38q-90 0 -134 49l12 44q44 -52 120 -52q40 0 68 26t28 73q0 45 -28 72.5t-75 27.5q-43 0 -91 -25l5 217h218l-10 -41h-167l-3 -124q31 11 59 11q62 0 100.5 -38t38.5 -98z" />
    <glyph glyph-name="six.superior" unicode="&#x2076;" 
d="M189 442q-64 0 -104.5 46.5t-40.5 133.5q0 119 48 185.5t136 66.5q44 0 70 -14l-10 -36q-32 13 -60 13q-62 0 -98 -49.5t-40 -138.5h2q35 53 101 53q55 0 92 -36.5t37 -92.5q0 -59 -36.5 -95t-96.5 -36zM188 480q41 0 64.5 26t23.5 67q0 40 -25 66.5t-63 26.5
q-42 0 -69 -24t-27 -60q0 -39 26.5 -70.5t69.5 -31.5z" />
    <glyph glyph-name="seven.superior" unicode="&#x2077;" 
d="M92 452l172 381h-213l11 41h252v-37l-169 -385h-53z" />
    <glyph glyph-name="eight.superior" unicode="&#x2078;" 
d="M321 567q0 -57 -39 -91t-98 -34t-98 34t-39 91q0 37 20.5 66.5t56.5 42.5v1q-63 29 -63 95q0 50 35.5 81t87.5 31t87 -30.5t35 -80.5q0 -31 -16 -56.5t-46 -39.5v-1q36 -12 56.5 -42t20.5 -67zM184 845q-33 0 -55 -21t-22 -53t22 -54t55 -22t55 22.5t22 53.5q0 32 -22 53
t-55 21zM184 657q-38 0 -64.5 -25.5t-26.5 -62.5q0 -38 25.5 -62.5t65.5 -24.5t65.5 24.5t25.5 62.5q0 37 -26.5 62.5t-64.5 25.5z" />
    <glyph glyph-name="nine.superior" unicode="&#x2079;" 
d="M177 874q64 0 104.5 -46.5t40.5 -133.5q0 -119 -48 -185.5t-136 -66.5q-44 0 -70 14l10 36q33 -13 60 -13q62 0 98 49.5t40 138.5h-2q-35 -52 -101 -52q-55 0 -92 36t-37 92q0 59 36.5 95t96.5 36zM178 836q-41 0 -64.5 -26t-23.5 -67q0 -40 25 -66.5t63 -26.5
q42 0 69 24t27 60q0 39 -26.5 70.5t-69.5 31.5z" />
    <glyph glyph-name="uni207A" unicode="&#x207a;" 
d="M170 360v132h-131v28h131v132h28v-132h131v-28h-131v-132h-28z" />
    <glyph glyph-name="uni207B" unicode="&#x207b;" 
d="M40 492v28h287v-28h-287z" />
    <glyph glyph-name="uni207C" unicode="&#x207c;" horiz-adv-x="368" 
d="M40 543v28h287v-28h-287zM40 445v27h287v-27h-287z" />
    <glyph glyph-name="uni207D" unicode="&#x207d;" horiz-adv-x="260" 
d="M91 497q0 -80 26.5 -164.5t70.5 -146.5l-37 -24q-49 69 -77 157.5t-28 177.5q0 90 28 178.5t77 157.5l37 -23q-44 -62 -70.5 -147t-26.5 -166z" />
    <glyph glyph-name="uni207E" unicode="&#x207e;" horiz-adv-x="256" 
d="M195 512q0 -89 -28 -177.5t-76 -157.5l-38 23q45 62 70.5 146t25.5 166q0 81 -26 166t-70 146l38 24q49 -70 76.5 -158.5t27.5 -177.5z" />
    <glyph glyph-name="zero.inferior" unicode="&#x2080;" 
d="M326 73q0 -58 -11 -104.5t-44.5 -81.5t-86.5 -35q-54 0 -87 35t-44 81t-11 105t11 105t44 81t87 35q40 0 69.5 -19t44.5 -52.5t21.5 -70t6.5 -79.5zM278 73q0 29 -3.5 56.5t-12.5 57.5t-29 48t-49 18t-49.5 -18.5t-29.5 -48.5t-12.5 -57t-3.5 -56t3.5 -56t12.5 -57.5
t29.5 -48.5t49.5 -18t49 18t29 48t12.5 57.5t3.5 56.5z" />
    <glyph glyph-name="one.inferior" unicode="&#x2081;" 
d="M176 -138v368l-93 -68l-18 42l115 81h44v-423h-48z" />
    <glyph glyph-name="two.inferior" unicode="&#x2082;" 
d="M38 -138v39l157 169q58 62 58 107q0 35 -22.5 55.5t-57.5 20.5q-58 0 -106 -56l-21 38q50 59 130 59q57 0 91.5 -31t34.5 -81q0 -38 -18.5 -70t-60.5 -75l-129 -134h221l-12 -41h-265z" />
    <glyph glyph-name="three.inferior" unicode="&#x2083;" 
d="M170 -148q-83 0 -126 45l15 41q16 -18 47.5 -31.5t61.5 -13.5q42 0 66.5 22.5t24.5 62.5q0 41 -31.5 63t-75.5 22h-22v38h22q44 0 69 23t25 59q0 34 -22 53t-56 19q-57 0 -97 -42l-18 35q48 46 118 46q56 0 89 -29t33 -81q0 -36 -21 -62.5t-56 -36.5q42 -8 66 -37.5
t24 -70.5q0 -59 -39.5 -92t-96.5 -33z" />
    <glyph glyph-name="four.inferior" unicode="&#x2084;" 
d="M226 -138v100h-194v42l180 280h58v-282h65l-11 -40h-54v-100h-44zM226 229h-3l-144 -227h147v227z" />
    <glyph glyph-name="five.inferior" unicode="&#x2085;" 
d="M319 -6q0 -66 -41 -104t-100 -38q-90 0 -134 49l12 44q44 -52 120 -52q40 0 68 26t28 73q0 45 -28 72.5t-75 27.5q-43 0 -91 -25l5 217h218l-10 -41h-167l-3 -124q31 11 59 11q62 0 100.5 -38t38.5 -98z" />
    <glyph glyph-name="six.inferior" unicode="&#x2086;" 
d="M189 -148q-64 0 -104.5 46.5t-40.5 133.5q0 119 48 185.5t136 66.5q44 0 70 -14l-10 -36q-32 13 -60 13q-62 0 -98 -49.5t-40 -138.5h2q35 53 101 53q55 0 92 -36.5t37 -92.5q0 -59 -36.5 -95t-96.5 -36zM188 -110q41 0 64.5 26t23.5 67q0 40 -25 66.5t-63 26.5
q-42 0 -69 -24t-27 -60q0 -39 26.5 -70.5t69.5 -31.5z" />
    <glyph glyph-name="seven.inferior" unicode="&#x2087;" 
d="M92 -138l172 381h-213l11 41h252v-37l-169 -385h-53z" />
    <glyph glyph-name="eight.inferior" unicode="&#x2088;" 
d="M321 -23q0 -57 -39 -91t-98 -34t-98 34t-39 91q0 37 20.5 66.5t56.5 42.5v1q-63 29 -63 95q0 50 35.5 81t87.5 31t87 -30.5t35 -80.5q0 -31 -16 -56.5t-46 -39.5v-1q36 -13 56.5 -42.5t20.5 -66.5zM184 255q-33 0 -55 -21t-22 -53t22 -54t55 -22t55 22.5t22 53.5
q0 32 -22 53t-55 21zM184 67q-38 0 -64.5 -25.5t-26.5 -62.5q0 -38 25.5 -62.5t65.5 -24.5t65.5 24.5t25.5 62.5q0 37 -26.5 62.5t-64.5 25.5z" />
    <glyph glyph-name="nine.inferior" unicode="&#x2089;" 
d="M177 284q64 0 104.5 -46.5t40.5 -133.5q0 -119 -48 -185.5t-136 -66.5q-44 0 -70 14l10 36q32 -13 60 -13q62 0 98 49.5t40 138.5h-2q-35 -52 -101 -52q-55 0 -92 36t-37 92q0 59 36.5 95t96.5 36zM178 246q-41 0 -64.5 -26t-23.5 -67q0 -40 25 -66.5t63 -26.5
q42 0 69 24t27 60q0 39 -26.5 70.5t-69.5 31.5z" />
    <glyph glyph-name="uni208A" unicode="&#x208a;" 
d="M170 75v132h-131v28h131v132h28v-132h131v-28h-131v-132h-28z" />
    <glyph glyph-name="uni208B" unicode="&#x208b;" 
d="M40 207v28h287v-28h-287z" />
    <glyph glyph-name="uni208C" unicode="&#x208c;" horiz-adv-x="368" 
d="M41 257v28h287v-28h-287zM41 159v27h287v-27h-287z" />
    <glyph glyph-name="uni208D" unicode="&#x208d;" horiz-adv-x="260" 
d="M91 204q0 -80 26.5 -164.5t70.5 -146.5l-37 -24q-49 69 -77 157.5t-28 177.5q0 90 28 178.5t77 157.5l37 -23q-44 -62 -70.5 -147t-26.5 -166z" />
    <glyph glyph-name="uni208E" unicode="&#x208e;" horiz-adv-x="256" 
d="M195 221q0 -89 -28 -177.5t-76 -157.5l-38 23q45 62 70.5 146t25.5 166q0 81 -26 166t-70 146l38 24q49 -70 76.5 -158.5t27.5 -177.5z" />
    <glyph glyph-name="Euro" unicode="&#x20ac;" horiz-adv-x="580" 
d="M547 27q-63 -46 -170 -46q-115 0 -190 76t-95 192h-73l15 43h52q-3 22 -3 57q0 43 4 67h-66l14 43h59q27 128 106.5 198t190.5 70q89 0 148 -32l-20 -49q-56 31 -131 31q-86 0 -148.5 -57.5t-84.5 -160.5h316l-14 -43h-310q-5 -30 -5 -67q0 -33 3 -57h275l-14 -43h-255
q16 -98 81 -157.5t153 -59.5q86 0 142 42z" />
    <glyph glyph-name="uni2105" unicode="&#x2105;" horiz-adv-x="831" 
d="M212 -29l-39 21l439 746l38 -22zM210 385q-73 0 -120 47t-47 121t46 121.5t118 47.5q73 0 122 -39l-19 -42q-42 37 -103 37q-52 0 -82.5 -36t-30.5 -89q0 -52 32.5 -88t85.5 -36q55 0 97 35l18 -39q-46 -40 -117 -40zM621 -12q-73 0 -119.5 47t-46.5 122q0 73 46.5 120
t119.5 47t119.5 -47t46.5 -120q0 -75 -46.5 -122t-119.5 -47zM621 31q54 0 85.5 36t31.5 90q0 53 -31.5 88.5t-85.5 35.5q-53 0 -85 -35.5t-32 -88.5t32 -89.5t85 -36.5z" />
    <glyph glyph-name="uni2113" unicode="&#x2113;" horiz-adv-x="500" 
d="M408 39q-54 -53 -122 -53q-54 0 -87 31.5t-33 93.5v127l-59 -65h-2l-22 30l82 84v263q0 80 34 125.5t86 45.5q46 0 74 -33t28 -91q0 -142 -167 -321v-157q0 -49 23 -69.5t54 -20.5q46 0 88 38h2zM341 593q0 39 -16.5 63.5t-40.5 24.5q-27 0 -45.5 -31t-18.5 -92v-231
q121 141 121 266z" />
    <glyph glyph-name="uni2117" unicode="&#x2117;" horiz-adv-x="800" 
d="M20 353q0 157 111.5 267t269.5 110q157 0 268 -110t111 -267q0 -156 -111 -265.5t-268 -109.5q-158 0 -269.5 109.5t-111.5 265.5zM59 353q0 -141 100 -239.5t242 -98.5q141 0 240.5 98.5t99.5 239.5q0 142 -99.5 241t-240.5 99q-142 0 -242 -99t-100 -241zM286 567h154
q69 0 112.5 -33.5t43.5 -100.5q0 -63 -42.5 -100.5t-109.5 -37.5h-108v-168h-50v440zM443 338q47 0 75 25t28 70t-29.5 68.5t-75.5 23.5h-105v-187h107z" />
    <glyph glyph-name="trademark" unicode="&#x2122;" horiz-adv-x="1000" 
d="M213 296v371h-136l10 41h310l-10 -41h-126v-371h-48zM487 296v412h71l141 -341l140 341h71v-412h-46v356h-2l-149 -356h-31l-147 356h-2v-356h-46z" />
    <glyph glyph-name="uni2126" unicode="&#x2126;" horiz-adv-x="747" 
d="M386 672q-114 0 -186.5 -77.5t-72.5 -208.5q0 -121 48.5 -197t142.5 -137v-52h-280v50h219q-194 117 -194 340q0 149 90 241t233 92q147 0 236 -88.5t89 -244.5q0 -228 -194 -340h219v-50h-281v52q98 58 145.5 136t47.5 198q0 134 -72.5 210t-189.5 76z" />
    <glyph glyph-name="estimated" unicode="&#x212e;" horiz-adv-x="587" 
d="M157 259v-181q59 -59 145 -59q122 0 193 120l35 -21q-46 -72 -98 -103.5t-130 -31.5q-115 0 -186.5 79t-71.5 197q0 119 71 197.5t187 78.5q115 0 186.5 -77t72.5 -199h-404zM448 295v145q-63 60 -147 60t-144 -60v-145h291z" />
    <glyph glyph-name="uni2153" unicode="&#x2153;" horiz-adv-x="834" 
d="M208 -28l-37 20l433 746l38 -21zM172 284v369l-93 -68l-18 42l115 81h44v-424h-48zM626 -10q-82 0 -126 46l15 40q16 -18 47.5 -31.5t61.5 -13.5q42 0 66.5 23t24.5 63q0 41 -31.5 63t-75.5 22h-22v37h22q44 0 69 23t25 59q0 34 -22 53t-56 19q-57 0 -97 -42l-18 35
q47 47 118 47q55 0 88.5 -29.5t33.5 -81.5q0 -36 -21 -62t-56 -37q42 -8 66 -37t24 -70q0 -60 -39.5 -93t-96.5 -33z" />
    <glyph glyph-name="uni2154" unicode="&#x2154;" horiz-adv-x="827" 
d="M208 -28l-37 20l433 746l38 -21zM38 284v40l157 168q58 62 58 108q0 35 -22.5 55t-57.5 20q-57 0 -106 -55l-21 38q52 59 130 59q57 0 91.5 -31t34.5 -81q0 -38 -18.5 -70t-60.5 -75l-129 -134h221l-12 -42h-265zM626 -10q-82 0 -126 46l15 40q16 -18 47.5 -31.5
t61.5 -13.5q42 0 66.5 23t24.5 63q0 41 -31.5 63t-75.5 22h-22v37h22q44 0 69 23t25 59q0 34 -22 53t-56 19q-57 0 -97 -42l-18 35q47 47 118 47q55 0 88.5 -29.5t33.5 -81.5q0 -36 -21 -62t-56 -37q42 -8 66 -37t24 -70q0 -60 -39.5 -93t-96.5 -33z" />
    <glyph glyph-name="oneeighth" unicode="&#x215b;" horiz-adv-x="840" 
d="M208 -28l-37 20l433 746l38 -21zM172 284v369l-93 -68l-18 42l115 81h44v-424h-48zM774 115q0 -57 -39 -91t-98 -34t-98 34t-39 91q0 37 20.5 67t56.5 43v1q-30 13 -46.5 39t-16.5 56q0 50 35.5 81t87.5 31t87 -31t35 -81q0 -67 -62 -95v-1q36 -13 56.5 -43t20.5 -67z
M637 393q-33 0 -55 -21t-22 -53t22 -54t55 -22t55 22.5t22 53.5q0 32 -22 53t-55 21zM637 205q-39 0 -65 -25t-26 -63t25.5 -62.5t65.5 -24.5t65.5 24.5t25.5 62.5q0 37 -26.5 62.5t-64.5 25.5z" />
    <glyph glyph-name="threeeighths" unicode="&#x215c;" horiz-adv-x="826" 
d="M201 -28l-37 20l433 746l38 -21zM170 275q-82 0 -126 46l15 41q16 -19 47.5 -32.5t61.5 -13.5q42 0 66.5 23t24.5 63q0 41 -31.5 63t-75.5 22h-22v38h22q44 0 69 22.5t25 58.5q0 34 -22 53t-56 19q-59 0 -97 -42l-18 35q47 47 118 47q56 0 89 -29t33 -81q0 -37 -21 -63
t-56 -37q42 -8 66 -37t24 -70q0 -60 -39 -93t-97 -33zM763 115q0 -57 -39 -91t-98 -34t-98 34t-39 91q0 37 20.5 67t56.5 43v1q-30 13 -46.5 39t-16.5 56q0 50 35.5 81t87.5 31t87 -31t35 -81q0 -67 -62 -95v-1q36 -13 56.5 -43t20.5 -67zM626 393q-33 0 -55 -21t-22 -53
t22 -54t55 -22t55 22.5t22 53.5q0 32 -22 53t-55 21zM626 205q-39 0 -65 -25t-26 -63t25.5 -62.5t65.5 -24.5t65.5 24.5t25.5 62.5q0 37 -26.5 62.5t-64.5 25.5z" />
    <glyph glyph-name="fiveeighths" unicode="&#x215d;" horiz-adv-x="826" 
d="M201 -28l-37 20l433 746l38 -21zM316 418q0 -66 -41 -104.5t-100 -38.5q-90 0 -134 50l12 44q45 -53 120 -53q40 0 68 26.5t28 73.5q0 45 -27.5 72t-75.5 27q-41 0 -91 -24l5 217h218l-10 -41h-167l-3 -124q28 10 59 10q62 0 100.5 -37.5t38.5 -97.5zM763 115
q0 -57 -39 -91t-98 -34t-98 34t-39 91q0 37 20.5 67t56.5 43v1q-30 13 -46.5 39t-16.5 56q0 50 35.5 81t87.5 31t87 -31t35 -81q0 -67 -62 -95v-1q36 -13 56.5 -43t20.5 -67zM626 393q-33 0 -55 -21t-22 -53t22 -54t55 -22t55 22.5t22 53.5q0 32 -22 53t-55 21zM626 205
q-39 0 -65 -25t-26 -63t25.5 -62.5t65.5 -24.5t65.5 24.5t25.5 62.5q0 37 -26.5 62.5t-64.5 25.5z" />
    <glyph glyph-name="seveneighths" unicode="&#x215e;" horiz-adv-x="826" 
d="M163 -28l-38 20l434 746l37 -21zM92 285l172 382h-213l11 41h252v-37l-169 -386h-53zM761 115q0 -57 -39 -91t-98 -34t-98 34t-39 91q0 37 20.5 67t56.5 43v1q-30 13 -46.5 39t-16.5 56q0 50 35.5 81t87.5 31t87 -31t35 -81q0 -67 -62 -95v-1q36 -13 56.5 -43t20.5 -67z
M624 393q-33 0 -55 -21t-22 -53t22 -54t55 -22t55 22.5t22 53.5q0 32 -22 53t-55 21zM624 205q-39 0 -65 -25t-26 -63t25.5 -62.5t65.5 -24.5t65.5 24.5t25.5 62.5q0 37 -26.5 62.5t-64.5 25.5z" />
    <glyph glyph-name="partialdiff" unicode="&#x2202;" horiz-adv-x="513" 
d="M238 -15q-86 0 -140.5 65t-54.5 160q0 98 53 156t139 58q50 0 95 -25t73 -68q2 44 2 65q0 120 -49 199t-134 79q-61 0 -115 -45l-29 38q63 56 143 56q85 0 140.5 -52t77 -129.5t21.5 -177.5q0 -184 -57.5 -281.5t-164.5 -97.5zM240 34q42 0 73.5 24t48.5 63t26 78.5
t11 80.5q-69 95 -158 95q-66 0 -103 -49t-37 -117t37 -121.5t102 -53.5z" />
    <glyph glyph-name="uni2206" unicode="&#x2206;" horiz-adv-x="625" 
d="M325 713l258 -684v-29h-577v30l259 683h60zM519 49l-186 499l-39 109q-21 -63 -36 -104l-188 -504h449z" />
    <glyph glyph-name="product" unicode="&#x220f;" horiz-adv-x="714" 
d="M81 -214v1000h553v-1000h-56v950h-441v-950h-56z" />
    <glyph glyph-name="summation" unicode="&#x2211;" horiz-adv-x="608" 
d="M37 -214v46l328 458l-315 449v47h511v-50h-441l312 -446l-326 -454h466v-50h-535z" />
    <glyph glyph-name="minus" unicode="&#x2212;" horiz-adv-x="666" 
d="M89 282v47h488v-47h-488z" />
    <glyph glyph-name="uni2215" unicode="&#x2215;" horiz-adv-x="100" 
d="M-159 -28l-37 20l433 746l37 -21z" />
    <glyph glyph-name="uni2219" unicode="&#x2219;" horiz-adv-x="255" 
d="M128 231q-19 0 -31.5 13t-12.5 32t12.5 32t31.5 13q18 0 31.5 -13t13.5 -32t-13.5 -32t-31.5 -13z" />
    <glyph glyph-name="radical" unicode="&#x221a;" horiz-adv-x="496" 
d="M231 -215l-163 350l-56 -28l-21 44l103 48l156 -340l193 927h54l-210 -1001h-56z" />
    <glyph glyph-name="infinity" unicode="&#x221e;" horiz-adv-x="747" 
d="M562 105q-79 0 -183 113q-32 -33 -55.5 -54t-59 -40t-68.5 -19q-60 0 -98 41t-38 105t37.5 105.5t97.5 41.5q76 0 184 -117q106 117 182 117q60 0 98 -41t38 -105t-37.5 -105.5t-97.5 -41.5zM563 150q40 0 64 29t24 71q0 44 -24 73t-65 29q-33 0 -68.5 -25t-85.5 -77
q52 -52 86 -76t69 -24zM196 150q59 0 153 100q-50 51 -85.5 76.5t-68.5 25.5q-40 0 -64 -30t-24 -72t24 -71t65 -29z" />
    <glyph glyph-name="integral" unicode="&#x222b;" horiz-adv-x="554" 
d="M169 -208q-25 0 -43.5 11.5t-18.5 33.5q0 13 9.5 22t22.5 9q14 0 26 -19t22 -19q21 0 32.5 47t11.5 116v477v28q-1 24 0 49t1.5 49.5t4 47.5t8 43t13 37t20 29t28.5 19t38 7q25 0 44.5 -11.5t19.5 -33.5q0 -15 -9 -23.5t-23 -8.5q-15 0 -27.5 19t-22.5 19q-43 0 -43 -170
v-507q0 -65 -4 -109t-15.5 -83.5t-35 -59t-59.5 -19.5z" />
    <glyph glyph-name="approxequal" unicode="&#x2248;" horiz-adv-x="666" 
d="M46 280q6 56 36 92.5t90 36.5q45 0 140.5 -34t132.5 -34q73 0 88 81h38q-6 -57 -37.5 -94t-91.5 -37q-43 0 -139 34.5t-129 34.5q-76 0 -90 -80h-38zM45 91q7 56 37 93.5t89 37.5q45 0 141 -34.5t133 -34.5q73 0 87 80h39q-7 -56 -37.5 -93t-91.5 -37q-44 0 -139.5 35
t-128.5 35q-78 0 -90 -82h-39z" />
    <glyph glyph-name="notequal" unicode="&#x2260;" horiz-adv-x="666" 
d="M211 9l-43 22l71 138h-152v48h177l67 135h-244v48h269l74 147l44 -21l-63 -126h160v-48h-186l-68 -135h254v-48h-279z" />
    <glyph glyph-name="lessequal" unicode="&#x2264;" horiz-adv-x="666" 
d="M575 93l-484 213v48l484 213v-52l-420 -185l420 -185v-52zM91 5v48h484v-48h-484z" />
    <glyph glyph-name="greaterequal" unicode="&#x2265;" horiz-adv-x="666" 
d="M91 93v52l420 185l-420 185v52l484 -213v-48zM91 5v48h484v-48h-484z" />
    <glyph glyph-name="lozenge" unicode="&#x25ca;" horiz-adv-x="595" 
d="M271 -35l-166 391l166 391h51l169 -391l-169 -391h-51zM296 16l140 340l-140 340l-138 -340z" />
    <glyph glyph-name="uniF8FF" unicode="&#xf8ff;" horiz-adv-x="512" 
d="M0 0v718h512v-718h-512zM50 50h412v617h-412v-617zM225 234l-2 17q0 53 11.5 78.5t47.5 61.5q31 31 40.5 47t9.5 36q0 36 -22.5 60.5t-53.5 24.5q-71 0 -82 -95l-50 8q7 69 43 103t92 34q54 0 89 -36t35 -95q0 -33 -13 -60t-50 -60q-36 -33 -42.5 -50.5t-6.5 -73.5h-46z
M222 117v67h56v-67h-56z" />
    <glyph glyph-name="NULL" horiz-adv-x="0" 
 />
    <glyph glyph-name="zero.denominator" 
d="M326 211q0 -58 -11 -104.5t-44.5 -81.5t-86.5 -35q-54 0 -87 35t-44 81t-11 105t11 105t44 81t87 35q40 0 69.5 -19t44.5 -52.5t21.5 -70t6.5 -79.5zM278 211q0 29 -3.5 56.5t-12.5 57.5t-29 48t-49 18t-49.5 -18.5t-29.5 -48.5t-12.5 -57t-3.5 -56t3.5 -56t12.5 -57.5
t29.5 -48.5t49.5 -18t49 18t29 48t12.5 57.5t3.5 56.5z" />
    <glyph glyph-name="one.denominator" 
d="M176 0v368l-93 -68l-18 42l115 81h44v-423h-48z" />
    <glyph glyph-name="two.denominator" 
d="M38 0v39l157 169q58 62 58 107q0 35 -22.5 55.5t-57.5 20.5q-58 0 -106 -56l-21 38q50 59 130 59q57 0 91.5 -31t34.5 -81q0 -38 -18.5 -70t-60.5 -75l-129 -134h221l-12 -41h-265z" />
    <glyph glyph-name="three.denominator" 
d="M170 -10q-83 0 -126 45l15 41q16 -18 47.5 -31.5t61.5 -13.5q42 0 66.5 22.5t24.5 62.5q0 41 -31.5 63t-75.5 22h-22v38h22q44 0 69 23t25 59q0 34 -22 53t-56 19q-57 0 -97 -42l-18 35q48 46 118 46q56 0 89 -29t33 -81q0 -36 -21 -62.5t-56 -36.5q42 -8 66 -37.5
t24 -70.5q0 -59 -39.5 -92t-96.5 -33z" />
    <glyph glyph-name="four.denominator" 
d="M226 0v100h-194v42l180 280h58v-282h65l-11 -40h-54v-100h-44zM226 367h-3l-144 -227h147v227z" />
    <glyph glyph-name="five.denominator" 
d="M319 132q0 -66 -41 -104t-100 -38q-90 0 -134 49l12 44q44 -52 120 -52q40 0 68 26t28 73q0 45 -28 72.5t-75 27.5q-43 0 -91 -25l5 217h218l-10 -41h-167l-3 -124q31 11 59 11q62 0 100.5 -38t38.5 -98z" />
    <glyph glyph-name="six.denominator" 
d="M189 -10q-64 0 -104.5 46.5t-40.5 133.5q0 119 48 185.5t136 66.5q44 0 70 -14l-10 -36q-32 13 -60 13q-62 0 -98 -49.5t-40 -138.5h2q35 53 101 53q55 0 92 -36.5t37 -92.5q0 -59 -36.5 -95t-96.5 -36zM188 28q41 0 64.5 26t23.5 67q0 40 -25 66.5t-63 26.5
q-42 0 -69 -24t-27 -60q0 -39 26.5 -70.5t69.5 -31.5z" />
    <glyph glyph-name="seven.denominator" 
d="M92 0l172 381h-213l11 41h252v-37l-169 -385h-53z" />
    <glyph glyph-name="eight.denominator" 
d="M321 115q0 -57 -39 -91t-98 -34t-98 34t-39 91q0 37 20.5 66.5t56.5 42.5v1q-63 29 -63 95q0 50 35.5 81t87.5 31t87 -30.5t35 -80.5q0 -31 -16 -56.5t-46 -39.5v-1q36 -12 56.5 -42t20.5 -67zM184 393q-33 0 -55 -21t-22 -53t22 -54t55 -22t55 22.5t22 53.5q0 32 -22 53
t-55 21zM184 205q-38 0 -64.5 -25.5t-26.5 -62.5q0 -38 25.5 -62.5t65.5 -24.5t65.5 24.5t25.5 62.5q0 37 -26.5 62.5t-64.5 25.5z" />
    <glyph glyph-name="nine.denominator" 
d="M177 422q64 0 104.5 -46.5t40.5 -133.5q0 -119 -48 -185.5t-136 -66.5q-44 0 -70 14l10 36q32 -13 60 -13q62 0 98 49.5t40 138.5h-2q-35 -52 -101 -52q-55 0 -92 36t-37 92q0 59 36.5 95t96.5 36zM178 384q-41 0 -64.5 -26t-23.5 -67q0 -40 25 -66.5t63 -26.5
q42 0 69 24t27 60q0 39 -26.5 70.5t-69.5 31.5z" />
    <glyph glyph-name="zero.numerator" 
d="M326 497q0 -58 -11 -104.5t-44.5 -81.5t-86.5 -35q-54 0 -87 35t-44 81t-11 105t11 105t44 81t87 35q40 0 69.5 -19t44.5 -52.5t21.5 -70t6.5 -79.5zM278 497q0 29 -3.5 56.5t-12.5 57.5t-29 48t-49 18t-49.5 -18.5t-29.5 -48.5t-12.5 -57t-3.5 -56t3.5 -56t12.5 -57.5
t29.5 -48.5t49.5 -18t49 18t29 48t12.5 57.5t3.5 56.5z" />
    <glyph glyph-name="one.numerator" 
d="M175 284v369l-90 -67l-21 40l116 82h43v-424h-48z" />
    <glyph glyph-name="two.numerator" 
d="M38 285v39l157 169q58 62 58 107q0 35 -22.5 55.5t-57.5 20.5q-58 0 -106 -56l-21 38q50 59 130 59q57 0 91.5 -31t34.5 -81q0 -38 -18.5 -70t-60.5 -75l-129 -134h221l-12 -41h-265z" />
    <glyph glyph-name="three.numerator" 
d="M170 276q-83 0 -126 45l15 41q16 -18 47.5 -31.5t61.5 -13.5q42 0 66.5 22.5t24.5 62.5q0 41 -31.5 63t-75.5 22h-22v38h22q44 0 69 23t25 59q0 34 -22 53t-56 19q-57 0 -97 -42l-18 35q48 46 118 46q56 0 89 -29t33 -81q0 -36 -21 -62.5t-56 -36.5q42 -8 66 -37.5
t24 -70.5q0 -59 -39.5 -92t-96.5 -33z" />
    <glyph glyph-name="four.numerator" 
d="M226 286v100h-194v42l180 280h58v-282h65l-11 -40h-54v-100h-44zM226 653h-3l-144 -227h147v227z" />
    <glyph glyph-name="five.numerator" 
d="M319 418q0 -66 -41 -104t-100 -38q-90 0 -134 49l12 44q44 -52 120 -52q40 0 68 26t28 73q0 45 -28 72.5t-75 27.5q-43 0 -91 -25l5 217h218l-10 -41h-167l-3 -124q31 11 59 11q62 0 100.5 -38t38.5 -98z" />
    <glyph glyph-name="six.numerator" 
d="M189 276q-64 0 -104.5 46.5t-40.5 133.5q0 119 48 185.5t136 66.5q44 0 70 -14l-10 -36q-32 13 -60 13q-62 0 -98 -49.5t-40 -138.5h2q35 53 101 53q55 0 92 -36.5t37 -92.5q0 -59 -36.5 -95t-96.5 -36zM188 314q41 0 64.5 26t23.5 67q0 40 -25 66.5t-63 26.5
q-42 0 -69 -24t-27 -60q0 -39 26.5 -70.5t69.5 -31.5z" />
    <glyph glyph-name="seven.numerator" 
d="M92 286l172 381h-213l11 41h252v-37l-169 -385h-53z" />
    <glyph glyph-name="eight.numerator" 
d="M321 401q0 -57 -39 -91t-98 -34t-98 34t-39 91q0 37 20.5 66.5t56.5 42.5v1q-63 29 -63 95q0 50 35.5 81t87.5 31t87 -30.5t35 -80.5q0 -31 -16 -56.5t-46 -39.5v-1q36 -12 56.5 -42t20.5 -67zM184 679q-33 0 -55 -21t-22 -53t22 -54t55 -22t55 22.5t22 53.5q0 32 -22 53
t-55 21zM184 491q-38 0 -64.5 -25.5t-26.5 -62.5q0 -38 25.5 -62.5t65.5 -24.5t65.5 24.5t25.5 62.5q0 37 -26.5 62.5t-64.5 25.5z" />
    <glyph glyph-name="nine.numerator" 
d="M177 708q64 0 104.5 -46.5t40.5 -133.5q0 -119 -48 -185.5t-136 -66.5q-44 0 -70 14l10 36q33 -13 60 -13q62 0 98 49.5t40 138.5h-2q-35 -52 -101 -52q-55 0 -92 36t-37 92q0 59 36.5 95t96.5 36zM178 670q-41 0 -64.5 -26t-23.5 -67q0 -40 25 -66.5t63 -26.5
q42 0 69 24t27 60q0 39 -26.5 70.5t-69.5 31.5z" />
    <glyph glyph-name="zero.onum" horiz-adv-x="686" 
d="M623 267q0 -124 -79 -203t-202 -79q-121 0 -200.5 79t-79.5 203q0 123 79 200.5t201 77.5q123 0 202 -77t79 -201zM561 267q0 96 -60 161t-159 65q-98 0 -158 -65t-60 -161q0 -98 60 -163t158 -65q99 0 159 65t60 163z" />
    <glyph glyph-name="one.onum" horiz-adv-x="381" 
d="M182 0v461l-104 -87l-32 42l141 114h55v-530h-60z" />
    <glyph glyph-name="two.onum" horiz-adv-x="533" 
d="M440 381q0 -73 -60.5 -137t-235.5 -194h327l-12 -50h-397v53l49 36q157 116 212 171t55 115q0 55 -37.5 87t-96.5 32q-48 0 -90 -24.5t-70 -64.5l-29 47q72 93 194 93q82 0 136.5 -46t54.5 -118z" />
    <glyph glyph-name="three.onum" horiz-adv-x="531" 
d="M251 -197q-136 0 -217 81l14 61q34 -39 87.5 -64.5t112.5 -25.5q73 0 117.5 43t44.5 114q0 52 -30 87.5t-71 50t-87 14.5h-25v49h26q68 0 116.5 36t48.5 107q0 60 -39.5 97.5t-99.5 37.5q-49 0 -94.5 -23.5t-76.5 -61.5l-27 46q76 89 200 89q83 0 140 -49t57 -131
q0 -63 -35.5 -109t-98.5 -60v-2q74 -14 115.5 -63.5t41.5 -116.5q0 -91 -59.5 -149t-160.5 -58z" />
    <glyph glyph-name="four.onum" horiz-adv-x="572" 
d="M370 -173v173h-330v57l309 478h77v-484h123l-11 -51h-111v-173h-57zM99 51h271v419h-3z" />
    <glyph glyph-name="five.onum" horiz-adv-x="529" 
d="M247 -193q-135 0 -214 79l12 59q34 -38 87 -62t112 -24q70 0 122 48.5t52 130.5q0 81 -51.5 129.5t-135.5 48.5q-71 0 -141 -35l13 349h345l-12 -53h-279l-10 -232q43 19 104 19q101 0 164 -61.5t63 -161.5q0 -108 -67.5 -171t-163.5 -63z" />
    <glyph glyph-name="six.onum" horiz-adv-x="583" 
d="M302 -15q-104 0 -170.5 78.5t-66.5 225.5q0 201 78.5 313.5t222.5 112.5q68 0 113 -20l-11 -51q-50 21 -103 21q-108 0 -170.5 -88t-68.5 -247h2q64 98 180 98q89 0 150 -62.5t61 -157.5q0 -99 -59.5 -161t-157.5 -62zM301 36q72 0 115 48t43 124q0 74 -45 123.5
t-114 49.5q-73 0 -122.5 -47.5t-49.5 -108.5q0 -72 48.5 -130.5t124.5 -58.5z" />
    <glyph glyph-name="seven.onum" horiz-adv-x="523" 
d="M111 -179l296 655h-364l11 53h413v-56l-288 -652h-68z" />
    <glyph glyph-name="eight.onum" horiz-adv-x="580" 
d="M513 191q0 -94 -64 -149.5t-160 -55.5q-95 0 -159 56t-64 149q0 65 37.5 115.5t104.5 70.5v2q-56 21 -86.5 64.5t-30.5 97.5q0 81 56.5 131t141.5 50t142.5 -49.5t57.5 -130.5q0 -53 -31.5 -98t-86.5 -65v-2q69 -20 105.5 -70.5t36.5 -115.5zM289 674q-60 0 -99.5 -38
t-39.5 -97q0 -57 39.5 -98t99.5 -41t100.5 41t40.5 98q0 59 -40.5 97t-100.5 38zM453 193q0 69 -47 114.5t-117 45.5q-69 0 -115.5 -45.5t-46.5 -114.5q0 -68 45 -113t117 -45q73 0 118.5 45t45.5 113z" />
    <glyph glyph-name="nine.onum" horiz-adv-x="583" 
d="M286 543q105 0 168.5 -82.5t63.5 -233.5q0 -210 -73.5 -312t-203.5 -102q-87 0 -138 28l10 52q60 -29 130 -29q94 0 153 83.5t61 249.5h-3q-24 -40 -74 -68.5t-108 -28.5q-92 0 -150 61.5t-58 158.5q0 98 63 160.5t159 62.5zM286 492q-70 0 -116 -48.5t-46 -123.5
t44 -124t114 -49t123 46.5t53 89.5q0 85 -48.5 147t-123.5 62z" />
    <glyph glyph-name="uni0326.alt" horiz-adv-x="0" 
d="M-168 565l67 187h47l-57 -187h-57z" />
    <glyph glyph-name="caron.alt" horiz-adv-x="250" 
d="M94 521l57 187h57l-68 -187h-46z" />
    <glyph glyph-name="acute.cap" horiz-adv-x="250" 
d="M77 764l103 144h67l-122 -144h-48z" />
    <glyph glyph-name="breve.cap" horiz-adv-x="250" 
d="M124 771q-57 0 -94.5 34t-43.5 97h36q8 -44 35.5 -66.5t66.5 -22.5q86 0 104 89h37q-8 -63 -46 -97t-95 -34z" />
    <glyph glyph-name="caron.cap" horiz-adv-x="250" 
d="M94 764l-108 144h52l87 -117l87 117h52l-108 -144h-62z" />
    <glyph glyph-name="circumflex.cap" horiz-adv-x="250" 
d="M-14 764l108 144h62l108 -144h-52l-87 117l-87 -117h-52z" />
    <glyph glyph-name="dieresis.cap" horiz-adv-x="250" 
d="M38 813q-17 0 -29 12t-12 29q0 16 12.5 28.5t28.5 12.5q17 0 29 -12t12 -29q0 -18 -12 -29.5t-29 -11.5zM213 813q-17 0 -29 12t-12 29t12 29t29 12t29 -12t12 -29q0 -18 -12 -29.5t-29 -11.5z" />
    <glyph glyph-name="dotaccent.cap" horiz-adv-x="250" 
d="M125 813q-17 0 -29 12t-12 30q0 17 12 29t29 12t29.5 -12t12.5 -29q0 -18 -13 -30t-29 -12z" />
    <glyph glyph-name="grave.cap" horiz-adv-x="250" 
d="M125 764l-122 144h68l102 -144h-48z" />
    <glyph glyph-name="hungarumlaut.cap" horiz-adv-x="250" 
d="M2 763l102 145h68l-122 -145h-48zM150 763l104 145h67l-122 -145h-49z" />
    <glyph glyph-name="macron.cap" horiz-adv-x="250" 
d="M-5 811v40h260v-40h-260z" />
    <glyph glyph-name="ring.cap" horiz-adv-x="250" 
d="M125 754q-40 0 -69 28t-29 69t29 69t69 28q41 0 69.5 -28t28.5 -69t-28.5 -69t-69.5 -28zM125 781q29 0 49.5 20.5t20.5 49.5t-20.5 49.5t-49.5 20.5t-49.5 -20.5t-20.5 -49.5t20.5 -49.5t49.5 -20.5z" />
    <glyph glyph-name="tilde.cap" horiz-adv-x="250" 
d="M191 786q-27 0 -69 24q-38 23 -62 23q-33 0 -43 -49h-32q5 41 24 65t51 24q28 0 69 -23q40 -23 62 -23q34 0 42 47h33q-12 -88 -75 -88z" />
    <glyph glyph-name="cyrbreve.cap" horiz-adv-x="250" 
d="M125 771q-57 0 -94 35t-44 91l35 7q10 -45 37 -68t66 -23q85 0 103 91l36 -7q-7 -56 -44 -91t-95 -35z" />
    </font>
</defs>
</svg>
